G04 #@! TF.FileFunction,Paste,Top*
%FSLAX46Y46*%
G04 Gerber Fmt 4.6, Leading zero omitted, Abs format (unit mm)*
G04 Created by KiCad (PCBNEW 4.0.2-4+6225~38~ubuntu15.10.1-stable) date Wed 30 Mar 2016 09:09:27 AM CDT*
%MOMM*%
G01*
G04 APERTURE LIST*
%ADD10C,0.100000*%
%ADD11R,1.220000X0.910000*%
%ADD12R,0.650000X1.060000*%
%ADD13R,1.350000X0.400000*%
%ADD14R,0.800000X0.750000*%
%ADD15R,0.900000X0.500000*%
%ADD16R,0.750000X0.800000*%
%ADD17R,1.198880X1.198880*%
%ADD18R,0.800100X0.800100*%
%ADD19R,0.500000X0.900000*%
%ADD20R,1.000000X0.900000*%
%ADD21R,1.500000X1.000000*%
%ADD22R,1.550000X0.600000*%
%ADD23R,0.400000X1.200000*%
%ADD24R,0.650000X0.350000*%
%ADD25R,0.600000X0.480000*%
%ADD26R,0.450000X0.630000*%
%ADD27R,0.780000X0.510000*%
G04 APERTURE END LIST*
D10*
D11*
X129794000Y-64262000D03*
X129794000Y-67532000D03*
D12*
X132636000Y-66809000D03*
X133586000Y-66809000D03*
X134536000Y-66809000D03*
X134536000Y-64609000D03*
X132636000Y-64609000D03*
D13*
X126380000Y-68170000D03*
X126380000Y-68820000D03*
X126380000Y-69470000D03*
X126380000Y-70120000D03*
X126380000Y-70770000D03*
D14*
X130350000Y-72475000D03*
X131850000Y-72475000D03*
D15*
X156880000Y-78060000D03*
X156880000Y-79560000D03*
D14*
X157430000Y-88080000D03*
X158930000Y-88080000D03*
D16*
X166116000Y-85900000D03*
X166116000Y-87400000D03*
X135007390Y-72475558D03*
X135007390Y-70975558D03*
X136652000Y-59436000D03*
X136652000Y-60936000D03*
X143557390Y-60725558D03*
X143557390Y-59225558D03*
D17*
X149323040Y-66450000D03*
X147225000Y-66450000D03*
X138075000Y-77349020D03*
X138075000Y-75250980D03*
X135050000Y-77423040D03*
X135050000Y-75325000D03*
X147126960Y-59450000D03*
X149225000Y-59450000D03*
X141175000Y-77323040D03*
X141175000Y-75225000D03*
D15*
X136652000Y-64516000D03*
X136652000Y-66016000D03*
D18*
X147335240Y-82362000D03*
X147335240Y-84262000D03*
X149334220Y-83312000D03*
X149325000Y-72350000D03*
X147425000Y-72350000D03*
X148375000Y-74348980D03*
D19*
X148075000Y-69475000D03*
X149575000Y-69475000D03*
D15*
X137157390Y-70975558D03*
X137157390Y-72475558D03*
D19*
X130350000Y-70275000D03*
X131850000Y-70275000D03*
D15*
X138938000Y-60706000D03*
X138938000Y-59206000D03*
D19*
X194056000Y-71882000D03*
X192556000Y-71882000D03*
D15*
X149280000Y-77990000D03*
X149280000Y-79490000D03*
X159190000Y-79560000D03*
X159190000Y-78060000D03*
D19*
X147500000Y-63200000D03*
X149000000Y-63200000D03*
X157320000Y-85000000D03*
X158820000Y-85000000D03*
D15*
X168402000Y-87400000D03*
X168402000Y-85900000D03*
X163576000Y-86154000D03*
X163576000Y-87654000D03*
D19*
X158790000Y-82000000D03*
X157290000Y-82000000D03*
X186690000Y-62992000D03*
X188190000Y-62992000D03*
D15*
X141007390Y-72475558D03*
X141007390Y-70975558D03*
X139057390Y-72575558D03*
X139057390Y-71075558D03*
X140970000Y-59206000D03*
X140970000Y-60706000D03*
X142907390Y-72475558D03*
X142907390Y-70975558D03*
D19*
X186690000Y-65532000D03*
X188190000Y-65532000D03*
D15*
X187325000Y-78825000D03*
X187325000Y-80325000D03*
D20*
X139660000Y-82970000D03*
X139660000Y-84570000D03*
X143760000Y-82970000D03*
X143760000Y-84570000D03*
D21*
X159275000Y-65650000D03*
X159275000Y-67150000D03*
X159275000Y-68650000D03*
X159275000Y-64150000D03*
X159275000Y-62650000D03*
X159275000Y-61150000D03*
X159275000Y-56650000D03*
X159275000Y-58150000D03*
X159275000Y-59650000D03*
X177275000Y-59650000D03*
X177275000Y-58150000D03*
X177275000Y-56650000D03*
X177275000Y-61150000D03*
X177275000Y-62650000D03*
X177275000Y-64150000D03*
X177275000Y-68650000D03*
X177275000Y-67150000D03*
X177275000Y-65650000D03*
D22*
X163002000Y-78486000D03*
X163002000Y-79756000D03*
X163002000Y-81026000D03*
X163002000Y-82296000D03*
X168402000Y-82296000D03*
X168402000Y-81026000D03*
X168402000Y-79756000D03*
X168402000Y-78486000D03*
D23*
X143225000Y-63025000D03*
X142590000Y-63025000D03*
X141955000Y-63025000D03*
X141320000Y-63025000D03*
X140685000Y-63025000D03*
X140050000Y-63025000D03*
X139415000Y-63025000D03*
X138780000Y-63025000D03*
X138780000Y-68225000D03*
X139415000Y-68225000D03*
X140050000Y-68225000D03*
X140685000Y-68225000D03*
X141320000Y-68225000D03*
X141955000Y-68225000D03*
X142590000Y-68225000D03*
X143225000Y-68225000D03*
D24*
X187825000Y-74600000D03*
X187825000Y-75250000D03*
X187825000Y-75900000D03*
X189925000Y-75900000D03*
X189925000Y-75250000D03*
X189925000Y-74600000D03*
D25*
X188875000Y-75650000D03*
X188875000Y-74850000D03*
D26*
X192598000Y-76695000D03*
X193548000Y-76695000D03*
X194498000Y-76695000D03*
X194498000Y-74015000D03*
X193548000Y-74015000D03*
X192598000Y-74015000D03*
D27*
X194198000Y-74930000D03*
X192898000Y-74930000D03*
X194198000Y-75780000D03*
X192898000Y-75780000D03*
D15*
X156575000Y-69300000D03*
X156575000Y-67800000D03*
X156972000Y-57888000D03*
X156972000Y-56388000D03*
D16*
X146625000Y-79375000D03*
X146625000Y-77875000D03*
M02*
