G04 #@! TF.FileFunction,Copper,L1,Top,Signal*
%FSLAX46Y46*%
G04 Gerber Fmt 4.6, Leading zero omitted, Abs format (unit mm)*
G04 Created by KiCad (PCBNEW 4.0.2-4+6225~38~ubuntu15.10.1-stable) date Thu 24 Mar 2016 10:28:15 PM CDT*
%MOMM*%
G01*
G04 APERTURE LIST*
%ADD10C,0.100000*%
%ADD11R,1.000000X1.500000*%
%ADD12C,1.000000*%
%ADD13R,1.300000X0.700000*%
%ADD14R,1.250000X1.000000*%
%ADD15R,1.220000X0.910000*%
%ADD16R,1.198880X1.198880*%
%ADD17R,0.900000X1.000000*%
%ADD18R,1.727200X2.032000*%
%ADD19O,1.727200X2.032000*%
%ADD20R,0.650000X1.060000*%
%ADD21R,2.032000X1.727200*%
%ADD22O,2.032000X1.727200*%
%ADD23R,0.700000X1.300000*%
%ADD24R,1.550000X0.600000*%
%ADD25R,1.000000X1.250000*%
%ADD26R,1.350000X0.400000*%
%ADD27O,0.950000X1.250000*%
%ADD28O,1.550000X1.000000*%
%ADD29C,0.600000*%
%ADD30C,0.250000*%
%ADD31C,0.500000*%
G04 APERTURE END LIST*
D10*
D11*
X170650000Y-78400000D03*
X172150000Y-78400000D03*
X173650000Y-78400000D03*
X169150000Y-78400000D03*
X167650000Y-78400000D03*
X166150000Y-78400000D03*
X161650000Y-78400000D03*
X163150000Y-78400000D03*
X164650000Y-78400000D03*
X164650000Y-60400000D03*
X163150000Y-60400000D03*
X161650000Y-60400000D03*
X166150000Y-60400000D03*
X167650000Y-60400000D03*
X169150000Y-60400000D03*
X173650000Y-60400000D03*
X172150000Y-60400000D03*
X170650000Y-60400000D03*
D12*
X201650000Y-71650000D03*
X201650000Y-69750000D03*
D13*
X191150000Y-69400000D03*
X191150000Y-71300000D03*
X194150000Y-73900000D03*
X194150000Y-75800000D03*
D14*
X190650000Y-73900000D03*
X190650000Y-75900000D03*
D15*
X131150000Y-68765000D03*
X131150000Y-72035000D03*
D16*
X157650000Y-62998040D03*
X157650000Y-60900000D03*
D17*
X146450000Y-61350000D03*
X144850000Y-61350000D03*
X146450000Y-65450000D03*
X144850000Y-65450000D03*
D18*
X178435000Y-55880000D03*
D19*
X175895000Y-55880000D03*
X173355000Y-55880000D03*
X170815000Y-55880000D03*
X168275000Y-55880000D03*
X165735000Y-55880000D03*
X163195000Y-55880000D03*
X160655000Y-55880000D03*
X158115000Y-55880000D03*
X155575000Y-55880000D03*
D20*
X134650000Y-74400000D03*
X133700000Y-74400000D03*
X132750000Y-74400000D03*
X132750000Y-76600000D03*
X134650000Y-76600000D03*
D13*
X135650000Y-68950000D03*
X135650000Y-70850000D03*
D21*
X141500000Y-74900000D03*
D22*
X141500000Y-72360000D03*
X141500000Y-69820000D03*
X141500000Y-67280000D03*
X141500000Y-64740000D03*
X141500000Y-62200000D03*
D23*
X154650000Y-78400000D03*
X156550000Y-78400000D03*
D24*
X181750000Y-67130000D03*
X181750000Y-68400000D03*
X181750000Y-69670000D03*
X181750000Y-70940000D03*
X187150000Y-70940000D03*
X187150000Y-69670000D03*
X187150000Y-68400000D03*
X187150000Y-67130000D03*
D25*
X194650000Y-65900000D03*
X196650000Y-65900000D03*
D13*
X153150000Y-67500000D03*
X153150000Y-69400000D03*
D17*
X144850000Y-80155000D03*
X146450000Y-80155000D03*
X144850000Y-76055000D03*
X146450000Y-76055000D03*
D23*
X152250000Y-74900000D03*
X154150000Y-74900000D03*
X154150000Y-71900000D03*
X152250000Y-71900000D03*
D13*
X151650000Y-62800000D03*
X151650000Y-60900000D03*
X154650000Y-62900000D03*
X154650000Y-61000000D03*
D26*
X127038540Y-68295100D03*
X127038540Y-68945100D03*
X127038540Y-69595100D03*
X127038540Y-70245100D03*
X127038540Y-70895100D03*
D27*
X127038540Y-67095100D03*
X127038540Y-72095100D03*
D28*
X124338540Y-66095100D03*
X124338540Y-73095100D03*
D14*
X131150000Y-64900000D03*
X131150000Y-62900000D03*
D25*
X184690000Y-62865000D03*
X186690000Y-62865000D03*
D16*
X185600000Y-52600000D03*
X185600000Y-54698040D03*
D23*
X186690000Y-59055000D03*
X184790000Y-59055000D03*
D13*
X191150000Y-66350000D03*
X191150000Y-64450000D03*
X194650000Y-69500000D03*
X194650000Y-71400000D03*
D15*
X135650000Y-65400000D03*
X135650000Y-62130000D03*
D16*
X149100980Y-78900000D03*
X151199020Y-78900000D03*
X152051960Y-65900000D03*
X154150000Y-65900000D03*
D17*
X145350000Y-71950000D03*
X146950000Y-71950000D03*
X145350000Y-67850000D03*
X146950000Y-67850000D03*
D18*
X156150000Y-83400000D03*
D19*
X158690000Y-83400000D03*
X161230000Y-83400000D03*
X163770000Y-83400000D03*
X166310000Y-83400000D03*
X168850000Y-83400000D03*
X171390000Y-83400000D03*
X173930000Y-83400000D03*
X176470000Y-83400000D03*
X179010000Y-83400000D03*
D29*
X161650000Y-79900000D03*
X166150000Y-61900000D03*
X173650000Y-61900000D03*
X188650000Y-66900000D03*
X193650000Y-76900000D03*
X190150000Y-76900000D03*
X145150000Y-63400000D03*
X146650000Y-69900000D03*
X147150000Y-77900000D03*
X153150000Y-70400000D03*
X162569990Y-62400000D03*
X132650000Y-71900000D03*
X156150000Y-61400000D03*
X152150000Y-59900000D03*
X173150000Y-58900000D03*
X167650000Y-76900000D03*
X155150000Y-76900000D03*
X145650000Y-73400000D03*
X156150000Y-59900000D03*
X159650000Y-63900000D03*
D30*
X135650000Y-68950000D02*
X135950000Y-68950000D01*
X135950000Y-68950000D02*
X136625001Y-69625001D01*
X136625001Y-69625001D02*
X136625001Y-71644999D01*
X136625001Y-71644999D02*
X134650000Y-73620000D01*
X134650000Y-73620000D02*
X134650000Y-74400000D01*
X131150000Y-64900000D02*
X131150000Y-68765000D01*
X135650000Y-65400000D02*
X135650000Y-68950000D01*
X131150000Y-64900000D02*
X135150000Y-64900000D01*
X135150000Y-64900000D02*
X135650000Y-65400000D01*
X127038540Y-70895100D02*
X127038540Y-72095100D01*
D31*
X158690000Y-83400000D02*
X156150000Y-83400000D01*
D30*
X161650000Y-78400000D02*
X161650000Y-79900000D01*
X166150000Y-60400000D02*
X166150000Y-61900000D01*
X173650000Y-60400000D02*
X173650000Y-61900000D01*
X187150000Y-67130000D02*
X188420000Y-67130000D01*
X188420000Y-67130000D02*
X188650000Y-66900000D01*
X194150000Y-75800000D02*
X194150000Y-76400000D01*
X194150000Y-76400000D02*
X193650000Y-76900000D01*
X190650000Y-75900000D02*
X190650000Y-76400000D01*
X190650000Y-76400000D02*
X190150000Y-76900000D01*
X127038540Y-67095100D02*
X127038540Y-66945100D01*
X127038540Y-66945100D02*
X131083640Y-62900000D01*
X131083640Y-62900000D02*
X131150000Y-62900000D01*
X127038540Y-72095100D02*
X127763540Y-72095100D01*
X127763540Y-72095100D02*
X130068440Y-74400000D01*
X130068440Y-74400000D02*
X132175000Y-74400000D01*
X132175000Y-74400000D02*
X132750000Y-74400000D01*
X144850000Y-65450000D02*
X144850000Y-63700000D01*
X144850000Y-63700000D02*
X145150000Y-63400000D01*
X144850000Y-61350000D02*
X144850000Y-63100000D01*
X144850000Y-63100000D02*
X145150000Y-63400000D01*
X146950000Y-71950000D02*
X146950000Y-70200000D01*
X146950000Y-70200000D02*
X146650000Y-69900000D01*
X146950000Y-67850000D02*
X146950000Y-69600000D01*
X146950000Y-69600000D02*
X146650000Y-69900000D01*
X146450000Y-80155000D02*
X146450000Y-78600000D01*
X146450000Y-78600000D02*
X147150000Y-77900000D01*
X146450000Y-76055000D02*
X146450000Y-77200000D01*
X146450000Y-77200000D02*
X147150000Y-77900000D01*
X152250000Y-71900000D02*
X152250000Y-71300000D01*
X152250000Y-71300000D02*
X153150000Y-70400000D01*
X181750000Y-67130000D02*
X182225000Y-67130000D01*
X182225000Y-67130000D02*
X184690000Y-64665000D01*
X184690000Y-64665000D02*
X184690000Y-63740000D01*
X184690000Y-63740000D02*
X184690000Y-62865000D01*
X173524999Y-58274999D02*
X173652401Y-58274999D01*
X173652401Y-58274999D02*
X175895000Y-56032400D01*
X175895000Y-56032400D02*
X175895000Y-55880000D01*
X170650000Y-60400000D02*
X170650000Y-60150000D01*
X170650000Y-60150000D02*
X172525001Y-58274999D01*
X172525001Y-58274999D02*
X173524999Y-58274999D01*
X184790000Y-59055000D02*
X178917600Y-59055000D01*
X178917600Y-59055000D02*
X175895000Y-56032400D01*
X184790000Y-59055000D02*
X184790000Y-62765000D01*
X184790000Y-62765000D02*
X184690000Y-62865000D01*
X181750000Y-68400000D02*
X182775000Y-68400000D01*
X182775000Y-68400000D02*
X186690000Y-64485000D01*
X186690000Y-64485000D02*
X186690000Y-63740000D01*
X186690000Y-63740000D02*
X186690000Y-62865000D01*
X186690000Y-62865000D02*
X186690000Y-62740000D01*
X186690000Y-62740000D02*
X186690000Y-59055000D01*
X191150000Y-64450000D02*
X188150000Y-64450000D01*
X188150000Y-64450000D02*
X186690000Y-62990000D01*
X186690000Y-62990000D02*
X186690000Y-62865000D01*
X191150000Y-71300000D02*
X189170002Y-71300000D01*
X188905001Y-71565001D02*
X184120001Y-71565001D01*
X189170002Y-71300000D02*
X188905001Y-71565001D01*
X184120001Y-71565001D02*
X182225000Y-69670000D01*
X182225000Y-69670000D02*
X181750000Y-69670000D01*
X190650000Y-71800000D02*
X191150000Y-71300000D01*
X190650000Y-73900000D02*
X190650000Y-71800000D01*
X194150000Y-73900000D02*
X190650000Y-73900000D01*
X194650000Y-65900000D02*
X191600000Y-65900000D01*
X191600000Y-65900000D02*
X191150000Y-66350000D01*
X194650000Y-71400000D02*
X194950000Y-71400000D01*
X194950000Y-71400000D02*
X196650000Y-69700000D01*
X196650000Y-69700000D02*
X196650000Y-66775000D01*
X196650000Y-66775000D02*
X196650000Y-65900000D01*
X201450000Y-69750000D02*
X201650000Y-69750000D01*
X201650000Y-69750000D02*
X200375000Y-69750000D01*
X200375000Y-69750000D02*
X196650000Y-66025000D01*
X196650000Y-66025000D02*
X196650000Y-65900000D01*
X177011010Y-54538990D02*
X172862662Y-54538990D01*
X172862662Y-54538990D02*
X172003610Y-55398042D01*
X172003610Y-55398042D02*
X172003610Y-57296390D01*
X172003610Y-57296390D02*
X169150000Y-60150000D01*
X169150000Y-60150000D02*
X169150000Y-60400000D01*
X178950000Y-52600000D02*
X177011010Y-54538990D01*
X185600000Y-52600000D02*
X178950000Y-52600000D01*
X163150000Y-60400000D02*
X163150000Y-60650000D01*
X163150000Y-60650000D02*
X160801960Y-62998040D01*
X160801960Y-62998040D02*
X158499440Y-62998040D01*
X158499440Y-62998040D02*
X157650000Y-62998040D01*
X164650000Y-60400000D02*
X164650000Y-60650000D01*
X164650000Y-60650000D02*
X162900000Y-62400000D01*
X162900000Y-62400000D02*
X162569990Y-62400000D01*
X168275000Y-55880000D02*
X168275000Y-56032400D01*
X168275000Y-56032400D02*
X164650000Y-59657400D01*
X164650000Y-59657400D02*
X164650000Y-60400000D01*
X135650000Y-62130000D02*
X136510000Y-62130000D01*
X136510000Y-62130000D02*
X144240000Y-54400000D01*
X144240000Y-54400000D02*
X156787400Y-54400000D01*
X156787400Y-54400000D02*
X158115000Y-55727600D01*
X158115000Y-55727600D02*
X158115000Y-55880000D01*
X141500000Y-67280000D02*
X141652400Y-67280000D01*
X141652400Y-67280000D02*
X144074999Y-64857401D01*
X144074999Y-64857401D02*
X144074999Y-60589999D01*
X144074999Y-60589999D02*
X147443988Y-57221010D01*
X147443988Y-57221010D02*
X159466390Y-57221010D01*
X159466390Y-57221010D02*
X160655000Y-56032400D01*
X160655000Y-56032400D02*
X160655000Y-55880000D01*
X131150000Y-72035000D02*
X132515000Y-72035000D01*
X132515000Y-72035000D02*
X132650000Y-71900000D01*
X127038540Y-68295100D02*
X128115100Y-68295100D01*
X128115100Y-68295100D02*
X131150000Y-71330000D01*
X131150000Y-71330000D02*
X131150000Y-72035000D01*
X157650000Y-60900000D02*
X156650000Y-60900000D01*
X156650000Y-60900000D02*
X156150000Y-61400000D01*
X165735000Y-55880000D02*
X165735000Y-56032400D01*
X159425561Y-58274999D02*
X157650000Y-60050560D01*
X165735000Y-56032400D02*
X163492401Y-58274999D01*
X157650000Y-60050560D02*
X157650000Y-60900000D01*
X163492401Y-58274999D02*
X159425561Y-58274999D01*
X135650000Y-70850000D02*
X135650000Y-71450000D01*
X135650000Y-71450000D02*
X133700000Y-73400000D01*
X133700000Y-73400000D02*
X133700000Y-73620000D01*
X133700000Y-73620000D02*
X133700000Y-74400000D01*
X154650000Y-78400000D02*
X151699020Y-78400000D01*
X151699020Y-78400000D02*
X151199020Y-78900000D01*
X154150000Y-65900000D02*
X154150000Y-63400000D01*
X154150000Y-63400000D02*
X154650000Y-62900000D01*
X172150000Y-78400000D02*
X172150000Y-78927600D01*
X172150000Y-78927600D02*
X176470000Y-83247600D01*
X176470000Y-83247600D02*
X176470000Y-83400000D01*
X176530000Y-83032600D02*
X176530000Y-83185000D01*
X164650000Y-69900000D02*
X172150000Y-77400000D01*
X153150000Y-69400000D02*
X164150000Y-69400000D01*
X164150000Y-69400000D02*
X164650000Y-69900000D01*
X172150000Y-77400000D02*
X172150000Y-78400000D01*
X172150000Y-78400000D02*
X172150000Y-78064998D01*
X151650000Y-60900000D02*
X151650000Y-60400000D01*
X151650000Y-60400000D02*
X152150000Y-59900000D01*
X185600000Y-54698040D02*
X179616960Y-54698040D01*
X179616960Y-54698040D02*
X178435000Y-55880000D01*
X146450000Y-61350000D02*
X151200000Y-61350000D01*
X151200000Y-61350000D02*
X151650000Y-60900000D01*
X146450000Y-65450000D02*
X146450000Y-61350000D01*
X172150000Y-60400000D02*
X172150000Y-59900000D01*
X172150000Y-59900000D02*
X173150000Y-58900000D01*
X170650000Y-78400000D02*
X170650000Y-80120000D01*
X170650000Y-80120000D02*
X172664000Y-82134000D01*
X172664000Y-82134000D02*
X172816400Y-82134000D01*
X172816400Y-82134000D02*
X173930000Y-83247600D01*
X173930000Y-83247600D02*
X173930000Y-83400000D01*
X170650000Y-78650000D02*
X170650000Y-78400000D01*
X173990000Y-83032600D02*
X173990000Y-83185000D01*
X171390000Y-83400000D02*
X171390000Y-82134000D01*
X171390000Y-82134000D02*
X169150000Y-79894000D01*
X169150000Y-79894000D02*
X169150000Y-79400000D01*
X169150000Y-79400000D02*
X169150000Y-78400000D01*
X171450000Y-83032600D02*
X171450000Y-83185000D01*
X168850000Y-83400000D02*
X168850000Y-82134000D01*
X168850000Y-82134000D02*
X167650000Y-80934000D01*
X167650000Y-80934000D02*
X167650000Y-79400000D01*
X167650000Y-79400000D02*
X167650000Y-78400000D01*
X167650000Y-78400000D02*
X167650000Y-76900000D01*
X166150000Y-78400000D02*
X166150000Y-78064998D01*
X166150000Y-78064998D02*
X159985002Y-71900000D01*
X159985002Y-71900000D02*
X154750000Y-71900000D01*
X154750000Y-71900000D02*
X154150000Y-71900000D01*
X154150000Y-74900000D02*
X162150000Y-74900000D01*
X162150000Y-74900000D02*
X164650000Y-77400000D01*
X164650000Y-77400000D02*
X164650000Y-78400000D01*
X155150000Y-76900000D02*
X155150000Y-77000000D01*
X155150000Y-77000000D02*
X156550000Y-78400000D01*
X145350000Y-71950000D02*
X145350000Y-73100000D01*
X145350000Y-73100000D02*
X145650000Y-73400000D01*
X145350000Y-71950000D02*
X145350000Y-67850000D01*
X163150000Y-78400000D02*
X163150000Y-78064998D01*
X163150000Y-78064998D02*
X162410001Y-77324999D01*
X162410001Y-77324999D02*
X158225001Y-77324999D01*
X158225001Y-77324999D02*
X157150000Y-78400000D01*
X157150000Y-78400000D02*
X156550000Y-78400000D01*
X161650000Y-60400000D02*
X161650000Y-60650000D01*
X161650000Y-60650000D02*
X160226401Y-62073599D01*
X160226401Y-62073599D02*
X150791399Y-62073599D01*
X150791399Y-62073599D02*
X147725001Y-65139997D01*
X147725001Y-65139997D02*
X147725001Y-73129999D01*
X147725001Y-73129999D02*
X144850000Y-76005000D01*
X144850000Y-76005000D02*
X144850000Y-76055000D01*
X144850000Y-76055000D02*
X144850000Y-76105000D01*
X144850000Y-76105000D02*
X144850000Y-80155000D01*
X156150000Y-59900000D02*
X155750000Y-59900000D01*
X155750000Y-59900000D02*
X154650000Y-61000000D01*
X167650000Y-60400000D02*
X167650000Y-61400000D01*
X167650000Y-61400000D02*
X165150000Y-63900000D01*
X165150000Y-63900000D02*
X159650000Y-63900000D01*
X167650000Y-60400000D02*
X167650000Y-59045000D01*
X167650000Y-59045000D02*
X169549000Y-57146000D01*
X169701400Y-57146000D02*
X170815000Y-56032400D01*
X169549000Y-57146000D02*
X169701400Y-57146000D01*
X170815000Y-56032400D02*
X170815000Y-55880000D01*
X179010000Y-83400000D02*
X179010000Y-83247600D01*
X174162400Y-78400000D02*
X173650000Y-78400000D01*
X179010000Y-83247600D02*
X174162400Y-78400000D01*
X181750000Y-70940000D02*
X181750000Y-71490000D01*
X181750000Y-71490000D02*
X174840000Y-78400000D01*
X174840000Y-78400000D02*
X174400000Y-78400000D01*
X174400000Y-78400000D02*
X173650000Y-78400000D01*
X181750000Y-70940000D02*
X181275000Y-70940000D01*
X181275000Y-70940000D02*
X180649999Y-70314999D01*
X180649999Y-70314999D02*
X180649999Y-68960001D01*
X180649999Y-68960001D02*
X180714999Y-69025001D01*
X180714999Y-69025001D02*
X189875001Y-69025001D01*
X189875001Y-69025001D02*
X190250000Y-69400000D01*
X190250000Y-69400000D02*
X191150000Y-69400000D01*
X194650000Y-69500000D02*
X191250000Y-69500000D01*
X191250000Y-69500000D02*
X191150000Y-69400000D01*
X149100980Y-78900000D02*
X149100980Y-79749440D01*
X149100980Y-79749440D02*
X147870419Y-80980001D01*
X147870419Y-80980001D02*
X139605001Y-80980001D01*
X139605001Y-80980001D02*
X135225000Y-76600000D01*
X135225000Y-76600000D02*
X134650000Y-76600000D01*
X152051960Y-65900000D02*
X152051960Y-66401960D01*
X152051960Y-66401960D02*
X153150000Y-67500000D01*
X153150000Y-67500000D02*
X163000000Y-67500000D01*
X163000000Y-67500000D02*
X173650000Y-78150000D01*
X173650000Y-78150000D02*
X173650000Y-78400000D01*
X152250000Y-74900000D02*
X152250000Y-74000000D01*
X152250000Y-74000000D02*
X151574999Y-73324999D01*
X151574999Y-73324999D02*
X151574999Y-68775001D01*
X151574999Y-68775001D02*
X152850000Y-67500000D01*
X152850000Y-67500000D02*
X153150000Y-67500000D01*
X151650000Y-62800000D02*
X151650000Y-65498040D01*
X151650000Y-65498040D02*
X152051960Y-65900000D01*
X149100980Y-78900000D02*
X149100980Y-77449020D01*
X149100980Y-77449020D02*
X151650000Y-74900000D01*
X151650000Y-74900000D02*
X152250000Y-74900000D01*
M02*
