M48
;DRILL file {KiCad 4.0.2-4+6225~38~ubuntu15.10.1-stable} date Thu 24 Mar 2016 10:28:12 PM CDT
;FORMAT={-:-/ absolute / inch / decimal}
FMAT,2
INCH,TZ
T1C0.016
T2C0.020
T3C0.022
T4C0.040
%
G90
G05
M72
T1
X5.2224Y-2.8307
X5.7146Y-2.4961
X5.7343Y-2.8898
X5.7736Y-2.752
X5.7933Y-3.0669
X5.9902Y-2.3583
X6.0295Y-2.7717
X6.1083Y-3.0276
X6.1476Y-2.3583
X6.1476Y-2.4173
X6.2854Y-2.5157
X6.3642Y-3.1457
X6.4004Y-2.4567
X6.5413Y-2.437
X6.6004Y-3.0276
X6.8169Y-2.3189
X6.8366Y-2.437
X7.4272Y-2.6339
X7.4862Y-3.0276
X7.624Y-3.0276
T2
X7.939Y-2.7461
X7.939Y-2.8209
T4
X5.5709Y-2.4488
X5.5709Y-2.5488
X5.5709Y-2.6488
X5.5709Y-2.7488
X5.5709Y-2.8488
X5.5709Y-2.9488
X6.125Y-2.2
X6.1476Y-3.2835
X6.225Y-2.2
X6.2476Y-3.2835
X6.325Y-2.2
X6.3476Y-3.2835
X6.425Y-2.2
X6.4476Y-3.2835
X6.525Y-2.2
X6.5476Y-3.2835
X6.625Y-2.2
X6.6476Y-3.2835
X6.725Y-2.2
X6.7476Y-3.2835
X6.825Y-2.2
X6.8476Y-3.2835
X6.925Y-2.2
X6.9476Y-3.2835
X7.025Y-2.2
X7.0476Y-3.2835
T2
X4.8824Y-2.6022G85X4.908Y-2.6022
G05
X4.8824Y-2.8778G85X4.908Y-2.8778
G05
T3
X5.0015Y-2.6356G85X5.0015Y-2.6474
G05
X5.0015Y-2.8325G85X5.0015Y-2.8443
G05
T0
M30
