G04 #@! TF.FileFunction,Copper,L2,Bot,Signal*
%FSLAX46Y46*%
G04 Gerber Fmt 4.6, Leading zero omitted, Abs format (unit mm)*
G04 Created by KiCad (PCBNEW 4.0.2-4+6225~38~ubuntu15.10.1-stable) date Wed 30 Mar 2016 09:09:27 AM CDT*
%MOMM*%
G01*
G04 APERTURE LIST*
%ADD10C,0.100000*%
%ADD11R,2.032000X1.727200*%
%ADD12O,2.032000X1.727200*%
%ADD13O,0.950000X1.250000*%
%ADD14O,1.550000X1.000000*%
%ADD15R,1.727200X2.032000*%
%ADD16O,1.727200X2.032000*%
%ADD17C,1.000000*%
%ADD18C,0.600000*%
%ADD19C,0.250000*%
%ADD20C,0.254000*%
G04 APERTURE END LIST*
D10*
D11*
X153550000Y-80610000D03*
D12*
X153550000Y-78070000D03*
X153550000Y-75530000D03*
X153550000Y-72990000D03*
X153550000Y-70450000D03*
X153550000Y-67910000D03*
X153550000Y-65370000D03*
X153550000Y-62830000D03*
X153550000Y-60290000D03*
X153550000Y-57750000D03*
D13*
X126380000Y-66970000D03*
X126380000Y-71970000D03*
D14*
X123680000Y-65970000D03*
X123680000Y-72970000D03*
D15*
X168650000Y-50250000D03*
D16*
X166110000Y-50250000D03*
X163570000Y-50250000D03*
X161030000Y-50250000D03*
X158490000Y-50250000D03*
X155950000Y-50250000D03*
D11*
X183100000Y-57975000D03*
D12*
X183100000Y-60515000D03*
X183100000Y-63055000D03*
X183100000Y-65595000D03*
X183100000Y-68135000D03*
X183100000Y-70675000D03*
X183100000Y-73215000D03*
X183100000Y-75755000D03*
X183100000Y-78295000D03*
X183100000Y-80835000D03*
D17*
X175006000Y-79772000D03*
X175006000Y-81672000D03*
D18*
X160539045Y-68337045D03*
X193548000Y-77724000D03*
X187706000Y-76708000D03*
X167132000Y-78486000D03*
X175514000Y-56642000D03*
X160782000Y-61214000D03*
X133793278Y-66447444D03*
X135325543Y-66858457D03*
X141458022Y-67056000D03*
X143764000Y-58166000D03*
X141986000Y-84582000D03*
X145542000Y-77978000D03*
X140716000Y-64262000D03*
X135890000Y-60960000D03*
X131826000Y-73406000D03*
X132588000Y-70104000D03*
X135128000Y-70104000D03*
X158820000Y-86500000D03*
X157480000Y-66802000D03*
X157597020Y-64008000D03*
X145622488Y-62399980D03*
X149352000Y-68072000D03*
X129794000Y-68834000D03*
X155254956Y-65217044D03*
X185928000Y-74422000D03*
X155702000Y-71882000D03*
X190754000Y-76708000D03*
X191516000Y-74930000D03*
X155448000Y-66294000D03*
X186690000Y-66802000D03*
X189484000Y-73406000D03*
X157734000Y-62738000D03*
X155702000Y-62738000D03*
X192786000Y-72898000D03*
X186944000Y-75184000D03*
X188214000Y-64516000D03*
X175260000Y-65278000D03*
X132842000Y-65532000D03*
X158040002Y-82042000D03*
X137160000Y-69596000D03*
X150368000Y-66548000D03*
X146304000Y-60960000D03*
X137668000Y-62230000D03*
X164592000Y-82296000D03*
X141986000Y-64262000D03*
X140208000Y-66802000D03*
X140208000Y-76454000D03*
X140208000Y-69596000D03*
X187452000Y-61722000D03*
X173228000Y-62992000D03*
D19*
X153550000Y-78070000D02*
X153550000Y-77363348D01*
X154891010Y-76022338D02*
X154891010Y-71105118D01*
X153550000Y-77363348D02*
X154891010Y-76022338D01*
X154891010Y-71105118D02*
X157480000Y-68516128D01*
X157480000Y-68516128D02*
X157480000Y-66802000D01*
X156999366Y-64181390D02*
X157172756Y-64008000D01*
X152818346Y-64181390D02*
X156999366Y-64181390D01*
X150193266Y-67647736D02*
X150993001Y-66848001D01*
X150993001Y-66006735D02*
X152818346Y-64181390D01*
X157172756Y-64008000D02*
X157597020Y-64008000D01*
X149352000Y-67647736D02*
X150193266Y-67647736D01*
X150993001Y-66848001D02*
X150993001Y-66006735D01*
X145922487Y-62699979D02*
X145622488Y-62399980D01*
X149352000Y-66129492D02*
X145922487Y-62699979D01*
X149352000Y-67647736D02*
X149352000Y-66129492D01*
X149352000Y-68072000D02*
X149352000Y-67647736D01*
X132060002Y-68834000D02*
X132197001Y-68697001D01*
X132197001Y-68697001D02*
X149780412Y-68697001D01*
X149780412Y-68697001D02*
X151918803Y-66558610D01*
X151918803Y-66558610D02*
X154194738Y-66558610D01*
X154194738Y-66558610D02*
X154954957Y-65798391D01*
X154954957Y-65798391D02*
X154954957Y-65517043D01*
X129794000Y-68834000D02*
X132060002Y-68834000D01*
X154954957Y-65517043D02*
X155254956Y-65217044D01*
X161030000Y-50250000D02*
X161030000Y-55502400D01*
X161030000Y-55502400D02*
X153702400Y-62830000D01*
X153702400Y-62830000D02*
X153550000Y-62830000D01*
X185928000Y-74422000D02*
X185628001Y-74721999D01*
X185628001Y-74721999D02*
X185628001Y-77032999D01*
X185628001Y-77032999D02*
X184366000Y-78295000D01*
X184366000Y-78295000D02*
X183100000Y-78295000D01*
X155702000Y-71882000D02*
X155702000Y-75847759D01*
X155702000Y-75847759D02*
X155194000Y-76355759D01*
X155194000Y-76355759D02*
X155194000Y-79118400D01*
X155194000Y-79118400D02*
X153702400Y-80610000D01*
X153702400Y-80610000D02*
X153550000Y-80610000D01*
X191516000Y-74930000D02*
X191516000Y-75946000D01*
X191516000Y-75946000D02*
X190754000Y-76708000D01*
X172928001Y-65994001D02*
X177609000Y-70675000D01*
X177609000Y-70675000D02*
X183100000Y-70675000D01*
X155448000Y-66294000D02*
X155747999Y-65994001D01*
X155747999Y-65994001D02*
X172928001Y-65994001D01*
X189484000Y-73406000D02*
X186690000Y-70612000D01*
X186690000Y-70612000D02*
X186690000Y-66802000D01*
X155702000Y-62738000D02*
X157734000Y-62738000D01*
X186944000Y-75184000D02*
X186944000Y-77143400D01*
X186944000Y-77143400D02*
X183252400Y-80835000D01*
X183252400Y-80835000D02*
X183100000Y-80835000D01*
X189484000Y-75184000D02*
X191770000Y-72898000D01*
X191770000Y-72898000D02*
X192786000Y-72898000D01*
X186944000Y-75184000D02*
X189484000Y-75184000D01*
X175260000Y-65278000D02*
X176131610Y-64406390D01*
X176131610Y-64406390D02*
X188104390Y-64406390D01*
X188104390Y-64406390D02*
X188214000Y-64516000D01*
X137160000Y-78740000D02*
X140462000Y-82042000D01*
X140462000Y-82042000D02*
X158040002Y-82042000D01*
X137160000Y-69596000D02*
X137160000Y-78740000D01*
X150368000Y-66548000D02*
X150368000Y-65024000D01*
X150368000Y-65024000D02*
X146304000Y-60960000D01*
X137668000Y-62230000D02*
X138938000Y-60960000D01*
X138938000Y-60960000D02*
X146304000Y-60960000D01*
X164592000Y-82296000D02*
X182752600Y-82296000D01*
X182752600Y-82296000D02*
X183100000Y-81948600D01*
X183100000Y-81948600D02*
X183100000Y-80835000D01*
X141986000Y-65024000D02*
X141986000Y-64262000D01*
X140208000Y-66802000D02*
X141986000Y-65024000D01*
X140208000Y-69596000D02*
X140208000Y-76454000D01*
X173228000Y-62992000D02*
X174498000Y-61722000D01*
X174498000Y-61722000D02*
X187452000Y-61722000D01*
D20*
G36*
X188873000Y-60000000D02*
X188883006Y-60049410D01*
X188911447Y-60091035D01*
X188953841Y-60118315D01*
X189000000Y-60127000D01*
X202873000Y-60127000D01*
X202873000Y-78873000D01*
X189000000Y-78873000D01*
X188950590Y-78883006D01*
X188908965Y-78911447D01*
X188881685Y-78953841D01*
X188873000Y-79000000D01*
X188873000Y-91873000D01*
X176108500Y-91873000D01*
X177107709Y-91674245D01*
X178046779Y-91046779D01*
X178674245Y-90107709D01*
X178894582Y-89000000D01*
X178674245Y-87892291D01*
X178046779Y-86953221D01*
X177107709Y-86325755D01*
X176000000Y-86105418D01*
X174892291Y-86325755D01*
X173953221Y-86953221D01*
X173325755Y-87892291D01*
X173105418Y-89000000D01*
X173325755Y-90107709D01*
X173953221Y-91046779D01*
X174892291Y-91674245D01*
X175891500Y-91873000D01*
X136127000Y-91873000D01*
X136127000Y-89000000D01*
X146798000Y-89000000D01*
X147003678Y-90034011D01*
X147589397Y-90910603D01*
X148465989Y-91496322D01*
X149500000Y-91702000D01*
X150534011Y-91496322D01*
X151410603Y-90910603D01*
X151996322Y-90034011D01*
X152202000Y-89000000D01*
X151996322Y-87965989D01*
X151410603Y-87089397D01*
X150534011Y-86503678D01*
X149500000Y-86298000D01*
X148465989Y-86503678D01*
X147589397Y-87089397D01*
X147003678Y-87965989D01*
X146798000Y-89000000D01*
X136127000Y-89000000D01*
X136127000Y-79000000D01*
X136116994Y-78950590D01*
X136088553Y-78908965D01*
X136046159Y-78881685D01*
X136000000Y-78873000D01*
X122127000Y-78873000D01*
X122127000Y-73271874D01*
X122310881Y-73271874D01*
X122512632Y-73682763D01*
X122853322Y-73970002D01*
X123278000Y-74105000D01*
X123553000Y-74105000D01*
X123553000Y-73097000D01*
X123807000Y-73097000D01*
X123807000Y-74105000D01*
X124082000Y-74105000D01*
X124506678Y-73970002D01*
X124847368Y-73682763D01*
X125049119Y-73271874D01*
X124922954Y-73097000D01*
X123807000Y-73097000D01*
X123553000Y-73097000D01*
X122437046Y-73097000D01*
X122310881Y-73271874D01*
X122127000Y-73271874D01*
X122127000Y-72668126D01*
X122310881Y-72668126D01*
X122437046Y-72843000D01*
X123553000Y-72843000D01*
X123553000Y-71835000D01*
X123807000Y-71835000D01*
X123807000Y-72843000D01*
X124922954Y-72843000D01*
X125049119Y-72668126D01*
X124854191Y-72271131D01*
X125278771Y-72271131D01*
X125420432Y-72681049D01*
X125708179Y-73005552D01*
X126082062Y-73189268D01*
X126253000Y-73062734D01*
X126253000Y-72097000D01*
X126507000Y-72097000D01*
X126507000Y-73062734D01*
X126677938Y-73189268D01*
X127051821Y-73005552D01*
X127339568Y-72681049D01*
X127481229Y-72271131D01*
X127332563Y-72097000D01*
X126507000Y-72097000D01*
X126253000Y-72097000D01*
X125427437Y-72097000D01*
X125278771Y-72271131D01*
X124854191Y-72271131D01*
X124847368Y-72257237D01*
X124506678Y-71969998D01*
X124082000Y-71835000D01*
X123807000Y-71835000D01*
X123553000Y-71835000D01*
X123278000Y-71835000D01*
X122853322Y-71969998D01*
X122512632Y-72257237D01*
X122310881Y-72668126D01*
X122127000Y-72668126D01*
X122127000Y-71668869D01*
X125278771Y-71668869D01*
X125427437Y-71843000D01*
X126253000Y-71843000D01*
X126253000Y-70877266D01*
X126507000Y-70877266D01*
X126507000Y-71843000D01*
X127332563Y-71843000D01*
X127481229Y-71668869D01*
X127339568Y-71258951D01*
X127051821Y-70934448D01*
X126677938Y-70750732D01*
X126507000Y-70877266D01*
X126253000Y-70877266D01*
X126082062Y-70750732D01*
X125708179Y-70934448D01*
X125420432Y-71258951D01*
X125278771Y-71668869D01*
X122127000Y-71668869D01*
X122127000Y-67271131D01*
X125278771Y-67271131D01*
X125420432Y-67681049D01*
X125708179Y-68005552D01*
X126082062Y-68189268D01*
X126253000Y-68062734D01*
X126253000Y-67097000D01*
X126507000Y-67097000D01*
X126507000Y-68062734D01*
X126677938Y-68189268D01*
X127051821Y-68005552D01*
X127339568Y-67681049D01*
X127481229Y-67271131D01*
X127332563Y-67097000D01*
X126507000Y-67097000D01*
X126253000Y-67097000D01*
X125427437Y-67097000D01*
X125278771Y-67271131D01*
X122127000Y-67271131D01*
X122127000Y-66271874D01*
X122310881Y-66271874D01*
X122512632Y-66682763D01*
X122853322Y-66970002D01*
X123278000Y-67105000D01*
X123553000Y-67105000D01*
X123553000Y-66097000D01*
X123807000Y-66097000D01*
X123807000Y-67105000D01*
X124082000Y-67105000D01*
X124506678Y-66970002D01*
X124847368Y-66682763D01*
X124854190Y-66668869D01*
X125278771Y-66668869D01*
X125427437Y-66843000D01*
X126253000Y-66843000D01*
X126253000Y-65877266D01*
X126507000Y-65877266D01*
X126507000Y-66843000D01*
X127332563Y-66843000D01*
X127481229Y-66668869D01*
X127339568Y-66258951D01*
X127051821Y-65934448D01*
X126677938Y-65750732D01*
X126507000Y-65877266D01*
X126253000Y-65877266D01*
X126082062Y-65750732D01*
X125708179Y-65934448D01*
X125420432Y-66258951D01*
X125278771Y-66668869D01*
X124854190Y-66668869D01*
X125049119Y-66271874D01*
X124922954Y-66097000D01*
X123807000Y-66097000D01*
X123553000Y-66097000D01*
X122437046Y-66097000D01*
X122310881Y-66271874D01*
X122127000Y-66271874D01*
X122127000Y-65668126D01*
X122310881Y-65668126D01*
X122437046Y-65843000D01*
X123553000Y-65843000D01*
X123553000Y-64835000D01*
X123807000Y-64835000D01*
X123807000Y-65843000D01*
X124922954Y-65843000D01*
X125049119Y-65668126D01*
X124847368Y-65257237D01*
X124506678Y-64969998D01*
X124082000Y-64835000D01*
X123807000Y-64835000D01*
X123553000Y-64835000D01*
X123278000Y-64835000D01*
X122853322Y-64969998D01*
X122512632Y-65257237D01*
X122310881Y-65668126D01*
X122127000Y-65668126D01*
X122127000Y-60127000D01*
X136000000Y-60127000D01*
X136049410Y-60116994D01*
X136091035Y-60088553D01*
X136118315Y-60046159D01*
X136127000Y-60000000D01*
X136127000Y-50000000D01*
X146605418Y-50000000D01*
X146825755Y-51107709D01*
X147453221Y-52046779D01*
X148392291Y-52674245D01*
X149500000Y-52894582D01*
X150607709Y-52674245D01*
X151546779Y-52046779D01*
X152174245Y-51107709D01*
X152394582Y-50000000D01*
X173105418Y-50000000D01*
X173325755Y-51107709D01*
X173953221Y-52046779D01*
X174892291Y-52674245D01*
X176000000Y-52894582D01*
X177107709Y-52674245D01*
X178046779Y-52046779D01*
X178674245Y-51107709D01*
X178894582Y-50000000D01*
X178674245Y-48892291D01*
X178046779Y-47953221D01*
X177107709Y-47325755D01*
X176000000Y-47105418D01*
X174892291Y-47325755D01*
X173953221Y-47953221D01*
X173325755Y-48892291D01*
X173105418Y-50000000D01*
X152394582Y-50000000D01*
X152174245Y-48892291D01*
X151546779Y-47953221D01*
X150607709Y-47325755D01*
X149500000Y-47105418D01*
X148392291Y-47325755D01*
X147453221Y-47953221D01*
X146825755Y-48892291D01*
X146605418Y-50000000D01*
X136127000Y-50000000D01*
X136127000Y-46127000D01*
X188873000Y-46127000D01*
X188873000Y-60000000D01*
X188873000Y-60000000D01*
G37*
X188873000Y-60000000D02*
X188883006Y-60049410D01*
X188911447Y-60091035D01*
X188953841Y-60118315D01*
X189000000Y-60127000D01*
X202873000Y-60127000D01*
X202873000Y-78873000D01*
X189000000Y-78873000D01*
X188950590Y-78883006D01*
X188908965Y-78911447D01*
X188881685Y-78953841D01*
X188873000Y-79000000D01*
X188873000Y-91873000D01*
X176108500Y-91873000D01*
X177107709Y-91674245D01*
X178046779Y-91046779D01*
X178674245Y-90107709D01*
X178894582Y-89000000D01*
X178674245Y-87892291D01*
X178046779Y-86953221D01*
X177107709Y-86325755D01*
X176000000Y-86105418D01*
X174892291Y-86325755D01*
X173953221Y-86953221D01*
X173325755Y-87892291D01*
X173105418Y-89000000D01*
X173325755Y-90107709D01*
X173953221Y-91046779D01*
X174892291Y-91674245D01*
X175891500Y-91873000D01*
X136127000Y-91873000D01*
X136127000Y-89000000D01*
X146798000Y-89000000D01*
X147003678Y-90034011D01*
X147589397Y-90910603D01*
X148465989Y-91496322D01*
X149500000Y-91702000D01*
X150534011Y-91496322D01*
X151410603Y-90910603D01*
X151996322Y-90034011D01*
X152202000Y-89000000D01*
X151996322Y-87965989D01*
X151410603Y-87089397D01*
X150534011Y-86503678D01*
X149500000Y-86298000D01*
X148465989Y-86503678D01*
X147589397Y-87089397D01*
X147003678Y-87965989D01*
X146798000Y-89000000D01*
X136127000Y-89000000D01*
X136127000Y-79000000D01*
X136116994Y-78950590D01*
X136088553Y-78908965D01*
X136046159Y-78881685D01*
X136000000Y-78873000D01*
X122127000Y-78873000D01*
X122127000Y-73271874D01*
X122310881Y-73271874D01*
X122512632Y-73682763D01*
X122853322Y-73970002D01*
X123278000Y-74105000D01*
X123553000Y-74105000D01*
X123553000Y-73097000D01*
X123807000Y-73097000D01*
X123807000Y-74105000D01*
X124082000Y-74105000D01*
X124506678Y-73970002D01*
X124847368Y-73682763D01*
X125049119Y-73271874D01*
X124922954Y-73097000D01*
X123807000Y-73097000D01*
X123553000Y-73097000D01*
X122437046Y-73097000D01*
X122310881Y-73271874D01*
X122127000Y-73271874D01*
X122127000Y-72668126D01*
X122310881Y-72668126D01*
X122437046Y-72843000D01*
X123553000Y-72843000D01*
X123553000Y-71835000D01*
X123807000Y-71835000D01*
X123807000Y-72843000D01*
X124922954Y-72843000D01*
X125049119Y-72668126D01*
X124854191Y-72271131D01*
X125278771Y-72271131D01*
X125420432Y-72681049D01*
X125708179Y-73005552D01*
X126082062Y-73189268D01*
X126253000Y-73062734D01*
X126253000Y-72097000D01*
X126507000Y-72097000D01*
X126507000Y-73062734D01*
X126677938Y-73189268D01*
X127051821Y-73005552D01*
X127339568Y-72681049D01*
X127481229Y-72271131D01*
X127332563Y-72097000D01*
X126507000Y-72097000D01*
X126253000Y-72097000D01*
X125427437Y-72097000D01*
X125278771Y-72271131D01*
X124854191Y-72271131D01*
X124847368Y-72257237D01*
X124506678Y-71969998D01*
X124082000Y-71835000D01*
X123807000Y-71835000D01*
X123553000Y-71835000D01*
X123278000Y-71835000D01*
X122853322Y-71969998D01*
X122512632Y-72257237D01*
X122310881Y-72668126D01*
X122127000Y-72668126D01*
X122127000Y-71668869D01*
X125278771Y-71668869D01*
X125427437Y-71843000D01*
X126253000Y-71843000D01*
X126253000Y-70877266D01*
X126507000Y-70877266D01*
X126507000Y-71843000D01*
X127332563Y-71843000D01*
X127481229Y-71668869D01*
X127339568Y-71258951D01*
X127051821Y-70934448D01*
X126677938Y-70750732D01*
X126507000Y-70877266D01*
X126253000Y-70877266D01*
X126082062Y-70750732D01*
X125708179Y-70934448D01*
X125420432Y-71258951D01*
X125278771Y-71668869D01*
X122127000Y-71668869D01*
X122127000Y-67271131D01*
X125278771Y-67271131D01*
X125420432Y-67681049D01*
X125708179Y-68005552D01*
X126082062Y-68189268D01*
X126253000Y-68062734D01*
X126253000Y-67097000D01*
X126507000Y-67097000D01*
X126507000Y-68062734D01*
X126677938Y-68189268D01*
X127051821Y-68005552D01*
X127339568Y-67681049D01*
X127481229Y-67271131D01*
X127332563Y-67097000D01*
X126507000Y-67097000D01*
X126253000Y-67097000D01*
X125427437Y-67097000D01*
X125278771Y-67271131D01*
X122127000Y-67271131D01*
X122127000Y-66271874D01*
X122310881Y-66271874D01*
X122512632Y-66682763D01*
X122853322Y-66970002D01*
X123278000Y-67105000D01*
X123553000Y-67105000D01*
X123553000Y-66097000D01*
X123807000Y-66097000D01*
X123807000Y-67105000D01*
X124082000Y-67105000D01*
X124506678Y-66970002D01*
X124847368Y-66682763D01*
X124854190Y-66668869D01*
X125278771Y-66668869D01*
X125427437Y-66843000D01*
X126253000Y-66843000D01*
X126253000Y-65877266D01*
X126507000Y-65877266D01*
X126507000Y-66843000D01*
X127332563Y-66843000D01*
X127481229Y-66668869D01*
X127339568Y-66258951D01*
X127051821Y-65934448D01*
X126677938Y-65750732D01*
X126507000Y-65877266D01*
X126253000Y-65877266D01*
X126082062Y-65750732D01*
X125708179Y-65934448D01*
X125420432Y-66258951D01*
X125278771Y-66668869D01*
X124854190Y-66668869D01*
X125049119Y-66271874D01*
X124922954Y-66097000D01*
X123807000Y-66097000D01*
X123553000Y-66097000D01*
X122437046Y-66097000D01*
X122310881Y-66271874D01*
X122127000Y-66271874D01*
X122127000Y-65668126D01*
X122310881Y-65668126D01*
X122437046Y-65843000D01*
X123553000Y-65843000D01*
X123553000Y-64835000D01*
X123807000Y-64835000D01*
X123807000Y-65843000D01*
X124922954Y-65843000D01*
X125049119Y-65668126D01*
X124847368Y-65257237D01*
X124506678Y-64969998D01*
X124082000Y-64835000D01*
X123807000Y-64835000D01*
X123553000Y-64835000D01*
X123278000Y-64835000D01*
X122853322Y-64969998D01*
X122512632Y-65257237D01*
X122310881Y-65668126D01*
X122127000Y-65668126D01*
X122127000Y-60127000D01*
X136000000Y-60127000D01*
X136049410Y-60116994D01*
X136091035Y-60088553D01*
X136118315Y-60046159D01*
X136127000Y-60000000D01*
X136127000Y-50000000D01*
X146605418Y-50000000D01*
X146825755Y-51107709D01*
X147453221Y-52046779D01*
X148392291Y-52674245D01*
X149500000Y-52894582D01*
X150607709Y-52674245D01*
X151546779Y-52046779D01*
X152174245Y-51107709D01*
X152394582Y-50000000D01*
X173105418Y-50000000D01*
X173325755Y-51107709D01*
X173953221Y-52046779D01*
X174892291Y-52674245D01*
X176000000Y-52894582D01*
X177107709Y-52674245D01*
X178046779Y-52046779D01*
X178674245Y-51107709D01*
X178894582Y-50000000D01*
X178674245Y-48892291D01*
X178046779Y-47953221D01*
X177107709Y-47325755D01*
X176000000Y-47105418D01*
X174892291Y-47325755D01*
X173953221Y-47953221D01*
X173325755Y-48892291D01*
X173105418Y-50000000D01*
X152394582Y-50000000D01*
X152174245Y-48892291D01*
X151546779Y-47953221D01*
X150607709Y-47325755D01*
X149500000Y-47105418D01*
X148392291Y-47325755D01*
X147453221Y-47953221D01*
X146825755Y-48892291D01*
X146605418Y-50000000D01*
X136127000Y-50000000D01*
X136127000Y-46127000D01*
X188873000Y-46127000D01*
X188873000Y-60000000D01*
M02*
