G04 #@! TF.FileFunction,Copper,L1,Top,Signal*
%FSLAX46Y46*%
G04 Gerber Fmt 4.6, Leading zero omitted, Abs format (unit mm)*
G04 Created by KiCad (PCBNEW 4.0.2-4+6225~38~ubuntu15.10.1-stable) date Thu 10 Mar 2016 05:21:53 PM CST*
%MOMM*%
G01*
G04 APERTURE LIST*
%ADD10C,0.100000*%
%ADD11R,0.750000X1.500000*%
%ADD12R,1.198880X1.198880*%
%ADD13R,0.900000X1.000000*%
%ADD14R,1.727200X2.032000*%
%ADD15O,1.727200X2.032000*%
%ADD16R,1.060000X0.650000*%
%ADD17R,1.300000X0.700000*%
%ADD18R,1.220000X0.910000*%
%ADD19R,2.032000X1.727200*%
%ADD20O,2.032000X1.727200*%
%ADD21R,0.700000X1.300000*%
%ADD22R,1.550000X0.600000*%
%ADD23C,1.000000*%
%ADD24R,1.000000X1.250000*%
%ADD25R,1.350000X0.400000*%
%ADD26O,0.950000X1.250000*%
%ADD27O,1.550000X1.000000*%
%ADD28R,1.250000X1.000000*%
%ADD29C,0.600000*%
%ADD30C,0.250000*%
G04 APERTURE END LIST*
D10*
D11*
X158720000Y-76730000D03*
X160720000Y-76730000D03*
X164720000Y-76730000D03*
X162720000Y-76730000D03*
X170720000Y-76730000D03*
X172720000Y-76730000D03*
X168720000Y-76730000D03*
X166720000Y-76730000D03*
X166720000Y-62230000D03*
X168720000Y-62230000D03*
X172720000Y-62230000D03*
X170720000Y-62230000D03*
X162720000Y-62230000D03*
X164720000Y-62230000D03*
X160720000Y-62230000D03*
X158720000Y-62230000D03*
D12*
X185400000Y-77800000D03*
X185400000Y-79898040D03*
D13*
X146850000Y-60945000D03*
X145250000Y-60945000D03*
X146850000Y-65045000D03*
X145250000Y-65045000D03*
D14*
X178435000Y-55880000D03*
D15*
X175895000Y-55880000D03*
X173355000Y-55880000D03*
X170815000Y-55880000D03*
X168275000Y-55880000D03*
X165735000Y-55880000D03*
X163195000Y-55880000D03*
X160655000Y-55880000D03*
X158115000Y-55880000D03*
X155575000Y-55880000D03*
D16*
X136050000Y-69650000D03*
X136050000Y-70600000D03*
X136050000Y-71550000D03*
X138250000Y-71550000D03*
X138250000Y-69650000D03*
D17*
X133150000Y-75600000D03*
X133150000Y-73700000D03*
D18*
X130048000Y-71400000D03*
X130048000Y-68130000D03*
D19*
X141500000Y-74900000D03*
D20*
X141500000Y-72360000D03*
X141500000Y-69820000D03*
X141500000Y-67280000D03*
X141500000Y-64740000D03*
X141500000Y-62200000D03*
D21*
X153000000Y-71250000D03*
X154900000Y-71250000D03*
D22*
X188120000Y-71120000D03*
X188120000Y-69850000D03*
X188120000Y-68580000D03*
X188120000Y-67310000D03*
X182720000Y-67310000D03*
X182720000Y-68580000D03*
X182720000Y-69850000D03*
X182720000Y-71120000D03*
D17*
X195500000Y-73050000D03*
X195500000Y-74950000D03*
D23*
X201295000Y-69580000D03*
X201295000Y-67680000D03*
D17*
X191600000Y-64550000D03*
X191600000Y-66450000D03*
D24*
X194400000Y-69850000D03*
X196400000Y-69850000D03*
D21*
X153250000Y-62400000D03*
X155150000Y-62400000D03*
D13*
X145250000Y-80155000D03*
X146850000Y-80155000D03*
X145250000Y-76055000D03*
X146850000Y-76055000D03*
D21*
X148850000Y-74950000D03*
X150750000Y-74950000D03*
X154950000Y-74950000D03*
X153050000Y-74950000D03*
X149650000Y-62600000D03*
X151550000Y-62600000D03*
X153250000Y-66400000D03*
X155150000Y-66400000D03*
D14*
X156210000Y-83185000D03*
D15*
X158750000Y-83185000D03*
X161290000Y-83185000D03*
X163830000Y-83185000D03*
X166370000Y-83185000D03*
X168910000Y-83185000D03*
X171450000Y-83185000D03*
X173990000Y-83185000D03*
X176530000Y-83185000D03*
X179070000Y-83185000D03*
D25*
X127038540Y-68295100D03*
X127038540Y-68945100D03*
X127038540Y-69595100D03*
X127038540Y-70245100D03*
X127038540Y-70895100D03*
D26*
X127038540Y-67095100D03*
X127038540Y-72095100D03*
D27*
X124338540Y-66095100D03*
X124338540Y-73095100D03*
D28*
X129950000Y-75800000D03*
X129950000Y-73800000D03*
D24*
X184690000Y-62865000D03*
X186690000Y-62865000D03*
D28*
X191800000Y-72900000D03*
X191800000Y-74900000D03*
D12*
X185600000Y-54698040D03*
X185600000Y-52600000D03*
D21*
X186690000Y-59055000D03*
X184790000Y-59055000D03*
X192550000Y-69750000D03*
X190650000Y-69750000D03*
D17*
X195500000Y-64400000D03*
X195500000Y-66300000D03*
D18*
X133150000Y-69870000D03*
X133150000Y-66600000D03*
D12*
X148801960Y-71350000D03*
X150900000Y-71350000D03*
X148900000Y-66300000D03*
X150998040Y-66300000D03*
D13*
X145250000Y-71900000D03*
X146850000Y-71900000D03*
X145250000Y-67800000D03*
X146850000Y-67800000D03*
D29*
X145150000Y-63200000D03*
X135550000Y-72600000D03*
X153450000Y-76400000D03*
X158150000Y-78400000D03*
X146750000Y-78000000D03*
X181500000Y-72500000D03*
X147000000Y-70000000D03*
X185650000Y-56400000D03*
X174200000Y-59800000D03*
X157057240Y-60710507D03*
X191950000Y-60800000D03*
X159100000Y-60850000D03*
X185150000Y-81400000D03*
X154650000Y-72900000D03*
X145500000Y-73150000D03*
D30*
X130048000Y-71400000D02*
X130048000Y-72105000D01*
X130900001Y-72957001D02*
X130900001Y-74974999D01*
X130048000Y-72105000D02*
X130900001Y-72957001D01*
X130900001Y-74974999D02*
X130075000Y-75800000D01*
X130075000Y-75800000D02*
X129950000Y-75800000D01*
X133150000Y-69870000D02*
X135830000Y-69870000D01*
X135830000Y-69870000D02*
X136050000Y-69650000D01*
X130048000Y-71400000D02*
X130203000Y-71400000D01*
X130203000Y-71400000D02*
X131733000Y-69870000D01*
X131733000Y-69870000D02*
X133150000Y-69870000D01*
X129950000Y-75800000D02*
X132950000Y-75800000D01*
X132950000Y-75800000D02*
X133150000Y-75600000D01*
X145250000Y-60945000D02*
X145250000Y-63100000D01*
X145250000Y-63100000D02*
X145150000Y-63200000D01*
X145250000Y-65045000D02*
X145250000Y-63300000D01*
X145250000Y-63300000D02*
X145150000Y-63200000D01*
X136050000Y-71550000D02*
X136050000Y-72100000D01*
X136050000Y-72100000D02*
X135550000Y-72600000D01*
X127038540Y-72095100D02*
X128995100Y-72095100D01*
X128995100Y-72095100D02*
X129950000Y-73050000D01*
X129950000Y-73050000D02*
X129950000Y-73800000D01*
X195500000Y-74950000D02*
X195800000Y-74950000D01*
X195800000Y-74950000D02*
X201170000Y-69580000D01*
X201170000Y-69580000D02*
X201295000Y-69580000D01*
X191800000Y-74900000D02*
X195450000Y-74900000D01*
X195450000Y-74900000D02*
X195500000Y-74950000D01*
X195680000Y-75020000D02*
X195980000Y-75020000D01*
X201295000Y-69705000D02*
X201295000Y-69580000D01*
X153050000Y-74950000D02*
X153050000Y-76000000D01*
X153050000Y-76000000D02*
X153450000Y-76400000D01*
X158720000Y-76730000D02*
X158720000Y-77830000D01*
X158720000Y-77830000D02*
X158150000Y-78400000D01*
X146850000Y-76055000D02*
X146850000Y-77900000D01*
X146850000Y-77900000D02*
X146750000Y-78000000D01*
X146850000Y-80155000D02*
X146850000Y-78100000D01*
X146850000Y-78100000D02*
X146750000Y-78000000D01*
X182720000Y-71120000D02*
X182720000Y-71280000D01*
X182720000Y-71280000D02*
X181500000Y-72500000D01*
X146850000Y-70150000D02*
X147000000Y-70000000D01*
X146850000Y-71900000D02*
X146850000Y-70150000D01*
X146850000Y-67800000D02*
X146850000Y-69850000D01*
X146850000Y-69850000D02*
X147000000Y-70000000D01*
X146850000Y-76105000D02*
X146850000Y-76055000D01*
X156210000Y-83032600D02*
X156210000Y-83185000D01*
X195460000Y-74800000D02*
X195680000Y-75020000D01*
X195460000Y-74800000D02*
X195680000Y-75020000D01*
X175895000Y-55880000D02*
X175895000Y-56032400D01*
X175895000Y-56032400D02*
X170720000Y-61207400D01*
X170720000Y-61207400D02*
X170720000Y-61230000D01*
X170720000Y-61230000D02*
X170720000Y-62230000D01*
X184790000Y-59055000D02*
X179070000Y-59055000D01*
X179070000Y-59055000D02*
X175895000Y-55880000D01*
X184790000Y-59055000D02*
X184790000Y-62765000D01*
X184790000Y-62765000D02*
X184690000Y-62865000D01*
X188120000Y-71120000D02*
X187645000Y-71120000D01*
X187645000Y-71120000D02*
X184690000Y-68165000D01*
X184690000Y-68165000D02*
X184690000Y-63740000D01*
X184690000Y-63740000D02*
X184690000Y-62865000D01*
X190650000Y-69750000D02*
X188220000Y-69750000D01*
X188220000Y-69750000D02*
X188120000Y-69850000D01*
X186690000Y-62865000D02*
X186690000Y-61990000D01*
X186690000Y-61990000D02*
X186690000Y-59055000D01*
X188120000Y-69850000D02*
X187645000Y-69850000D01*
X187645000Y-69850000D02*
X186690000Y-68895000D01*
X186690000Y-68895000D02*
X186690000Y-63740000D01*
X186690000Y-63740000D02*
X186690000Y-62865000D01*
X195500000Y-73050000D02*
X191950000Y-73050000D01*
X191950000Y-73050000D02*
X191800000Y-72900000D01*
X191800000Y-72900000D02*
X191800000Y-69314998D01*
X191800000Y-69314998D02*
X191065002Y-68580000D01*
X189145000Y-68580000D02*
X188120000Y-68580000D01*
X191065002Y-68580000D02*
X189145000Y-68580000D01*
X191600000Y-66450000D02*
X190700000Y-66450000D01*
X190700000Y-66450000D02*
X188570000Y-68580000D01*
X188570000Y-68580000D02*
X188120000Y-68580000D01*
X194400000Y-69850000D02*
X192650000Y-69850000D01*
X192650000Y-69850000D02*
X192550000Y-69750000D01*
X195500000Y-66300000D02*
X195500000Y-69700000D01*
X195500000Y-69700000D02*
X195650000Y-69850000D01*
X195650000Y-69850000D02*
X196400000Y-69850000D01*
X201295000Y-67680000D02*
X198445000Y-67680000D01*
X198445000Y-67680000D02*
X196400000Y-69725000D01*
X196400000Y-69725000D02*
X196400000Y-69850000D01*
X185650000Y-56400000D02*
X185650000Y-54748040D01*
X185650000Y-54748040D02*
X185600000Y-54698040D01*
X174200000Y-59800000D02*
X172720000Y-61280000D01*
X172720000Y-61280000D02*
X172720000Y-62230000D01*
X146850000Y-60945000D02*
X150195000Y-60945000D01*
X150195000Y-60945000D02*
X151550000Y-62300000D01*
X151550000Y-62300000D02*
X151550000Y-62600000D01*
X146850000Y-65045000D02*
X146850000Y-64295000D01*
X146850000Y-64295000D02*
X146850000Y-60945000D01*
X151550000Y-62300000D02*
X153139493Y-60710507D01*
X153139493Y-60710507D02*
X157057240Y-60710507D01*
X185600000Y-52600000D02*
X181562600Y-52600000D01*
X181562600Y-52600000D02*
X178435000Y-55727600D01*
X178435000Y-55727600D02*
X178435000Y-55880000D01*
X170720000Y-76730000D02*
X170720000Y-76355000D01*
X170720000Y-76355000D02*
X171420001Y-75654999D01*
X171420001Y-75654999D02*
X184104439Y-75654999D01*
X184104439Y-75654999D02*
X185400000Y-76950560D01*
X185400000Y-76950560D02*
X185400000Y-77800000D01*
X148900000Y-66300000D02*
X145214998Y-66300000D01*
X142868998Y-68646000D02*
X142159348Y-68646000D01*
X145214998Y-66300000D02*
X142868998Y-68646000D01*
X142159348Y-68646000D02*
X142144738Y-68631390D01*
X139030000Y-69650000D02*
X138250000Y-69650000D01*
X142144738Y-68631390D02*
X140048610Y-68631390D01*
X140048610Y-68631390D02*
X139030000Y-69650000D01*
X195500000Y-64400000D02*
X191750000Y-64400000D01*
X191750000Y-64400000D02*
X191600000Y-64550000D01*
X188120000Y-67310000D02*
X188120000Y-66760000D01*
X188120000Y-66760000D02*
X190330000Y-64550000D01*
X190330000Y-64550000D02*
X190700000Y-64550000D01*
X190700000Y-64550000D02*
X191600000Y-64550000D01*
X191950000Y-60800000D02*
X191950000Y-64200000D01*
X191950000Y-64200000D02*
X191600000Y-64550000D01*
X188120000Y-67230000D02*
X188120000Y-67310000D01*
X153250000Y-62400000D02*
X153250000Y-62100000D01*
X153250000Y-62100000D02*
X153925001Y-61424999D01*
X153925001Y-61424999D02*
X157289999Y-61424999D01*
X157289999Y-61424999D02*
X158095000Y-62230000D01*
X158095000Y-62230000D02*
X158720000Y-62230000D01*
X153250000Y-62400000D02*
X153250000Y-62700000D01*
X152374999Y-63575001D02*
X150325001Y-63575001D01*
X153250000Y-62700000D02*
X152374999Y-63575001D01*
X150325001Y-63575001D02*
X149650000Y-62900000D01*
X149650000Y-62900000D02*
X149650000Y-62600000D01*
X158720000Y-62230000D02*
X158720000Y-61230000D01*
X158720000Y-61230000D02*
X159100000Y-60850000D01*
X148850000Y-74950000D02*
X148850000Y-75250000D01*
X148850000Y-75250000D02*
X155443999Y-81843999D01*
X155443999Y-81843999D02*
X160101399Y-81843999D01*
X160101399Y-81843999D02*
X161290000Y-83032600D01*
X161290000Y-83032600D02*
X161290000Y-83185000D01*
X148801960Y-71350000D02*
X148801960Y-74901960D01*
X148801960Y-74901960D02*
X148850000Y-74950000D01*
X148900000Y-66300000D02*
X148900000Y-71251960D01*
X148900000Y-71251960D02*
X148801960Y-71350000D01*
X149650000Y-62600000D02*
X149650000Y-65550000D01*
X149650000Y-65550000D02*
X148900000Y-66300000D01*
X158550000Y-62400000D02*
X158720000Y-62230000D01*
X161290000Y-83337400D02*
X161290000Y-83185000D01*
X141605000Y-72390000D02*
X141452600Y-72390000D01*
X141452600Y-72390000D02*
X140263999Y-73578601D01*
X140263999Y-73578601D02*
X140263999Y-77340411D01*
X176981371Y-85426029D02*
X179070000Y-83337400D01*
X140263999Y-77340411D02*
X148349617Y-85426029D01*
X148349617Y-85426029D02*
X176981371Y-85426029D01*
X179070000Y-83337400D02*
X179070000Y-83185000D01*
X172720000Y-76730000D02*
X172720000Y-77105000D01*
X172720000Y-77105000D02*
X178800000Y-83185000D01*
X178800000Y-83185000D02*
X179070000Y-83185000D01*
X133150000Y-66600000D02*
X133305000Y-66600000D01*
X133305000Y-66600000D02*
X142683990Y-57221010D01*
X142683990Y-57221010D02*
X156926390Y-57221010D01*
X156926390Y-57221010D02*
X158115000Y-56032400D01*
X158115000Y-56032400D02*
X158115000Y-55880000D01*
X158115000Y-55727600D02*
X158115000Y-55880000D01*
X130048000Y-68130000D02*
X140650000Y-68130000D01*
X140650000Y-68130000D02*
X141500000Y-67280000D01*
X127038540Y-68295100D02*
X129882900Y-68295100D01*
X129882900Y-68295100D02*
X130048000Y-68130000D01*
X141652400Y-67280000D02*
X141500000Y-67280000D01*
X141605000Y-67310000D02*
X141452600Y-67310000D01*
X160655000Y-56032400D02*
X160655000Y-55880000D01*
X127038540Y-68295100D02*
X127513540Y-68295100D01*
X185400000Y-79898040D02*
X185400000Y-81150000D01*
X185400000Y-81150000D02*
X185150000Y-81400000D01*
X176530000Y-83185000D02*
X176530000Y-83032600D01*
X144474999Y-80915001D02*
X148536017Y-84976019D01*
X148536017Y-84976019D02*
X174891381Y-84976019D01*
X176530000Y-83337400D02*
X176530000Y-83185000D01*
X174891381Y-84976019D02*
X176530000Y-83337400D01*
X141605000Y-69850000D02*
X141757400Y-69850000D01*
X141757400Y-69850000D02*
X144474999Y-72567599D01*
X144474999Y-72567599D02*
X144474999Y-80915001D01*
X133150000Y-73700000D02*
X133150000Y-72720000D01*
X133150000Y-72720000D02*
X135270000Y-70600000D01*
X135270000Y-70600000D02*
X136050000Y-70600000D01*
X153000000Y-71250000D02*
X151000000Y-71250000D01*
X151000000Y-71250000D02*
X150900000Y-71350000D01*
X150998040Y-66300000D02*
X153150000Y-66300000D01*
X153150000Y-66300000D02*
X153250000Y-66400000D01*
X155150000Y-62400000D02*
X155150000Y-62700000D01*
X155150000Y-62700000D02*
X155825001Y-63375001D01*
X155825001Y-63375001D02*
X167949999Y-63375001D01*
X167949999Y-63375001D02*
X168720000Y-62605000D01*
X168720000Y-62605000D02*
X168720000Y-62230000D01*
X168720000Y-62230000D02*
X168720000Y-60515000D01*
X168720000Y-60515000D02*
X172089000Y-57146000D01*
X172089000Y-57146000D02*
X172241400Y-57146000D01*
X172241400Y-57146000D02*
X173355000Y-56032400D01*
X173355000Y-56032400D02*
X173355000Y-55880000D01*
X166720000Y-62230000D02*
X166720000Y-59975000D01*
X166720000Y-59975000D02*
X169549000Y-57146000D01*
X169549000Y-57146000D02*
X169701400Y-57146000D01*
X169701400Y-57146000D02*
X170815000Y-56032400D01*
X170815000Y-56032400D02*
X170815000Y-55880000D01*
X164720000Y-62230000D02*
X164720000Y-59435000D01*
X164720000Y-59435000D02*
X167009000Y-57146000D01*
X167009000Y-57146000D02*
X167161400Y-57146000D01*
X167161400Y-57146000D02*
X168275000Y-56032400D01*
X168275000Y-56032400D02*
X168275000Y-55880000D01*
X162720000Y-62230000D02*
X162720000Y-58895000D01*
X162720000Y-58895000D02*
X164469000Y-57146000D01*
X164621400Y-57146000D02*
X165735000Y-56032400D01*
X165735000Y-56032400D02*
X165735000Y-55880000D01*
X164469000Y-57146000D02*
X164621400Y-57146000D01*
X160720000Y-62230000D02*
X160720000Y-58355000D01*
X160720000Y-58355000D02*
X161929000Y-57146000D01*
X163195000Y-56032400D02*
X163195000Y-55880000D01*
X161929000Y-57146000D02*
X162081400Y-57146000D01*
X162081400Y-57146000D02*
X163195000Y-56032400D01*
X154950000Y-74950000D02*
X159315000Y-74950000D01*
X159315000Y-74950000D02*
X160720000Y-76355000D01*
X160720000Y-76355000D02*
X160720000Y-76730000D01*
X160720000Y-76730000D02*
X160720000Y-80075000D01*
X163830000Y-83032600D02*
X163830000Y-83185000D01*
X160720000Y-80075000D02*
X162564000Y-81919000D01*
X162564000Y-81919000D02*
X162716400Y-81919000D01*
X162716400Y-81919000D02*
X163830000Y-83032600D01*
X150750000Y-74950000D02*
X151350000Y-74950000D01*
X151350000Y-74950000D02*
X152325001Y-73974999D01*
X152325001Y-73974999D02*
X160339999Y-73974999D01*
X160339999Y-73974999D02*
X162720000Y-76355000D01*
X162720000Y-76355000D02*
X162720000Y-76730000D01*
X162720000Y-76730000D02*
X162720000Y-79535000D01*
X162720000Y-79535000D02*
X165104000Y-81919000D01*
X165104000Y-81919000D02*
X165256400Y-81919000D01*
X165256400Y-81919000D02*
X166370000Y-83032600D01*
X166370000Y-83032600D02*
X166370000Y-83185000D01*
X154650000Y-72900000D02*
X154650000Y-71500000D01*
X154650000Y-71500000D02*
X154900000Y-71250000D01*
X145250000Y-71900000D02*
X145250000Y-72900000D01*
X145250000Y-72900000D02*
X145500000Y-73150000D01*
X145250000Y-71950000D02*
X145250000Y-71900000D01*
X154900000Y-71250000D02*
X159615000Y-71250000D01*
X159615000Y-71250000D02*
X164720000Y-76355000D01*
X164720000Y-76355000D02*
X164720000Y-76730000D01*
X145250000Y-71900000D02*
X145250000Y-67800000D01*
X164720000Y-76730000D02*
X164720000Y-78995000D01*
X164720000Y-78995000D02*
X167644000Y-81919000D01*
X167644000Y-81919000D02*
X167796400Y-81919000D01*
X167796400Y-81919000D02*
X168910000Y-83032600D01*
X168910000Y-83032600D02*
X168910000Y-83185000D01*
X145250000Y-80155000D02*
X145250000Y-80905000D01*
X145250000Y-80905000D02*
X148871010Y-84526010D01*
X148871010Y-84526010D02*
X170261390Y-84526010D01*
X170261390Y-84526010D02*
X171450000Y-83337400D01*
X171450000Y-83337400D02*
X171450000Y-83185000D01*
X145250000Y-80155000D02*
X145250000Y-79405000D01*
X145250000Y-79405000D02*
X145250000Y-76055000D01*
X166720000Y-76730000D02*
X166720000Y-78455000D01*
X166720000Y-78455000D02*
X170184000Y-81919000D01*
X170184000Y-81919000D02*
X170336400Y-81919000D01*
X170336400Y-81919000D02*
X171450000Y-83032600D01*
X171450000Y-83032600D02*
X171450000Y-83185000D01*
X155150000Y-66400000D02*
X158765000Y-66400000D01*
X158765000Y-66400000D02*
X168720000Y-76355000D01*
X168720000Y-76355000D02*
X168720000Y-76730000D01*
X168720000Y-77730000D02*
X168720000Y-76730000D01*
X173990000Y-83185000D02*
X173990000Y-83032600D01*
X173990000Y-83032600D02*
X168720000Y-77762600D01*
X168720000Y-77762600D02*
X168720000Y-77730000D01*
M02*
