G04 #@! TF.FileFunction,Legend,Top*
%FSLAX46Y46*%
G04 Gerber Fmt 4.6, Leading zero omitted, Abs format (unit mm)*
G04 Created by KiCad (PCBNEW 4.0.2-4+6225~38~ubuntu15.10.1-stable) date Thu 24 Mar 2016 10:28:15 PM CDT*
%MOMM*%
G01*
G04 APERTURE LIST*
%ADD10C,0.100000*%
%ADD11C,0.150000*%
G04 APERTURE END LIST*
D10*
D11*
X174950000Y-60400000D02*
X174950000Y-78400000D01*
X160350000Y-60400000D02*
X180350000Y-60400000D01*
X180350000Y-60400000D02*
X180350000Y-78400000D01*
X180250000Y-78400000D02*
X160250000Y-78400000D01*
X160350000Y-78400000D02*
X160350000Y-60400000D01*
X203650000Y-70750000D02*
G75*
G03X203650000Y-70750000I-3000000J0D01*
G01*
X190275000Y-70950000D02*
X190275000Y-69750000D01*
X192025000Y-69750000D02*
X192025000Y-70950000D01*
X193275000Y-75450000D02*
X193275000Y-74250000D01*
X195025000Y-74250000D02*
X195025000Y-75450000D01*
X191500000Y-75400000D02*
X191500000Y-74400000D01*
X189800000Y-74400000D02*
X189800000Y-75400000D01*
X131150000Y-70717500D02*
X131150000Y-71098500D01*
X131150000Y-69701500D02*
X131150000Y-70082500D01*
X131150000Y-70082500D02*
X131531000Y-70717500D01*
X131531000Y-70717500D02*
X130769000Y-70717500D01*
X130769000Y-70717500D02*
X131150000Y-70082500D01*
X131658000Y-70082500D02*
X130642000Y-70082500D01*
X130250000Y-68400000D02*
X130250000Y-71940000D01*
X132050000Y-68400000D02*
X132050000Y-71940000D01*
X156900000Y-60349020D02*
X156900000Y-63049020D01*
X158400000Y-60349020D02*
X158400000Y-63049020D01*
X157500000Y-61849020D02*
X157750000Y-61849020D01*
X157750000Y-61849020D02*
X157600000Y-61699020D01*
X158000000Y-61599020D02*
X157300000Y-61599020D01*
X157650000Y-61949020D02*
X157650000Y-62299020D01*
X157650000Y-61599020D02*
X158000000Y-61949020D01*
X158000000Y-61949020D02*
X157300000Y-61949020D01*
X157300000Y-61949020D02*
X157650000Y-61599020D01*
X146450000Y-63400000D02*
G75*
G03X146450000Y-63400000I-800000J0D01*
G01*
X144250000Y-61300000D02*
X144250000Y-65500000D01*
X147050000Y-65500000D02*
X147050000Y-61300000D01*
X177165000Y-57150000D02*
X154305000Y-57150000D01*
X154305000Y-57150000D02*
X154305000Y-54610000D01*
X154305000Y-54610000D02*
X177165000Y-54610000D01*
X179985000Y-57430000D02*
X178435000Y-57430000D01*
X177165000Y-57150000D02*
X177165000Y-54610000D01*
X178435000Y-54330000D02*
X179985000Y-54330000D01*
X179985000Y-54330000D02*
X179985000Y-57430000D01*
X135500000Y-75200000D02*
G75*
G03X135500000Y-75200000I-100000J0D01*
G01*
X135150000Y-75750000D02*
X135150000Y-75250000D01*
X132250000Y-75750000D02*
X135150000Y-75750000D01*
X132250000Y-75250000D02*
X132250000Y-75750000D01*
X135150000Y-75250000D02*
X132250000Y-75250000D01*
X134775000Y-70500000D02*
X134775000Y-69300000D01*
X136525000Y-69300000D02*
X136525000Y-70500000D01*
X140230000Y-73630000D02*
X140230000Y-60930000D01*
X140230000Y-60930000D02*
X142770000Y-60930000D01*
X142770000Y-60930000D02*
X142770000Y-73630000D01*
X139950000Y-76450000D02*
X139950000Y-74900000D01*
X140230000Y-73630000D02*
X142770000Y-73630000D01*
X143050000Y-74900000D02*
X143050000Y-76450000D01*
X143050000Y-76450000D02*
X139950000Y-76450000D01*
X156200000Y-79275000D02*
X155000000Y-79275000D01*
X155000000Y-77525000D02*
X156200000Y-77525000D01*
X182375000Y-66460000D02*
X182375000Y-66605000D01*
X186525000Y-66460000D02*
X186525000Y-66605000D01*
X186525000Y-71610000D02*
X186525000Y-71465000D01*
X182375000Y-71610000D02*
X182375000Y-71465000D01*
X182375000Y-66460000D02*
X186525000Y-66460000D01*
X182375000Y-71610000D02*
X186525000Y-71610000D01*
X182375000Y-66605000D02*
X180975000Y-66605000D01*
X196150000Y-65050000D02*
X195150000Y-65050000D01*
X195150000Y-66750000D02*
X196150000Y-66750000D01*
X152275000Y-69050000D02*
X152275000Y-67850000D01*
X154025000Y-67850000D02*
X154025000Y-69050000D01*
X146450000Y-78105000D02*
G75*
G03X146450000Y-78105000I-800000J0D01*
G01*
X147050000Y-80205000D02*
X147050000Y-76005000D01*
X144250000Y-76005000D02*
X144250000Y-80205000D01*
X153800000Y-75775000D02*
X152600000Y-75775000D01*
X152600000Y-74025000D02*
X153800000Y-74025000D01*
X152600000Y-71025000D02*
X153800000Y-71025000D01*
X153800000Y-72775000D02*
X152600000Y-72775000D01*
X152525000Y-61250000D02*
X152525000Y-62450000D01*
X150775000Y-62450000D02*
X150775000Y-61250000D01*
X155525000Y-61350000D02*
X155525000Y-62550000D01*
X153775000Y-62550000D02*
X153775000Y-61350000D01*
X121658540Y-65245100D02*
X121658540Y-73945100D01*
X128063540Y-65245100D02*
X128063540Y-73945100D01*
X128063540Y-73945100D02*
X121658540Y-73945100D01*
X122888540Y-73945100D02*
X122888540Y-65245100D01*
X121658540Y-65245100D02*
X128063540Y-65245100D01*
X130300000Y-63400000D02*
X130300000Y-64400000D01*
X132000000Y-64400000D02*
X132000000Y-63400000D01*
X186190000Y-62015000D02*
X185190000Y-62015000D01*
X185190000Y-63715000D02*
X186190000Y-63715000D01*
X186350000Y-55249020D02*
X186350000Y-52549020D01*
X184850000Y-55249020D02*
X184850000Y-52549020D01*
X185750000Y-53749020D02*
X185500000Y-53749020D01*
X185500000Y-53749020D02*
X185650000Y-53899020D01*
X185250000Y-53999020D02*
X185950000Y-53999020D01*
X185600000Y-53649020D02*
X185600000Y-53299020D01*
X185600000Y-53999020D02*
X185250000Y-53649020D01*
X185250000Y-53649020D02*
X185950000Y-53649020D01*
X185950000Y-53649020D02*
X185600000Y-53999020D01*
X185140000Y-58180000D02*
X186340000Y-58180000D01*
X186340000Y-59930000D02*
X185140000Y-59930000D01*
X192025000Y-64800000D02*
X192025000Y-66000000D01*
X190275000Y-66000000D02*
X190275000Y-64800000D01*
X193775000Y-71050000D02*
X193775000Y-69850000D01*
X195525000Y-69850000D02*
X195525000Y-71050000D01*
X135650000Y-63447500D02*
X135650000Y-63066500D01*
X135650000Y-64463500D02*
X135650000Y-64082500D01*
X135650000Y-64082500D02*
X135269000Y-63447500D01*
X135269000Y-63447500D02*
X136031000Y-63447500D01*
X136031000Y-63447500D02*
X135650000Y-64082500D01*
X135142000Y-64082500D02*
X136158000Y-64082500D01*
X136550000Y-65765000D02*
X136550000Y-62225000D01*
X134750000Y-65765000D02*
X134750000Y-62225000D01*
X151750000Y-78150000D02*
X149050000Y-78150000D01*
X151750000Y-79650000D02*
X149050000Y-79650000D01*
X150250000Y-78750000D02*
X150250000Y-79000000D01*
X150250000Y-79000000D02*
X150400000Y-78850000D01*
X150500000Y-79250000D02*
X150500000Y-78550000D01*
X150150000Y-78900000D02*
X149800000Y-78900000D01*
X150500000Y-78900000D02*
X150150000Y-79250000D01*
X150150000Y-79250000D02*
X150150000Y-78550000D01*
X150150000Y-78550000D02*
X150500000Y-78900000D01*
X154700980Y-65150000D02*
X152000980Y-65150000D01*
X154700980Y-66650000D02*
X152000980Y-66650000D01*
X153200980Y-65750000D02*
X153200980Y-66000000D01*
X153200980Y-66000000D02*
X153350980Y-65850000D01*
X153450980Y-66250000D02*
X153450980Y-65550000D01*
X153100980Y-65900000D02*
X152750980Y-65900000D01*
X153450980Y-65900000D02*
X153100980Y-66250000D01*
X153100980Y-66250000D02*
X153100980Y-65550000D01*
X153100980Y-65550000D02*
X153450980Y-65900000D01*
X146950000Y-69900000D02*
G75*
G03X146950000Y-69900000I-800000J0D01*
G01*
X147550000Y-72000000D02*
X147550000Y-67800000D01*
X144750000Y-67800000D02*
X144750000Y-72000000D01*
X157420000Y-82130000D02*
X180280000Y-82130000D01*
X180280000Y-82130000D02*
X180280000Y-84670000D01*
X180280000Y-84670000D02*
X157420000Y-84670000D01*
X154600000Y-81850000D02*
X156150000Y-81850000D01*
X157420000Y-82130000D02*
X157420000Y-84670000D01*
X156150000Y-84950000D02*
X154600000Y-84950000D01*
X154600000Y-84950000D02*
X154600000Y-81850000D01*
X159002381Y-77261905D02*
X159811905Y-77261905D01*
X159907143Y-77214286D01*
X159954762Y-77166667D01*
X160002381Y-77071429D01*
X160002381Y-76880952D01*
X159954762Y-76785714D01*
X159907143Y-76738095D01*
X159811905Y-76690476D01*
X159002381Y-76690476D01*
X160002381Y-75690476D02*
X160002381Y-76261905D01*
X160002381Y-75976191D02*
X159002381Y-75976191D01*
X159145238Y-76071429D01*
X159240476Y-76166667D01*
X159288095Y-76261905D01*
X207102381Y-78411905D02*
X207911905Y-78411905D01*
X208007143Y-78364286D01*
X208054762Y-78316667D01*
X208102381Y-78221429D01*
X208102381Y-78030952D01*
X208054762Y-77935714D01*
X208007143Y-77888095D01*
X207911905Y-77840476D01*
X207102381Y-77840476D01*
X207102381Y-77459524D02*
X207102381Y-76840476D01*
X207483333Y-77173810D01*
X207483333Y-77030952D01*
X207530952Y-76935714D01*
X207578571Y-76888095D01*
X207673810Y-76840476D01*
X207911905Y-76840476D01*
X208007143Y-76888095D01*
X208054762Y-76935714D01*
X208102381Y-77030952D01*
X208102381Y-77316667D01*
X208054762Y-77411905D01*
X208007143Y-77459524D01*
X193702381Y-70992857D02*
X193226190Y-71326191D01*
X193702381Y-71564286D02*
X192702381Y-71564286D01*
X192702381Y-71183333D01*
X192750000Y-71088095D01*
X192797619Y-71040476D01*
X192892857Y-70992857D01*
X193035714Y-70992857D01*
X193130952Y-71040476D01*
X193178571Y-71088095D01*
X193226190Y-71183333D01*
X193226190Y-71564286D01*
X193702381Y-70040476D02*
X193702381Y-70611905D01*
X193702381Y-70326191D02*
X192702381Y-70326191D01*
X192845238Y-70421429D01*
X192940476Y-70516667D01*
X192988095Y-70611905D01*
X192797619Y-69659524D02*
X192750000Y-69611905D01*
X192702381Y-69516667D01*
X192702381Y-69278571D01*
X192750000Y-69183333D01*
X192797619Y-69135714D01*
X192892857Y-69088095D01*
X192988095Y-69088095D01*
X193130952Y-69135714D01*
X193702381Y-69707143D01*
X193702381Y-69088095D01*
X196253381Y-75016666D02*
X195777190Y-75350000D01*
X196253381Y-75588095D02*
X195253381Y-75588095D01*
X195253381Y-75207142D01*
X195301000Y-75111904D01*
X195348619Y-75064285D01*
X195443857Y-75016666D01*
X195586714Y-75016666D01*
X195681952Y-75064285D01*
X195729571Y-75111904D01*
X195777190Y-75207142D01*
X195777190Y-75588095D01*
X196253381Y-74540476D02*
X196253381Y-74350000D01*
X196205762Y-74254761D01*
X196158143Y-74207142D01*
X196015286Y-74111904D01*
X195824810Y-74064285D01*
X195443857Y-74064285D01*
X195348619Y-74111904D01*
X195301000Y-74159523D01*
X195253381Y-74254761D01*
X195253381Y-74445238D01*
X195301000Y-74540476D01*
X195348619Y-74588095D01*
X195443857Y-74635714D01*
X195681952Y-74635714D01*
X195777190Y-74588095D01*
X195824810Y-74540476D01*
X195872429Y-74445238D01*
X195872429Y-74254761D01*
X195824810Y-74159523D01*
X195777190Y-74111904D01*
X195681952Y-74064285D01*
X193107143Y-75066666D02*
X193154762Y-75114285D01*
X193202381Y-75257142D01*
X193202381Y-75352380D01*
X193154762Y-75495238D01*
X193059524Y-75590476D01*
X192964286Y-75638095D01*
X192773810Y-75685714D01*
X192630952Y-75685714D01*
X192440476Y-75638095D01*
X192345238Y-75590476D01*
X192250000Y-75495238D01*
X192202381Y-75352380D01*
X192202381Y-75257142D01*
X192250000Y-75114285D01*
X192297619Y-75066666D01*
X192202381Y-74733333D02*
X192202381Y-74114285D01*
X192583333Y-74447619D01*
X192583333Y-74304761D01*
X192630952Y-74209523D01*
X192678571Y-74161904D01*
X192773810Y-74114285D01*
X193011905Y-74114285D01*
X193107143Y-74161904D01*
X193154762Y-74209523D01*
X193202381Y-74304761D01*
X193202381Y-74590476D01*
X193154762Y-74685714D01*
X193107143Y-74733333D01*
X133602381Y-74257143D02*
X132602381Y-74257143D01*
X133316667Y-73923809D01*
X132602381Y-73590476D01*
X133602381Y-73590476D01*
X133078571Y-72780952D02*
X133126190Y-72638095D01*
X133173810Y-72590476D01*
X133269048Y-72542857D01*
X133411905Y-72542857D01*
X133507143Y-72590476D01*
X133554762Y-72638095D01*
X133602381Y-72733333D01*
X133602381Y-73114286D01*
X132602381Y-73114286D01*
X132602381Y-72780952D01*
X132650000Y-72685714D01*
X132697619Y-72638095D01*
X132792857Y-72590476D01*
X132888095Y-72590476D01*
X132983333Y-72638095D01*
X133030952Y-72685714D01*
X133078571Y-72780952D01*
X133078571Y-73114286D01*
X133602381Y-71542857D02*
X133126190Y-71876191D01*
X133602381Y-72114286D02*
X132602381Y-72114286D01*
X132602381Y-71733333D01*
X132650000Y-71638095D01*
X132697619Y-71590476D01*
X132792857Y-71542857D01*
X132935714Y-71542857D01*
X133030952Y-71590476D01*
X133078571Y-71638095D01*
X133126190Y-71733333D01*
X133126190Y-72114286D01*
X133602381Y-70590476D02*
X133602381Y-71161905D01*
X133602381Y-70876191D02*
X132602381Y-70876191D01*
X132745238Y-70971429D01*
X132840476Y-71066667D01*
X132888095Y-71161905D01*
X132697619Y-70209524D02*
X132650000Y-70161905D01*
X132602381Y-70066667D01*
X132602381Y-69828571D01*
X132650000Y-69733333D01*
X132697619Y-69685714D01*
X132792857Y-69638095D01*
X132888095Y-69638095D01*
X133030952Y-69685714D01*
X133602381Y-70257143D01*
X133602381Y-69638095D01*
X132602381Y-69019048D02*
X132602381Y-68923809D01*
X132650000Y-68828571D01*
X132697619Y-68780952D01*
X132792857Y-68733333D01*
X132983333Y-68685714D01*
X133221429Y-68685714D01*
X133411905Y-68733333D01*
X133507143Y-68780952D01*
X133554762Y-68828571D01*
X133602381Y-68923809D01*
X133602381Y-69019048D01*
X133554762Y-69114286D01*
X133507143Y-69161905D01*
X133411905Y-69209524D01*
X133221429Y-69257143D01*
X132983333Y-69257143D01*
X132792857Y-69209524D01*
X132697619Y-69161905D01*
X132650000Y-69114286D01*
X132602381Y-69019048D01*
X133221429Y-68257143D02*
X133221429Y-67495238D01*
X133602381Y-66495238D02*
X133602381Y-67066667D01*
X133602381Y-66780953D02*
X132602381Y-66780953D01*
X132745238Y-66876191D01*
X132840476Y-66971429D01*
X132888095Y-67066667D01*
X159852381Y-62687115D02*
X158852381Y-62687115D01*
X158852381Y-62449020D01*
X158900000Y-62306162D01*
X158995238Y-62210924D01*
X159090476Y-62163305D01*
X159280952Y-62115686D01*
X159423810Y-62115686D01*
X159614286Y-62163305D01*
X159709524Y-62210924D01*
X159804762Y-62306162D01*
X159852381Y-62449020D01*
X159852381Y-62687115D01*
X158947619Y-61734734D02*
X158900000Y-61687115D01*
X158852381Y-61591877D01*
X158852381Y-61353781D01*
X158900000Y-61258543D01*
X158947619Y-61210924D01*
X159042857Y-61163305D01*
X159138095Y-61163305D01*
X159280952Y-61210924D01*
X159852381Y-61782353D01*
X159852381Y-61163305D01*
X148454762Y-64733333D02*
X148502381Y-64590476D01*
X148502381Y-64352380D01*
X148454762Y-64257142D01*
X148407143Y-64209523D01*
X148311905Y-64161904D01*
X148216667Y-64161904D01*
X148121429Y-64209523D01*
X148073810Y-64257142D01*
X148026190Y-64352380D01*
X147978571Y-64542857D01*
X147930952Y-64638095D01*
X147883333Y-64685714D01*
X147788095Y-64733333D01*
X147692857Y-64733333D01*
X147597619Y-64685714D01*
X147550000Y-64638095D01*
X147502381Y-64542857D01*
X147502381Y-64304761D01*
X147550000Y-64161904D01*
X147502381Y-63828571D02*
X148502381Y-63590476D01*
X147788095Y-63399999D01*
X148502381Y-63209523D01*
X147502381Y-62971428D01*
X147597619Y-62638095D02*
X147550000Y-62590476D01*
X147502381Y-62495238D01*
X147502381Y-62257142D01*
X147550000Y-62161904D01*
X147597619Y-62114285D01*
X147692857Y-62066666D01*
X147788095Y-62066666D01*
X147930952Y-62114285D01*
X148502381Y-62685714D01*
X148502381Y-62066666D01*
X182987381Y-56713333D02*
X183701667Y-56713333D01*
X183844524Y-56760953D01*
X183939762Y-56856191D01*
X183987381Y-56999048D01*
X183987381Y-57094286D01*
X183987381Y-56237143D02*
X182987381Y-56237143D01*
X182987381Y-55856190D01*
X183035000Y-55760952D01*
X183082619Y-55713333D01*
X183177857Y-55665714D01*
X183320714Y-55665714D01*
X183415952Y-55713333D01*
X183463571Y-55760952D01*
X183511190Y-55856190D01*
X183511190Y-56237143D01*
X183320714Y-54808571D02*
X183987381Y-54808571D01*
X182939762Y-55046667D02*
X183654048Y-55284762D01*
X183654048Y-54665714D01*
X135702381Y-76688095D02*
X136511905Y-76688095D01*
X136607143Y-76640476D01*
X136654762Y-76592857D01*
X136702381Y-76497619D01*
X136702381Y-76307142D01*
X136654762Y-76211904D01*
X136607143Y-76164285D01*
X136511905Y-76116666D01*
X135702381Y-76116666D01*
X136702381Y-75116666D02*
X136702381Y-75688095D01*
X136702381Y-75402381D02*
X135702381Y-75402381D01*
X135845238Y-75497619D01*
X135940476Y-75592857D01*
X135988095Y-75688095D01*
X136702381Y-74164285D02*
X136702381Y-74735714D01*
X136702381Y-74450000D02*
X135702381Y-74450000D01*
X135845238Y-74545238D01*
X135940476Y-74640476D01*
X135988095Y-74735714D01*
X138202381Y-70066666D02*
X137726190Y-70400000D01*
X138202381Y-70638095D02*
X137202381Y-70638095D01*
X137202381Y-70257142D01*
X137250000Y-70161904D01*
X137297619Y-70114285D01*
X137392857Y-70066666D01*
X137535714Y-70066666D01*
X137630952Y-70114285D01*
X137678571Y-70161904D01*
X137726190Y-70257142D01*
X137726190Y-70638095D01*
X137202381Y-69733333D02*
X137202381Y-69114285D01*
X137583333Y-69447619D01*
X137583333Y-69304761D01*
X137630952Y-69209523D01*
X137678571Y-69161904D01*
X137773810Y-69114285D01*
X138011905Y-69114285D01*
X138107143Y-69161904D01*
X138154762Y-69209523D01*
X138202381Y-69304761D01*
X138202381Y-69590476D01*
X138154762Y-69685714D01*
X138107143Y-69733333D01*
X140666667Y-79452381D02*
X140666667Y-80166667D01*
X140619047Y-80309524D01*
X140523809Y-80404762D01*
X140380952Y-80452381D01*
X140285714Y-80452381D01*
X141142857Y-80452381D02*
X141142857Y-79452381D01*
X141523810Y-79452381D01*
X141619048Y-79500000D01*
X141666667Y-79547619D01*
X141714286Y-79642857D01*
X141714286Y-79785714D01*
X141666667Y-79880952D01*
X141619048Y-79928571D01*
X141523810Y-79976190D01*
X141142857Y-79976190D01*
X142666667Y-80452381D02*
X142095238Y-80452381D01*
X142380952Y-80452381D02*
X142380952Y-79452381D01*
X142285714Y-79595238D01*
X142190476Y-79690476D01*
X142095238Y-79738095D01*
X155433334Y-76752381D02*
X155100000Y-76276190D01*
X154861905Y-76752381D02*
X154861905Y-75752381D01*
X155242858Y-75752381D01*
X155338096Y-75800000D01*
X155385715Y-75847619D01*
X155433334Y-75942857D01*
X155433334Y-76085714D01*
X155385715Y-76180952D01*
X155338096Y-76228571D01*
X155242858Y-76276190D01*
X154861905Y-76276190D01*
X155814286Y-75847619D02*
X155861905Y-75800000D01*
X155957143Y-75752381D01*
X156195239Y-75752381D01*
X156290477Y-75800000D01*
X156338096Y-75847619D01*
X156385715Y-75942857D01*
X156385715Y-76038095D01*
X156338096Y-76180952D01*
X155766667Y-76752381D01*
X156385715Y-76752381D01*
X183688095Y-64987381D02*
X183688095Y-65796905D01*
X183735714Y-65892143D01*
X183783333Y-65939762D01*
X183878571Y-65987381D01*
X184069048Y-65987381D01*
X184164286Y-65939762D01*
X184211905Y-65892143D01*
X184259524Y-65796905D01*
X184259524Y-64987381D01*
X184688095Y-65082619D02*
X184735714Y-65035000D01*
X184830952Y-64987381D01*
X185069048Y-64987381D01*
X185164286Y-65035000D01*
X185211905Y-65082619D01*
X185259524Y-65177857D01*
X185259524Y-65273095D01*
X185211905Y-65415952D01*
X184640476Y-65987381D01*
X185259524Y-65987381D01*
X195483334Y-64157143D02*
X195435715Y-64204762D01*
X195292858Y-64252381D01*
X195197620Y-64252381D01*
X195054762Y-64204762D01*
X194959524Y-64109524D01*
X194911905Y-64014286D01*
X194864286Y-63823810D01*
X194864286Y-63680952D01*
X194911905Y-63490476D01*
X194959524Y-63395238D01*
X195054762Y-63300000D01*
X195197620Y-63252381D01*
X195292858Y-63252381D01*
X195435715Y-63300000D01*
X195483334Y-63347619D01*
X196340477Y-63585714D02*
X196340477Y-64252381D01*
X196102381Y-63204762D02*
X195864286Y-63919048D01*
X196483334Y-63919048D01*
X155702381Y-68616666D02*
X155226190Y-68950000D01*
X155702381Y-69188095D02*
X154702381Y-69188095D01*
X154702381Y-68807142D01*
X154750000Y-68711904D01*
X154797619Y-68664285D01*
X154892857Y-68616666D01*
X155035714Y-68616666D01*
X155130952Y-68664285D01*
X155178571Y-68711904D01*
X155226190Y-68807142D01*
X155226190Y-69188095D01*
X154702381Y-67711904D02*
X154702381Y-68188095D01*
X155178571Y-68235714D01*
X155130952Y-68188095D01*
X155083333Y-68092857D01*
X155083333Y-67854761D01*
X155130952Y-67759523D01*
X155178571Y-67711904D01*
X155273810Y-67664285D01*
X155511905Y-67664285D01*
X155607143Y-67711904D01*
X155654762Y-67759523D01*
X155702381Y-67854761D01*
X155702381Y-68092857D01*
X155654762Y-68188095D01*
X155607143Y-68235714D01*
X143654762Y-79438333D02*
X143702381Y-79295476D01*
X143702381Y-79057380D01*
X143654762Y-78962142D01*
X143607143Y-78914523D01*
X143511905Y-78866904D01*
X143416667Y-78866904D01*
X143321429Y-78914523D01*
X143273810Y-78962142D01*
X143226190Y-79057380D01*
X143178571Y-79247857D01*
X143130952Y-79343095D01*
X143083333Y-79390714D01*
X142988095Y-79438333D01*
X142892857Y-79438333D01*
X142797619Y-79390714D01*
X142750000Y-79343095D01*
X142702381Y-79247857D01*
X142702381Y-79009761D01*
X142750000Y-78866904D01*
X142702381Y-78533571D02*
X143702381Y-78295476D01*
X142988095Y-78104999D01*
X143702381Y-77914523D01*
X142702381Y-77676428D01*
X142702381Y-77390714D02*
X142702381Y-76771666D01*
X143083333Y-77105000D01*
X143083333Y-76962142D01*
X143130952Y-76866904D01*
X143178571Y-76819285D01*
X143273810Y-76771666D01*
X143511905Y-76771666D01*
X143607143Y-76819285D01*
X143654762Y-76866904D01*
X143702381Y-76962142D01*
X143702381Y-77247857D01*
X143654762Y-77343095D01*
X143607143Y-77390714D01*
X153033334Y-73252381D02*
X152700000Y-72776190D01*
X152461905Y-73252381D02*
X152461905Y-72252381D01*
X152842858Y-72252381D01*
X152938096Y-72300000D01*
X152985715Y-72347619D01*
X153033334Y-72442857D01*
X153033334Y-72585714D01*
X152985715Y-72680952D01*
X152938096Y-72728571D01*
X152842858Y-72776190D01*
X152461905Y-72776190D01*
X153890477Y-72585714D02*
X153890477Y-73252381D01*
X153652381Y-72204762D02*
X153414286Y-72919048D01*
X154033334Y-72919048D01*
X153033334Y-74452381D02*
X152700000Y-73976190D01*
X152461905Y-74452381D02*
X152461905Y-73452381D01*
X152842858Y-73452381D01*
X152938096Y-73500000D01*
X152985715Y-73547619D01*
X153033334Y-73642857D01*
X153033334Y-73785714D01*
X152985715Y-73880952D01*
X152938096Y-73928571D01*
X152842858Y-73976190D01*
X152461905Y-73976190D01*
X153890477Y-73452381D02*
X153700000Y-73452381D01*
X153604762Y-73500000D01*
X153557143Y-73547619D01*
X153461905Y-73690476D01*
X153414286Y-73880952D01*
X153414286Y-74261905D01*
X153461905Y-74357143D01*
X153509524Y-74404762D01*
X153604762Y-74452381D01*
X153795239Y-74452381D01*
X153890477Y-74404762D01*
X153938096Y-74357143D01*
X153985715Y-74261905D01*
X153985715Y-74023810D01*
X153938096Y-73928571D01*
X153890477Y-73880952D01*
X153795239Y-73833333D01*
X153604762Y-73833333D01*
X153509524Y-73880952D01*
X153461905Y-73928571D01*
X153414286Y-74023810D01*
X153372381Y-58841666D02*
X152896190Y-59175000D01*
X153372381Y-59413095D02*
X152372381Y-59413095D01*
X152372381Y-59032142D01*
X152420000Y-58936904D01*
X152467619Y-58889285D01*
X152562857Y-58841666D01*
X152705714Y-58841666D01*
X152800952Y-58889285D01*
X152848571Y-58936904D01*
X152896190Y-59032142D01*
X152896190Y-59413095D01*
X153372381Y-57889285D02*
X153372381Y-58460714D01*
X153372381Y-58175000D02*
X152372381Y-58175000D01*
X152515238Y-58270238D01*
X152610476Y-58365476D01*
X152658095Y-58460714D01*
X153002381Y-62116666D02*
X152526190Y-62450000D01*
X153002381Y-62688095D02*
X152002381Y-62688095D01*
X152002381Y-62307142D01*
X152050000Y-62211904D01*
X152097619Y-62164285D01*
X152192857Y-62116666D01*
X152335714Y-62116666D01*
X152430952Y-62164285D01*
X152478571Y-62211904D01*
X152526190Y-62307142D01*
X152526190Y-62688095D01*
X152430952Y-61545238D02*
X152383333Y-61640476D01*
X152335714Y-61688095D01*
X152240476Y-61735714D01*
X152192857Y-61735714D01*
X152097619Y-61688095D01*
X152050000Y-61640476D01*
X152002381Y-61545238D01*
X152002381Y-61354761D01*
X152050000Y-61259523D01*
X152097619Y-61211904D01*
X152192857Y-61164285D01*
X152240476Y-61164285D01*
X152335714Y-61211904D01*
X152383333Y-61259523D01*
X152430952Y-61354761D01*
X152430952Y-61545238D01*
X152478571Y-61640476D01*
X152526190Y-61688095D01*
X152621429Y-61735714D01*
X152811905Y-61735714D01*
X152907143Y-61688095D01*
X152954762Y-61640476D01*
X153002381Y-61545238D01*
X153002381Y-61354761D01*
X152954762Y-61259523D01*
X152907143Y-61211904D01*
X152811905Y-61164285D01*
X152621429Y-61164285D01*
X152526190Y-61211904D01*
X152478571Y-61259523D01*
X152430952Y-61354761D01*
X129378381Y-70334095D02*
X128378381Y-70334095D01*
X128378381Y-69953142D01*
X128426000Y-69857904D01*
X128473619Y-69810285D01*
X128568857Y-69762666D01*
X128711714Y-69762666D01*
X128806952Y-69810285D01*
X128854571Y-69857904D01*
X128902190Y-69953142D01*
X128902190Y-70334095D01*
X129378381Y-68810285D02*
X129378381Y-69381714D01*
X129378381Y-69096000D02*
X128378381Y-69096000D01*
X128521238Y-69191238D01*
X128616476Y-69286476D01*
X128664095Y-69381714D01*
X129407143Y-64066666D02*
X129454762Y-64114285D01*
X129502381Y-64257142D01*
X129502381Y-64352380D01*
X129454762Y-64495238D01*
X129359524Y-64590476D01*
X129264286Y-64638095D01*
X129073810Y-64685714D01*
X128930952Y-64685714D01*
X128740476Y-64638095D01*
X128645238Y-64590476D01*
X128550000Y-64495238D01*
X128502381Y-64352380D01*
X128502381Y-64257142D01*
X128550000Y-64114285D01*
X128597619Y-64066666D01*
X129502381Y-63114285D02*
X129502381Y-63685714D01*
X129502381Y-63400000D02*
X128502381Y-63400000D01*
X128645238Y-63495238D01*
X128740476Y-63590476D01*
X128788095Y-63685714D01*
X185523334Y-61122143D02*
X185475715Y-61169762D01*
X185332858Y-61217381D01*
X185237620Y-61217381D01*
X185094762Y-61169762D01*
X184999524Y-61074524D01*
X184951905Y-60979286D01*
X184904286Y-60788810D01*
X184904286Y-60645952D01*
X184951905Y-60455476D01*
X184999524Y-60360238D01*
X185094762Y-60265000D01*
X185237620Y-60217381D01*
X185332858Y-60217381D01*
X185475715Y-60265000D01*
X185523334Y-60312619D01*
X185904286Y-60312619D02*
X185951905Y-60265000D01*
X186047143Y-60217381D01*
X186285239Y-60217381D01*
X186380477Y-60265000D01*
X186428096Y-60312619D01*
X186475715Y-60407857D01*
X186475715Y-60503095D01*
X186428096Y-60645952D01*
X185856667Y-61217381D01*
X186475715Y-61217381D01*
X184302381Y-54387115D02*
X183302381Y-54387115D01*
X183302381Y-54149020D01*
X183350000Y-54006162D01*
X183445238Y-53910924D01*
X183540476Y-53863305D01*
X183730952Y-53815686D01*
X183873810Y-53815686D01*
X184064286Y-53863305D01*
X184159524Y-53910924D01*
X184254762Y-54006162D01*
X184302381Y-54149020D01*
X184302381Y-54387115D01*
X184302381Y-52863305D02*
X184302381Y-53434734D01*
X184302381Y-53149020D02*
X183302381Y-53149020D01*
X183445238Y-53244258D01*
X183540476Y-53339496D01*
X183588095Y-53434734D01*
X185573334Y-61607381D02*
X185240000Y-61131190D01*
X185001905Y-61607381D02*
X185001905Y-60607381D01*
X185382858Y-60607381D01*
X185478096Y-60655000D01*
X185525715Y-60702619D01*
X185573334Y-60797857D01*
X185573334Y-60940714D01*
X185525715Y-61035952D01*
X185478096Y-61083571D01*
X185382858Y-61131190D01*
X185001905Y-61131190D01*
X185906667Y-60607381D02*
X186573334Y-60607381D01*
X186144762Y-61607381D01*
X189502381Y-66042857D02*
X189026190Y-66376191D01*
X189502381Y-66614286D02*
X188502381Y-66614286D01*
X188502381Y-66233333D01*
X188550000Y-66138095D01*
X188597619Y-66090476D01*
X188692857Y-66042857D01*
X188835714Y-66042857D01*
X188930952Y-66090476D01*
X188978571Y-66138095D01*
X189026190Y-66233333D01*
X189026190Y-66614286D01*
X189502381Y-65090476D02*
X189502381Y-65661905D01*
X189502381Y-65376191D02*
X188502381Y-65376191D01*
X188645238Y-65471429D01*
X188740476Y-65566667D01*
X188788095Y-65661905D01*
X188502381Y-64471429D02*
X188502381Y-64376190D01*
X188550000Y-64280952D01*
X188597619Y-64233333D01*
X188692857Y-64185714D01*
X188883333Y-64138095D01*
X189121429Y-64138095D01*
X189311905Y-64185714D01*
X189407143Y-64233333D01*
X189454762Y-64280952D01*
X189502381Y-64376190D01*
X189502381Y-64471429D01*
X189454762Y-64566667D01*
X189407143Y-64614286D01*
X189311905Y-64661905D01*
X189121429Y-64709524D01*
X188883333Y-64709524D01*
X188692857Y-64661905D01*
X188597619Y-64614286D01*
X188550000Y-64566667D01*
X188502381Y-64471429D01*
X197202381Y-71092857D02*
X196726190Y-71426191D01*
X197202381Y-71664286D02*
X196202381Y-71664286D01*
X196202381Y-71283333D01*
X196250000Y-71188095D01*
X196297619Y-71140476D01*
X196392857Y-71092857D01*
X196535714Y-71092857D01*
X196630952Y-71140476D01*
X196678571Y-71188095D01*
X196726190Y-71283333D01*
X196726190Y-71664286D01*
X197202381Y-70140476D02*
X197202381Y-70711905D01*
X197202381Y-70426191D02*
X196202381Y-70426191D01*
X196345238Y-70521429D01*
X196440476Y-70616667D01*
X196488095Y-70711905D01*
X197202381Y-69188095D02*
X197202381Y-69759524D01*
X197202381Y-69473810D02*
X196202381Y-69473810D01*
X196345238Y-69569048D01*
X196440476Y-69664286D01*
X196488095Y-69759524D01*
X134102381Y-67622143D02*
X133102381Y-67622143D01*
X133816667Y-67288809D01*
X133102381Y-66955476D01*
X134102381Y-66955476D01*
X133578571Y-66145952D02*
X133626190Y-66003095D01*
X133673810Y-65955476D01*
X133769048Y-65907857D01*
X133911905Y-65907857D01*
X134007143Y-65955476D01*
X134054762Y-66003095D01*
X134102381Y-66098333D01*
X134102381Y-66479286D01*
X133102381Y-66479286D01*
X133102381Y-66145952D01*
X133150000Y-66050714D01*
X133197619Y-66003095D01*
X133292857Y-65955476D01*
X133388095Y-65955476D01*
X133483333Y-66003095D01*
X133530952Y-66050714D01*
X133578571Y-66145952D01*
X133578571Y-66479286D01*
X134102381Y-64907857D02*
X133626190Y-65241191D01*
X134102381Y-65479286D02*
X133102381Y-65479286D01*
X133102381Y-65098333D01*
X133150000Y-65003095D01*
X133197619Y-64955476D01*
X133292857Y-64907857D01*
X133435714Y-64907857D01*
X133530952Y-64955476D01*
X133578571Y-65003095D01*
X133626190Y-65098333D01*
X133626190Y-65479286D01*
X134102381Y-63955476D02*
X134102381Y-64526905D01*
X134102381Y-64241191D02*
X133102381Y-64241191D01*
X133245238Y-64336429D01*
X133340476Y-64431667D01*
X133388095Y-64526905D01*
X133197619Y-63574524D02*
X133150000Y-63526905D01*
X133102381Y-63431667D01*
X133102381Y-63193571D01*
X133150000Y-63098333D01*
X133197619Y-63050714D01*
X133292857Y-63003095D01*
X133388095Y-63003095D01*
X133530952Y-63050714D01*
X134102381Y-63622143D01*
X134102381Y-63003095D01*
X133102381Y-62384048D02*
X133102381Y-62288809D01*
X133150000Y-62193571D01*
X133197619Y-62145952D01*
X133292857Y-62098333D01*
X133483333Y-62050714D01*
X133721429Y-62050714D01*
X133911905Y-62098333D01*
X134007143Y-62145952D01*
X134054762Y-62193571D01*
X134102381Y-62288809D01*
X134102381Y-62384048D01*
X134054762Y-62479286D01*
X134007143Y-62526905D01*
X133911905Y-62574524D01*
X133721429Y-62622143D01*
X133483333Y-62622143D01*
X133292857Y-62574524D01*
X133197619Y-62526905D01*
X133150000Y-62479286D01*
X133102381Y-62384048D01*
X133721429Y-61622143D02*
X133721429Y-60860238D01*
X133197619Y-60431667D02*
X133150000Y-60384048D01*
X133102381Y-60288810D01*
X133102381Y-60050714D01*
X133150000Y-59955476D01*
X133197619Y-59907857D01*
X133292857Y-59860238D01*
X133388095Y-59860238D01*
X133530952Y-59907857D01*
X134102381Y-60479286D01*
X134102381Y-59860238D01*
X149411905Y-81102381D02*
X149411905Y-80102381D01*
X149650000Y-80102381D01*
X149792858Y-80150000D01*
X149888096Y-80245238D01*
X149935715Y-80340476D01*
X149983334Y-80530952D01*
X149983334Y-80673810D01*
X149935715Y-80864286D01*
X149888096Y-80959524D01*
X149792858Y-81054762D01*
X149650000Y-81102381D01*
X149411905Y-81102381D01*
X150316667Y-80102381D02*
X150935715Y-80102381D01*
X150602381Y-80483333D01*
X150745239Y-80483333D01*
X150840477Y-80530952D01*
X150888096Y-80578571D01*
X150935715Y-80673810D01*
X150935715Y-80911905D01*
X150888096Y-81007143D01*
X150840477Y-81054762D01*
X150745239Y-81102381D01*
X150459524Y-81102381D01*
X150364286Y-81054762D01*
X150316667Y-81007143D01*
X152362885Y-68102381D02*
X152362885Y-67102381D01*
X152600980Y-67102381D01*
X152743838Y-67150000D01*
X152839076Y-67245238D01*
X152886695Y-67340476D01*
X152934314Y-67530952D01*
X152934314Y-67673810D01*
X152886695Y-67864286D01*
X152839076Y-67959524D01*
X152743838Y-68054762D01*
X152600980Y-68102381D01*
X152362885Y-68102381D01*
X153791457Y-67435714D02*
X153791457Y-68102381D01*
X153553361Y-67054762D02*
X153315266Y-67769048D01*
X153934314Y-67769048D01*
X144154762Y-71233333D02*
X144202381Y-71090476D01*
X144202381Y-70852380D01*
X144154762Y-70757142D01*
X144107143Y-70709523D01*
X144011905Y-70661904D01*
X143916667Y-70661904D01*
X143821429Y-70709523D01*
X143773810Y-70757142D01*
X143726190Y-70852380D01*
X143678571Y-71042857D01*
X143630952Y-71138095D01*
X143583333Y-71185714D01*
X143488095Y-71233333D01*
X143392857Y-71233333D01*
X143297619Y-71185714D01*
X143250000Y-71138095D01*
X143202381Y-71042857D01*
X143202381Y-70804761D01*
X143250000Y-70661904D01*
X143202381Y-70328571D02*
X144202381Y-70090476D01*
X143488095Y-69899999D01*
X144202381Y-69709523D01*
X143202381Y-69471428D01*
X144202381Y-68566666D02*
X144202381Y-69138095D01*
X144202381Y-68852381D02*
X143202381Y-68852381D01*
X143345238Y-68947619D01*
X143440476Y-69042857D01*
X143488095Y-69138095D01*
X150502381Y-84233333D02*
X151216667Y-84233333D01*
X151359524Y-84280953D01*
X151454762Y-84376191D01*
X151502381Y-84519048D01*
X151502381Y-84614286D01*
X151502381Y-83757143D02*
X150502381Y-83757143D01*
X150502381Y-83376190D01*
X150550000Y-83280952D01*
X150597619Y-83233333D01*
X150692857Y-83185714D01*
X150835714Y-83185714D01*
X150930952Y-83233333D01*
X150978571Y-83280952D01*
X151026190Y-83376190D01*
X151026190Y-83757143D01*
X150502381Y-82280952D02*
X150502381Y-82757143D01*
X150978571Y-82804762D01*
X150930952Y-82757143D01*
X150883333Y-82661905D01*
X150883333Y-82423809D01*
X150930952Y-82328571D01*
X150978571Y-82280952D01*
X151073810Y-82233333D01*
X151311905Y-82233333D01*
X151407143Y-82280952D01*
X151454762Y-82328571D01*
X151502381Y-82423809D01*
X151502381Y-82661905D01*
X151454762Y-82757143D01*
X151407143Y-82804762D01*
M02*
