G04 #@! TF.FileFunction,Copper,L1,Top,Signal*
%FSLAX46Y46*%
G04 Gerber Fmt 4.6, Leading zero omitted, Abs format (unit mm)*
G04 Created by KiCad (PCBNEW 4.0.2-4+6225~38~ubuntu15.10.1-stable) date Wed 30 Mar 2016 09:09:27 AM CDT*
%MOMM*%
G01*
G04 APERTURE LIST*
%ADD10C,0.100000*%
%ADD11R,2.032000X1.727200*%
%ADD12O,2.032000X1.727200*%
%ADD13R,1.220000X0.910000*%
%ADD14R,0.650000X1.060000*%
%ADD15R,1.350000X0.400000*%
%ADD16O,0.950000X1.250000*%
%ADD17O,1.550000X1.000000*%
%ADD18R,0.800000X0.750000*%
%ADD19R,0.900000X0.500000*%
%ADD20R,0.750000X0.800000*%
%ADD21R,1.198880X1.198880*%
%ADD22R,1.727200X2.032000*%
%ADD23O,1.727200X2.032000*%
%ADD24R,0.800100X0.800100*%
%ADD25R,0.500000X0.900000*%
%ADD26R,1.000000X0.900000*%
%ADD27R,1.500000X1.000000*%
%ADD28R,1.550000X0.600000*%
%ADD29C,1.000000*%
%ADD30R,0.400000X1.200000*%
%ADD31R,0.650000X0.350000*%
%ADD32R,1.000000X0.800000*%
%ADD33R,0.450000X0.630000*%
%ADD34R,1.300000X0.850000*%
%ADD35C,0.600000*%
%ADD36C,0.250000*%
G04 APERTURE END LIST*
D10*
D11*
X153550000Y-80610000D03*
D12*
X153550000Y-78070000D03*
X153550000Y-75530000D03*
X153550000Y-72990000D03*
X153550000Y-70450000D03*
X153550000Y-67910000D03*
X153550000Y-65370000D03*
X153550000Y-62830000D03*
X153550000Y-60290000D03*
X153550000Y-57750000D03*
D13*
X129794000Y-64262000D03*
X129794000Y-67532000D03*
D14*
X132636000Y-66809000D03*
X133586000Y-66809000D03*
X134536000Y-66809000D03*
X134536000Y-64609000D03*
X132636000Y-64609000D03*
D15*
X126380000Y-68170000D03*
X126380000Y-68820000D03*
X126380000Y-69470000D03*
X126380000Y-70120000D03*
X126380000Y-70770000D03*
D16*
X126380000Y-66970000D03*
X126380000Y-71970000D03*
D17*
X123680000Y-65970000D03*
X123680000Y-72970000D03*
D18*
X130350000Y-72475000D03*
X131850000Y-72475000D03*
D19*
X156880000Y-78060000D03*
X156880000Y-79560000D03*
D18*
X157430000Y-88080000D03*
X158930000Y-88080000D03*
D20*
X166116000Y-85900000D03*
X166116000Y-87400000D03*
X135007390Y-72475558D03*
X135007390Y-70975558D03*
X136652000Y-59436000D03*
X136652000Y-60936000D03*
X143557390Y-60725558D03*
X143557390Y-59225558D03*
D21*
X149323040Y-66450000D03*
X147225000Y-66450000D03*
X138075000Y-77349020D03*
X138075000Y-75250980D03*
X135050000Y-77423040D03*
X135050000Y-75325000D03*
X147126960Y-59450000D03*
X149225000Y-59450000D03*
X141175000Y-77323040D03*
X141175000Y-75225000D03*
D19*
X136652000Y-64516000D03*
X136652000Y-66016000D03*
D22*
X168650000Y-50250000D03*
D23*
X166110000Y-50250000D03*
X163570000Y-50250000D03*
X161030000Y-50250000D03*
X158490000Y-50250000D03*
X155950000Y-50250000D03*
D11*
X183100000Y-57975000D03*
D12*
X183100000Y-60515000D03*
X183100000Y-63055000D03*
X183100000Y-65595000D03*
X183100000Y-68135000D03*
X183100000Y-70675000D03*
X183100000Y-73215000D03*
X183100000Y-75755000D03*
X183100000Y-78295000D03*
X183100000Y-80835000D03*
D24*
X147335240Y-82362000D03*
X147335240Y-84262000D03*
X149334220Y-83312000D03*
X149325000Y-72350000D03*
X147425000Y-72350000D03*
X148375000Y-74348980D03*
D25*
X148075000Y-69475000D03*
X149575000Y-69475000D03*
D19*
X137157390Y-70975558D03*
X137157390Y-72475558D03*
D25*
X130350000Y-70275000D03*
X131850000Y-70275000D03*
D19*
X138938000Y-60706000D03*
X138938000Y-59206000D03*
D25*
X194056000Y-71882000D03*
X192556000Y-71882000D03*
D19*
X149280000Y-77990000D03*
X149280000Y-79490000D03*
X159190000Y-79560000D03*
X159190000Y-78060000D03*
D25*
X147500000Y-63200000D03*
X149000000Y-63200000D03*
X157320000Y-85000000D03*
X158820000Y-85000000D03*
D19*
X168402000Y-87400000D03*
X168402000Y-85900000D03*
X163576000Y-86154000D03*
X163576000Y-87654000D03*
D25*
X158790000Y-82000000D03*
X157290000Y-82000000D03*
X186690000Y-62992000D03*
X188190000Y-62992000D03*
D19*
X141007390Y-72475558D03*
X141007390Y-70975558D03*
X139057390Y-72575558D03*
X139057390Y-71075558D03*
X140970000Y-59206000D03*
X140970000Y-60706000D03*
X142907390Y-72475558D03*
X142907390Y-70975558D03*
D25*
X186690000Y-65532000D03*
X188190000Y-65532000D03*
D19*
X187325000Y-78825000D03*
X187325000Y-80325000D03*
D26*
X139660000Y-82970000D03*
X139660000Y-84570000D03*
X143760000Y-82970000D03*
X143760000Y-84570000D03*
D27*
X159275000Y-65650000D03*
X159275000Y-67150000D03*
X159275000Y-68650000D03*
X159275000Y-64150000D03*
X159275000Y-62650000D03*
X159275000Y-61150000D03*
X159275000Y-56650000D03*
X159275000Y-58150000D03*
X159275000Y-59650000D03*
X177275000Y-59650000D03*
X177275000Y-58150000D03*
X177275000Y-56650000D03*
X177275000Y-61150000D03*
X177275000Y-62650000D03*
X177275000Y-64150000D03*
X177275000Y-68650000D03*
X177275000Y-67150000D03*
X177275000Y-65650000D03*
D28*
X163002000Y-78486000D03*
X163002000Y-79756000D03*
X163002000Y-81026000D03*
X163002000Y-82296000D03*
X168402000Y-82296000D03*
X168402000Y-81026000D03*
X168402000Y-79756000D03*
X168402000Y-78486000D03*
D29*
X175006000Y-79772000D03*
X175006000Y-81672000D03*
D30*
X143225000Y-63025000D03*
X142590000Y-63025000D03*
X141955000Y-63025000D03*
X141320000Y-63025000D03*
X140685000Y-63025000D03*
X140050000Y-63025000D03*
X139415000Y-63025000D03*
X138780000Y-63025000D03*
X138780000Y-68225000D03*
X139415000Y-68225000D03*
X140050000Y-68225000D03*
X140685000Y-68225000D03*
X141320000Y-68225000D03*
X141955000Y-68225000D03*
X142590000Y-68225000D03*
X143225000Y-68225000D03*
D31*
X187825000Y-74600000D03*
X187825000Y-75250000D03*
X187825000Y-75900000D03*
X189925000Y-75900000D03*
X189925000Y-75250000D03*
X189925000Y-74600000D03*
D32*
X188875000Y-75650000D03*
X188875000Y-74850000D03*
D33*
X192598000Y-76695000D03*
X193548000Y-76695000D03*
X194498000Y-76695000D03*
X194498000Y-74015000D03*
X193548000Y-74015000D03*
X192598000Y-74015000D03*
D34*
X194198000Y-74930000D03*
X192898000Y-74930000D03*
X194198000Y-75780000D03*
X192898000Y-75780000D03*
D19*
X156575000Y-69300000D03*
X156575000Y-67800000D03*
X156972000Y-57888000D03*
X156972000Y-56388000D03*
D20*
X146625000Y-79375000D03*
X146625000Y-77875000D03*
D35*
X160539045Y-68337045D03*
X193548000Y-77724000D03*
X187706000Y-76708000D03*
X167132000Y-78486000D03*
X175514000Y-56642000D03*
X160782000Y-61214000D03*
X133793278Y-66447444D03*
X135325543Y-66858457D03*
X141458022Y-67056000D03*
X143764000Y-58166000D03*
X141986000Y-84582000D03*
X145542000Y-77978000D03*
X140716000Y-64262000D03*
X135890000Y-60960000D03*
X131826000Y-73406000D03*
X132588000Y-70104000D03*
X135128000Y-70104000D03*
X158820000Y-86500000D03*
X157480000Y-66802000D03*
X157597020Y-64008000D03*
X145622488Y-62399980D03*
X149352000Y-68072000D03*
X129794000Y-68834000D03*
X155254956Y-65217044D03*
X185928000Y-74422000D03*
X155702000Y-71882000D03*
X190754000Y-76708000D03*
X191516000Y-74930000D03*
X155448000Y-66294000D03*
X186690000Y-66802000D03*
X189484000Y-73406000D03*
X157734000Y-62738000D03*
X155702000Y-62738000D03*
X192786000Y-72898000D03*
X186944000Y-75184000D03*
X188214000Y-64516000D03*
X175260000Y-65278000D03*
X132842000Y-65532000D03*
X158040002Y-82042000D03*
X137160000Y-69596000D03*
X150368000Y-66548000D03*
X146304000Y-60960000D03*
X137668000Y-62230000D03*
X164592000Y-82296000D03*
X141986000Y-64262000D03*
X140208000Y-66802000D03*
X140208000Y-76454000D03*
X140208000Y-69596000D03*
X187452000Y-61722000D03*
X173228000Y-62992000D03*
D36*
X132636000Y-67289000D02*
X132636000Y-66809000D01*
X130350000Y-69575000D02*
X132636000Y-67289000D01*
X130350000Y-70275000D02*
X130350000Y-69575000D01*
X130350000Y-72475000D02*
X130350000Y-70275000D01*
X129794000Y-64262000D02*
X130294000Y-64262000D01*
X132636000Y-66604000D02*
X132636000Y-66809000D01*
X130294000Y-64262000D02*
X132636000Y-66604000D01*
X126380000Y-70770000D02*
X126380000Y-71970000D01*
X160539045Y-68385955D02*
X160539045Y-68337045D01*
X160275000Y-68650000D02*
X160539045Y-68385955D01*
X159275000Y-68650000D02*
X160275000Y-68650000D01*
X193548000Y-76695000D02*
X193548000Y-77724000D01*
X147335240Y-84262000D02*
X144068000Y-84262000D01*
X144068000Y-84262000D02*
X143760000Y-84570000D01*
X187825000Y-75900000D02*
X187825000Y-76589000D01*
X187825000Y-76589000D02*
X187706000Y-76708000D01*
X187825000Y-75250000D02*
X187825000Y-75900000D01*
X168402000Y-78486000D02*
X167132000Y-78486000D01*
X177275000Y-56650000D02*
X175522000Y-56650000D01*
X175522000Y-56650000D02*
X175514000Y-56642000D01*
X159275000Y-61150000D02*
X160718000Y-61150000D01*
X160718000Y-61150000D02*
X160782000Y-61214000D01*
X133604000Y-66791000D02*
X133604000Y-66636722D01*
X134536000Y-66809000D02*
X135276086Y-66809000D01*
X133604000Y-66636722D02*
X133793278Y-66447444D01*
X133586000Y-66809000D02*
X133604000Y-66791000D01*
X135276086Y-66809000D02*
X135325543Y-66858457D01*
X141320000Y-67194022D02*
X141458022Y-67056000D01*
X141320000Y-68225000D02*
X141320000Y-67194022D01*
X143557390Y-59225558D02*
X143557390Y-58372610D01*
X143557390Y-58372610D02*
X143764000Y-58166000D01*
X133586000Y-66809000D02*
X134536000Y-66809000D01*
X139660000Y-84570000D02*
X141974000Y-84570000D01*
X141974000Y-84570000D02*
X141986000Y-84582000D01*
X143760000Y-84570000D02*
X141998000Y-84570000D01*
X141998000Y-84570000D02*
X141986000Y-84582000D01*
X146625000Y-77875000D02*
X145645000Y-77875000D01*
X145645000Y-77875000D02*
X145542000Y-77978000D01*
X140685000Y-63025000D02*
X140685000Y-64231000D01*
X140685000Y-64231000D02*
X140716000Y-64262000D01*
X136652000Y-60936000D02*
X135914000Y-60936000D01*
X135914000Y-60936000D02*
X135890000Y-60960000D01*
X131850000Y-72475000D02*
X131850000Y-73382000D01*
X131850000Y-73382000D02*
X131826000Y-73406000D01*
X131850000Y-70275000D02*
X132417000Y-70275000D01*
X132417000Y-70275000D02*
X132588000Y-70104000D01*
X135007390Y-70975558D02*
X135007390Y-70224610D01*
X135007390Y-70224610D02*
X135128000Y-70104000D01*
X158930000Y-88080000D02*
X158930000Y-86610000D01*
X158930000Y-86610000D02*
X158820000Y-86500000D01*
X158820000Y-85000000D02*
X158820000Y-86500000D01*
X157480000Y-66802000D02*
X158632000Y-65650000D01*
X158632000Y-65650000D02*
X159275000Y-65650000D01*
X163002000Y-78486000D02*
X163002000Y-78417000D01*
X162645000Y-78060000D02*
X159190000Y-78060000D01*
X163002000Y-78417000D02*
X162645000Y-78060000D01*
X153550000Y-78070000D02*
X156870000Y-78070000D01*
X156870000Y-78070000D02*
X156880000Y-78060000D01*
X156880000Y-78060000D02*
X159190000Y-78060000D01*
X163002000Y-79756000D02*
X164027000Y-79756000D01*
X164027000Y-79756000D02*
X168402000Y-84131000D01*
X168402000Y-84131000D02*
X168402000Y-85400000D01*
X168402000Y-85400000D02*
X168402000Y-85900000D01*
X159190000Y-79560000D02*
X162806000Y-79560000D01*
X162806000Y-79560000D02*
X163002000Y-79756000D01*
X156880000Y-79560000D02*
X159190000Y-79560000D01*
X163002000Y-81026000D02*
X158064000Y-81026000D01*
X157290000Y-81800000D02*
X157290000Y-82000000D01*
X158064000Y-81026000D02*
X157290000Y-81800000D01*
X157320000Y-82160000D02*
X157290000Y-82130000D01*
X157290000Y-82130000D02*
X157290000Y-82000000D01*
X157320000Y-85000000D02*
X157320000Y-82160000D01*
X157430000Y-88080000D02*
X157430000Y-85110000D01*
X157430000Y-85110000D02*
X157320000Y-85000000D01*
X166116000Y-85900000D02*
X166902000Y-85900000D01*
X166902000Y-85900000D02*
X168402000Y-87400000D01*
X166116000Y-87400000D02*
X166116000Y-87425000D01*
X166116000Y-87425000D02*
X166741000Y-88050000D01*
X166741000Y-88050000D02*
X169037002Y-88050000D01*
X169037002Y-88050000D02*
X174506001Y-82581001D01*
X174506001Y-82581001D02*
X174506001Y-82171999D01*
X174506001Y-82171999D02*
X175006000Y-81672000D01*
X163576000Y-87654000D02*
X165862000Y-87654000D01*
X165862000Y-87654000D02*
X166116000Y-87400000D01*
X139660000Y-82970000D02*
X140410000Y-82970000D01*
X140410000Y-82970000D02*
X143760000Y-82970000D01*
X159275000Y-64150000D02*
X157739020Y-64150000D01*
X157739020Y-64150000D02*
X157597020Y-64008000D01*
X145622488Y-61430654D02*
X145622488Y-61975716D01*
X142264000Y-59206000D02*
X143058557Y-60000557D01*
X144192391Y-60000557D02*
X145622488Y-61430654D01*
X145622488Y-61975716D02*
X145622488Y-62399980D01*
X140970000Y-59206000D02*
X142264000Y-59206000D01*
X143058557Y-60000557D02*
X144192391Y-60000557D01*
X149352000Y-68072000D02*
X149352000Y-69252000D01*
X149352000Y-69252000D02*
X149575000Y-69475000D01*
X149325000Y-72350000D02*
X150370000Y-72350000D01*
X150370000Y-72350000D02*
X152284000Y-74264000D01*
X152284000Y-74264000D02*
X152284000Y-74416400D01*
X152284000Y-74416400D02*
X153397600Y-75530000D01*
X153397600Y-75530000D02*
X153550000Y-75530000D01*
X149575000Y-69475000D02*
X149575000Y-72100000D01*
X149575000Y-72100000D02*
X149325000Y-72350000D01*
X143760000Y-82970000D02*
X143760000Y-77578878D01*
X143760000Y-77578878D02*
X148988878Y-72350000D01*
X148988878Y-72350000D02*
X149325000Y-72350000D01*
X159275000Y-58150000D02*
X159025000Y-58150000D01*
X159025000Y-58150000D02*
X157838001Y-56963001D01*
X153446347Y-55812999D02*
X151078119Y-55812999D01*
X157838001Y-56963001D02*
X154596349Y-56963001D01*
X154596349Y-56963001D02*
X153446347Y-55812999D01*
X143675000Y-63025000D02*
X146389998Y-63025000D01*
X146389998Y-63025000D02*
X148051401Y-61363597D01*
X148051401Y-61363597D02*
X148051401Y-58839717D01*
X148051401Y-58839717D02*
X151078119Y-55812999D01*
X163570000Y-50250000D02*
X163570000Y-54855000D01*
X163570000Y-54855000D02*
X160275000Y-58150000D01*
X160275000Y-58150000D02*
X159275000Y-58150000D01*
X143675000Y-63025000D02*
X143225000Y-63025000D01*
X152284000Y-66796400D02*
X153397600Y-67910000D01*
X145725548Y-65075548D02*
X150715548Y-65075548D01*
X150715548Y-65075548D02*
X152284000Y-66644000D01*
X143675000Y-63025000D02*
X145725548Y-65075548D01*
X152284000Y-66644000D02*
X152284000Y-66796400D01*
X153397600Y-67910000D02*
X153550000Y-67910000D01*
X159275000Y-59650000D02*
X159025000Y-59650000D01*
X156952021Y-61722979D02*
X156952021Y-65857518D01*
X154891010Y-69261390D02*
X153702400Y-70450000D01*
X159025000Y-59650000D02*
X156952021Y-61722979D01*
X156952021Y-65857518D02*
X154891010Y-67918529D01*
X154891010Y-67918529D02*
X154891010Y-69261390D01*
X153702400Y-70450000D02*
X153550000Y-70450000D01*
X159275000Y-59650000D02*
X160275000Y-59650000D01*
X160275000Y-59650000D02*
X166110000Y-53815000D01*
X166110000Y-53815000D02*
X166110000Y-51516000D01*
X166110000Y-51516000D02*
X166110000Y-50250000D01*
X150524563Y-65525559D02*
X142324557Y-65525559D01*
X141360999Y-64562001D02*
X141360999Y-63915999D01*
X150993002Y-68045402D02*
X150993002Y-65993998D01*
X153550000Y-70450000D02*
X153397600Y-70450000D01*
X141360999Y-63915999D02*
X141320000Y-63875000D01*
X150993002Y-65993998D02*
X150524563Y-65525559D01*
X141320000Y-63875000D02*
X141320000Y-63025000D01*
X153397600Y-70450000D02*
X150993002Y-68045402D01*
X142324557Y-65525559D02*
X141360999Y-64562001D01*
X129794000Y-67532000D02*
X129794000Y-68834000D01*
X155254956Y-64792780D02*
X155254956Y-65217044D01*
X155254956Y-64382556D02*
X155254956Y-64792780D01*
X153702400Y-62830000D02*
X155254956Y-64382556D01*
X153550000Y-62830000D02*
X153702400Y-62830000D01*
X129794000Y-67532000D02*
X128934000Y-67532000D01*
X127305000Y-68170000D02*
X126380000Y-68170000D01*
X128934000Y-67532000D02*
X128296000Y-68170000D01*
X128296000Y-68170000D02*
X127305000Y-68170000D01*
X126380000Y-68170000D02*
X126855000Y-68170000D01*
X139057390Y-72575558D02*
X138857390Y-72575558D01*
X138857390Y-72575558D02*
X136107948Y-75325000D01*
X136107948Y-75325000D02*
X135899440Y-75325000D01*
X135899440Y-75325000D02*
X135050000Y-75325000D01*
X147500000Y-63000000D02*
X149225000Y-61275000D01*
X149225000Y-60299440D02*
X149225000Y-59450000D01*
X147500000Y-63200000D02*
X147500000Y-63000000D01*
X149225000Y-61275000D02*
X149225000Y-60299440D01*
X192556000Y-71882000D02*
X188468000Y-71882000D01*
X188468000Y-71882000D02*
X185928000Y-74422000D01*
X183100000Y-78295000D02*
X182947600Y-78295000D01*
X182947600Y-78295000D02*
X178350001Y-73697401D01*
X178350001Y-73697401D02*
X178350001Y-67975001D01*
X178350001Y-67975001D02*
X177525000Y-67150000D01*
X177525000Y-67150000D02*
X177275000Y-67150000D01*
X155702000Y-71882000D02*
X156575000Y-71009000D01*
X156575000Y-71009000D02*
X156575000Y-69300000D01*
X190754000Y-76708000D02*
X190733000Y-76708000D01*
X190733000Y-76708000D02*
X189925000Y-75900000D01*
X192598000Y-74015000D02*
X192123000Y-74015000D01*
X192123000Y-74015000D02*
X191516000Y-74622000D01*
X191516000Y-74622000D02*
X191516000Y-74930000D01*
X187325000Y-78825000D02*
X187525000Y-78825000D01*
X187525000Y-78825000D02*
X189925000Y-76425000D01*
X189925000Y-76425000D02*
X189925000Y-76325000D01*
X189925000Y-76325000D02*
X189925000Y-75900000D01*
X187325000Y-78825000D02*
X187325000Y-78325000D01*
X187325000Y-78325000D02*
X184755000Y-75755000D01*
X184755000Y-75755000D02*
X184366000Y-75755000D01*
X184366000Y-75755000D02*
X183100000Y-75755000D01*
X179070000Y-72991000D02*
X179070000Y-67195000D01*
X179070000Y-67195000D02*
X177525000Y-65650000D01*
X177525000Y-65650000D02*
X177275000Y-65650000D01*
X183100000Y-75755000D02*
X181834000Y-75755000D01*
X181834000Y-75755000D02*
X179070000Y-72991000D01*
X179578000Y-69845400D02*
X179578000Y-66203000D01*
X179578000Y-66203000D02*
X177525000Y-64150000D01*
X177525000Y-64150000D02*
X177275000Y-64150000D01*
X183100000Y-73215000D02*
X182947600Y-73215000D01*
X182947600Y-73215000D02*
X179578000Y-69845400D01*
X154524000Y-65370000D02*
X155448000Y-66294000D01*
X153550000Y-65370000D02*
X154524000Y-65370000D01*
X177275000Y-61150000D02*
X177525000Y-61150000D01*
X177525000Y-61150000D02*
X181758990Y-65383990D01*
X182947600Y-68135000D02*
X183100000Y-68135000D01*
X181758990Y-65383990D02*
X181758990Y-66946390D01*
X181758990Y-66946390D02*
X182947600Y-68135000D01*
X177465000Y-60960000D02*
X177275000Y-61150000D01*
X186690000Y-66802000D02*
X186690000Y-65532000D01*
X189925000Y-74600000D02*
X189925000Y-73847000D01*
X189925000Y-73847000D02*
X189484000Y-73406000D01*
X192598000Y-76695000D02*
X192123000Y-76695000D01*
X192123000Y-76695000D02*
X190575001Y-75147001D01*
X190575001Y-75147001D02*
X190575001Y-74675001D01*
X190575001Y-74675001D02*
X190500000Y-74600000D01*
X190500000Y-74600000D02*
X189925000Y-74600000D01*
X177275000Y-59650000D02*
X177525000Y-59650000D01*
X177525000Y-59650000D02*
X181834000Y-63959000D01*
X181834000Y-63959000D02*
X181834000Y-64481400D01*
X181834000Y-64481400D02*
X182947600Y-65595000D01*
X182947600Y-65595000D02*
X183100000Y-65595000D01*
X183100000Y-65595000D02*
X186627000Y-65595000D01*
X186627000Y-65595000D02*
X186690000Y-65532000D01*
X186690000Y-62992000D02*
X183163000Y-62992000D01*
X183163000Y-62992000D02*
X183100000Y-63055000D01*
X177275000Y-58150000D02*
X177525000Y-58150000D01*
X177525000Y-58150000D02*
X182430000Y-63055000D01*
X182430000Y-63055000D02*
X183100000Y-63055000D01*
X156972000Y-57888000D02*
X156972000Y-58388000D01*
X156972000Y-58388000D02*
X155070000Y-60290000D01*
X155070000Y-60290000D02*
X154816000Y-60290000D01*
X154816000Y-60290000D02*
X153550000Y-60290000D01*
X161290000Y-68470002D02*
X161290000Y-64415000D01*
X161290000Y-64415000D02*
X159525000Y-62650000D01*
X159525000Y-62650000D02*
X159275000Y-62650000D01*
X156770002Y-72990000D02*
X161290000Y-68470002D01*
X153550000Y-72990000D02*
X156770002Y-72990000D01*
X157734000Y-62738000D02*
X159187000Y-62738000D01*
X159187000Y-62738000D02*
X159275000Y-62650000D01*
X149000000Y-63200000D02*
X151346652Y-63200000D01*
X154194738Y-61641390D02*
X155291348Y-62738000D01*
X151346652Y-63200000D02*
X152905262Y-61641390D01*
X152905262Y-61641390D02*
X154194738Y-61641390D01*
X155291348Y-62738000D02*
X155702000Y-62738000D01*
X153702400Y-72990000D02*
X153550000Y-72990000D01*
X153397600Y-72990000D02*
X153550000Y-72990000D01*
X187325000Y-80325000D02*
X183610000Y-80325000D01*
X183610000Y-80325000D02*
X183100000Y-80835000D01*
X192786000Y-72898000D02*
X193040000Y-72898000D01*
X193040000Y-72898000D02*
X194056000Y-71882000D01*
X187825000Y-74600000D02*
X187250000Y-74600000D01*
X187250000Y-74600000D02*
X186944000Y-74906000D01*
X186944000Y-74906000D02*
X186944000Y-75184000D01*
X194056000Y-71882000D02*
X193548000Y-72390000D01*
X193548000Y-72390000D02*
X193548000Y-74015000D01*
X188214000Y-64516000D02*
X188214000Y-65508000D01*
X188214000Y-65508000D02*
X188190000Y-65532000D01*
X177275000Y-68650000D02*
X177025000Y-68650000D01*
X177025000Y-68650000D02*
X175260000Y-66885000D01*
X175260000Y-66885000D02*
X175260000Y-65278000D01*
X194056000Y-71882000D02*
X194056000Y-71598000D01*
X188190000Y-65732000D02*
X188190000Y-65532000D01*
X194056000Y-71598000D02*
X188190000Y-65732000D01*
X159395001Y-85481001D02*
X162814000Y-88900000D01*
X158040002Y-82042000D02*
X159395001Y-83396999D01*
X159395001Y-83396999D02*
X159395001Y-85481001D01*
X132636000Y-64609000D02*
X132636000Y-65326000D01*
X132636000Y-65326000D02*
X132842000Y-65532000D01*
X158040002Y-82042000D02*
X158748000Y-82042000D01*
X158748000Y-82042000D02*
X158790000Y-82000000D01*
X137160000Y-67809002D02*
X137160000Y-69596000D01*
X134066001Y-65464001D02*
X134814999Y-65464001D01*
X134814999Y-65464001D02*
X137160000Y-67809002D01*
X133211000Y-64609000D02*
X134066001Y-65464001D01*
X150270000Y-66450000D02*
X150368000Y-66548000D01*
X149323040Y-66450000D02*
X150270000Y-66450000D01*
X146304000Y-60960000D02*
X146304000Y-60272960D01*
X146304000Y-60272960D02*
X147126960Y-59450000D01*
X136652000Y-64516000D02*
X136652000Y-63246000D01*
X136652000Y-63246000D02*
X137668000Y-62230000D01*
X136652000Y-64516000D02*
X136452000Y-64516000D01*
X134066001Y-63753999D02*
X133211000Y-64609000D01*
X136452000Y-64516000D02*
X135689999Y-63753999D01*
X135689999Y-63753999D02*
X134066001Y-63753999D01*
X133211000Y-64609000D02*
X132636000Y-64609000D01*
X163002000Y-82296000D02*
X164592000Y-82296000D01*
X163002000Y-82296000D02*
X163002000Y-85580000D01*
X163002000Y-85580000D02*
X163576000Y-86154000D01*
X158790000Y-82000000D02*
X162725000Y-82000000D01*
X162725000Y-82000000D02*
X162750000Y-81975000D01*
X130048000Y-74168000D02*
X132689948Y-74168000D01*
X132689948Y-74168000D02*
X134382390Y-72475558D01*
X134382390Y-72475558D02*
X135007390Y-72475558D01*
X128524000Y-72644000D02*
X130048000Y-74168000D01*
X128524000Y-70039000D02*
X128524000Y-72644000D01*
X126380000Y-68820000D02*
X127305000Y-68820000D01*
X127305000Y-68820000D02*
X128524000Y-70039000D01*
X137157390Y-72475558D02*
X135007390Y-72475558D01*
X126380000Y-69470000D02*
X125455000Y-69470000D01*
X125455000Y-69470000D02*
X125379999Y-69394999D01*
X125379999Y-69394999D02*
X125379999Y-66688617D01*
X125379999Y-66688617D02*
X132632616Y-59436000D01*
X132632616Y-59436000D02*
X136027000Y-59436000D01*
X136652000Y-59436000D02*
X138708000Y-59436000D01*
X138708000Y-59436000D02*
X138938000Y-59206000D01*
X136027000Y-59436000D02*
X136652000Y-59436000D01*
X141986000Y-64262000D02*
X141986000Y-63056000D01*
X141986000Y-63056000D02*
X141955000Y-63025000D01*
X140050000Y-68225000D02*
X140050000Y-66960000D01*
X140050000Y-66960000D02*
X140208000Y-66802000D01*
X140208000Y-76454000D02*
X140305960Y-76454000D01*
X140305960Y-76454000D02*
X141175000Y-77323040D01*
X140050000Y-68225000D02*
X140050000Y-69438000D01*
X140050000Y-69438000D02*
X140208000Y-69596000D01*
X140050000Y-68225000D02*
X139415000Y-68225000D01*
X138075000Y-77349020D02*
X141149020Y-77349020D01*
X141149020Y-77349020D02*
X141175000Y-77323040D01*
X135050000Y-77423040D02*
X138000980Y-77423040D01*
X138000980Y-77423040D02*
X138075000Y-77349020D01*
X143557390Y-60725558D02*
X143557390Y-60750558D01*
X143557390Y-60750558D02*
X141955000Y-62352948D01*
X141955000Y-62352948D02*
X141955000Y-63025000D01*
X147335240Y-82362000D02*
X146685190Y-82362000D01*
X146685190Y-82362000D02*
X146625000Y-82301810D01*
X146625000Y-82301810D02*
X146625000Y-80025000D01*
X146625000Y-80025000D02*
X146625000Y-79375000D01*
X146625000Y-79375000D02*
X149165000Y-79375000D01*
X149165000Y-79375000D02*
X149280000Y-79490000D01*
X147225000Y-66450000D02*
X147225000Y-69125000D01*
X147225000Y-69125000D02*
X147575000Y-69475000D01*
X147575000Y-69475000D02*
X148075000Y-69475000D01*
X147425000Y-72350000D02*
X147425000Y-69625000D01*
X147425000Y-69625000D02*
X147575000Y-69475000D01*
X141007390Y-72475558D02*
X141007390Y-73168030D01*
X141007390Y-73168030D02*
X138924440Y-75250980D01*
X138924440Y-75250980D02*
X138075000Y-75250980D01*
X142907390Y-72475558D02*
X142907390Y-74342050D01*
X142907390Y-74342050D02*
X142024440Y-75225000D01*
X142024440Y-75225000D02*
X141175000Y-75225000D01*
X187960000Y-61722000D02*
X188190000Y-61952000D01*
X188190000Y-61952000D02*
X188190000Y-62992000D01*
X187452000Y-61722000D02*
X187960000Y-61722000D01*
X149334220Y-83312000D02*
X149334220Y-82661950D01*
X152208990Y-79787180D02*
X152208990Y-77577662D01*
X149334220Y-82661950D02*
X152208990Y-79787180D01*
X153068042Y-76718610D02*
X159501390Y-76718610D01*
X152208990Y-77577662D02*
X153068042Y-76718610D01*
X159501390Y-76718610D02*
X173228000Y-62992000D01*
X148375000Y-74348980D02*
X148375000Y-77285000D01*
X148375000Y-77285000D02*
X149080000Y-77990000D01*
X149080000Y-77990000D02*
X149280000Y-77990000D01*
X137157390Y-70975558D02*
X137357390Y-70975558D01*
X137357390Y-70975558D02*
X138780000Y-69552948D01*
X138780000Y-69552948D02*
X138780000Y-69075000D01*
X138780000Y-69075000D02*
X138780000Y-68225000D01*
X138938000Y-60706000D02*
X138780000Y-60864000D01*
X138780000Y-60864000D02*
X138780000Y-63025000D01*
X141007390Y-70975558D02*
X141007390Y-70475558D01*
X141007390Y-70475558D02*
X142590000Y-68892948D01*
X142590000Y-68892948D02*
X142590000Y-68225000D01*
X139057390Y-71075558D02*
X139744442Y-71075558D01*
X139744442Y-71075558D02*
X141955000Y-68865000D01*
X141955000Y-68865000D02*
X141955000Y-68225000D01*
X140970000Y-60706000D02*
X140270000Y-60706000D01*
X140270000Y-60706000D02*
X139415000Y-61561000D01*
X139415000Y-61561000D02*
X139415000Y-62175000D01*
X139415000Y-62175000D02*
X139415000Y-63025000D01*
X142907390Y-70975558D02*
X142907390Y-70475558D01*
X142907390Y-70475558D02*
X143225000Y-70157948D01*
X143225000Y-70157948D02*
X143225000Y-69075000D01*
X143225000Y-69075000D02*
X143225000Y-68225000D01*
X140685000Y-67375000D02*
X140685000Y-68225000D01*
X140833002Y-67226998D02*
X140685000Y-67375000D01*
X140833002Y-66501998D02*
X140833002Y-67226998D01*
X140347004Y-66016000D02*
X140833002Y-66501998D01*
X136652000Y-66016000D02*
X140347004Y-66016000D01*
X156575000Y-67800000D02*
X158625000Y-67800000D01*
X158625000Y-67800000D02*
X159275000Y-67150000D01*
X156972000Y-56388000D02*
X159013000Y-56388000D01*
X159013000Y-56388000D02*
X159275000Y-56650000D01*
M02*
