G04 #@! TF.FileFunction,Soldermask,Top*
%FSLAX46Y46*%
G04 Gerber Fmt 4.6, Leading zero omitted, Abs format (unit mm)*
G04 Created by KiCad (PCBNEW 4.0.2-4+6225~38~ubuntu15.10.1-stable) date Thu 24 Mar 2016 10:28:15 PM CDT*
%MOMM*%
G01*
G04 APERTURE LIST*
%ADD10C,0.100000*%
%ADD11R,1.400000X1.900000*%
%ADD12C,1.400000*%
%ADD13R,1.700000X1.100000*%
%ADD14R,1.650000X1.400000*%
%ADD15R,1.620000X1.310000*%
%ADD16R,1.598880X1.598880*%
%ADD17R,1.300000X1.400000*%
%ADD18R,2.127200X2.432000*%
%ADD19O,2.127200X2.432000*%
%ADD20R,1.050000X1.460000*%
%ADD21R,2.432000X2.127200*%
%ADD22O,2.432000X2.127200*%
%ADD23R,1.100000X1.700000*%
%ADD24R,1.950000X1.000000*%
%ADD25R,1.400000X1.650000*%
%ADD26R,1.750000X0.800000*%
%ADD27O,1.350000X1.650000*%
%ADD28O,1.950000X1.400000*%
G04 APERTURE END LIST*
D10*
D11*
X170650000Y-78400000D03*
X172150000Y-78400000D03*
X173650000Y-78400000D03*
X169150000Y-78400000D03*
X167650000Y-78400000D03*
X166150000Y-78400000D03*
X161650000Y-78400000D03*
X163150000Y-78400000D03*
X164650000Y-78400000D03*
X164650000Y-60400000D03*
X163150000Y-60400000D03*
X161650000Y-60400000D03*
X166150000Y-60400000D03*
X167650000Y-60400000D03*
X169150000Y-60400000D03*
X173650000Y-60400000D03*
X172150000Y-60400000D03*
X170650000Y-60400000D03*
D12*
X201650000Y-71650000D03*
X201650000Y-69750000D03*
D13*
X191150000Y-69400000D03*
X191150000Y-71300000D03*
X194150000Y-73900000D03*
X194150000Y-75800000D03*
D14*
X190650000Y-73900000D03*
X190650000Y-75900000D03*
D15*
X131150000Y-68765000D03*
X131150000Y-72035000D03*
D16*
X157650000Y-62998040D03*
X157650000Y-60900000D03*
D17*
X146450000Y-61350000D03*
X144850000Y-61350000D03*
X146450000Y-65450000D03*
X144850000Y-65450000D03*
D18*
X178435000Y-55880000D03*
D19*
X175895000Y-55880000D03*
X173355000Y-55880000D03*
X170815000Y-55880000D03*
X168275000Y-55880000D03*
X165735000Y-55880000D03*
X163195000Y-55880000D03*
X160655000Y-55880000D03*
X158115000Y-55880000D03*
X155575000Y-55880000D03*
D20*
X134650000Y-74400000D03*
X133700000Y-74400000D03*
X132750000Y-74400000D03*
X132750000Y-76600000D03*
X134650000Y-76600000D03*
D13*
X135650000Y-68950000D03*
X135650000Y-70850000D03*
D21*
X141500000Y-74900000D03*
D22*
X141500000Y-72360000D03*
X141500000Y-69820000D03*
X141500000Y-67280000D03*
X141500000Y-64740000D03*
X141500000Y-62200000D03*
D23*
X154650000Y-78400000D03*
X156550000Y-78400000D03*
D24*
X181750000Y-67130000D03*
X181750000Y-68400000D03*
X181750000Y-69670000D03*
X181750000Y-70940000D03*
X187150000Y-70940000D03*
X187150000Y-69670000D03*
X187150000Y-68400000D03*
X187150000Y-67130000D03*
D25*
X194650000Y-65900000D03*
X196650000Y-65900000D03*
D13*
X153150000Y-67500000D03*
X153150000Y-69400000D03*
D17*
X144850000Y-80155000D03*
X146450000Y-80155000D03*
X144850000Y-76055000D03*
X146450000Y-76055000D03*
D23*
X152250000Y-74900000D03*
X154150000Y-74900000D03*
X154150000Y-71900000D03*
X152250000Y-71900000D03*
D13*
X151650000Y-62800000D03*
X151650000Y-60900000D03*
X154650000Y-62900000D03*
X154650000Y-61000000D03*
D26*
X127038540Y-68295100D03*
X127038540Y-68945100D03*
X127038540Y-69595100D03*
X127038540Y-70245100D03*
X127038540Y-70895100D03*
D27*
X127038540Y-67095100D03*
X127038540Y-72095100D03*
D28*
X124338540Y-66095100D03*
X124338540Y-73095100D03*
D14*
X131150000Y-64900000D03*
X131150000Y-62900000D03*
D25*
X184690000Y-62865000D03*
X186690000Y-62865000D03*
D16*
X185600000Y-52600000D03*
X185600000Y-54698040D03*
D23*
X186690000Y-59055000D03*
X184790000Y-59055000D03*
D13*
X191150000Y-66350000D03*
X191150000Y-64450000D03*
X194650000Y-69500000D03*
X194650000Y-71400000D03*
D15*
X135650000Y-65400000D03*
X135650000Y-62130000D03*
D16*
X149100980Y-78900000D03*
X151199020Y-78900000D03*
X152051960Y-65900000D03*
X154150000Y-65900000D03*
D17*
X145350000Y-71950000D03*
X146950000Y-71950000D03*
X145350000Y-67850000D03*
X146950000Y-67850000D03*
D18*
X156150000Y-83400000D03*
D19*
X158690000Y-83400000D03*
X161230000Y-83400000D03*
X163770000Y-83400000D03*
X166310000Y-83400000D03*
X168850000Y-83400000D03*
X171390000Y-83400000D03*
X173930000Y-83400000D03*
X176470000Y-83400000D03*
X179010000Y-83400000D03*
M02*
