M48
;DRILL file {KiCad 4.0.2-4+6225~38~ubuntu15.10.1-stable} date Thu 31 Mar 2016 01:19:04 PM CDT
;FORMAT={-:-/ absolute / inch / decimal}
FMAT,2
INCH,TZ
T1C0.016
T2C0.020
T3C0.022
T4C0.040
%
G90
G05
M72
T1
X4.9016Y-2.4272
X5.11Y-2.71
X5.23Y-2.58
X5.2362Y-2.4567
X5.2675Y-2.616
X5.32Y-2.76
X5.3278Y-2.6322
X5.35Y-2.4
X5.4Y-2.74
X5.42Y-2.45
X5.52Y-2.63
X5.52Y-2.74
X5.52Y-3.01
X5.54Y-2.53
X5.5692Y-2.64
X5.5787Y-2.4291
X5.59Y-2.53
X5.59Y-3.33
X5.6024Y-2.2854
X5.7126Y-3.0413
X5.7224Y-2.2795
X5.76Y-2.4
X5.88Y-2.68
X5.92Y-2.62
X6.1124Y-2.5676
X6.12Y-2.61
X6.13Y-2.47
X6.13Y-2.83
X6.2Y-2.63
X6.2046Y-2.52
X6.21Y-2.47
X6.222Y-3.23
X6.2402Y-2.752
X6.2528Y-3.4055
X6.313Y-3.4902
X6.3209Y-2.4075
X6.3228Y-2.687
X6.48Y-3.24
X6.58Y-3.09
X6.82Y-2.48
X6.9Y-2.57
X6.91Y-2.23
X7.32Y-2.93
X7.35Y-2.63
X7.36Y-2.96
X7.38Y-2.43
X7.39Y-3.02
X7.41Y-2.54
X7.46Y-2.89
X7.51Y-3.02
X7.54Y-2.95
X7.59Y-2.87
X7.62Y-3.06
T2
X7.1969Y-3.4075
X7.2717Y-3.4075
T4
X6.0453Y-2.2736
X6.0453Y-2.3736
X6.0453Y-2.4736
X6.0453Y-2.5736
X6.0453Y-2.6736
X6.0453Y-2.7736
X6.0453Y-2.8736
X6.0453Y-2.9736
X6.0453Y-3.0736
X6.0453Y-3.1736
X6.1398Y-1.9783
X6.2398Y-1.9783
X6.3398Y-1.9783
X6.4398Y-1.9783
X6.5398Y-1.9783
X6.6398Y-1.9783
X7.2087Y-2.2825
X7.2087Y-2.3825
X7.2087Y-2.4825
X7.2087Y-2.5825
X7.2087Y-2.6825
X7.2087Y-2.7825
X7.2087Y-2.8825
X7.2087Y-2.9825
X7.2087Y-3.0825
X7.2087Y-3.1825
T2
X4.8565Y-2.5972G85X4.8821Y-2.5972
G05
X4.8565Y-2.8728G85X4.8821Y-2.8728
G05
T3
X4.9756Y-2.6307G85X4.9756Y-2.6425
G05
X4.9756Y-2.8276G85X4.9756Y-2.8394
G05
T0
M30
