G04 #@! TF.FileFunction,Copper,L2,Bot,Signal*
%FSLAX46Y46*%
G04 Gerber Fmt 4.6, Leading zero omitted, Abs format (unit mm)*
G04 Created by KiCad (PCBNEW 4.0.2-4+6225~38~ubuntu15.10.1-stable) date Thu 31 Mar 2016 01:19:07 PM CDT*
%MOMM*%
G01*
G04 APERTURE LIST*
%ADD10C,0.100000*%
%ADD11R,2.032000X1.727200*%
%ADD12O,2.032000X1.727200*%
%ADD13O,0.950000X1.250000*%
%ADD14O,1.550000X1.000000*%
%ADD15R,1.727200X2.032000*%
%ADD16O,1.727200X2.032000*%
%ADD17C,1.000000*%
%ADD18C,0.600000*%
%ADD19C,0.250000*%
G04 APERTURE END LIST*
D10*
D11*
X153550000Y-80610000D03*
D12*
X153550000Y-78070000D03*
X153550000Y-75530000D03*
X153550000Y-72990000D03*
X153550000Y-70450000D03*
X153550000Y-67910000D03*
X153550000Y-65370000D03*
X153550000Y-62830000D03*
X153550000Y-60290000D03*
X153550000Y-57750000D03*
D13*
X126380000Y-66970000D03*
X126380000Y-71970000D03*
D14*
X123680000Y-65970000D03*
X123680000Y-72970000D03*
D15*
X168650000Y-50250000D03*
D16*
X166110000Y-50250000D03*
X163570000Y-50250000D03*
X161030000Y-50250000D03*
X158490000Y-50250000D03*
X155950000Y-50250000D03*
D11*
X183100000Y-57975000D03*
D12*
X183100000Y-60515000D03*
X183100000Y-63055000D03*
X183100000Y-65595000D03*
X183100000Y-68135000D03*
X183100000Y-70675000D03*
X183100000Y-73215000D03*
X183100000Y-75755000D03*
X183100000Y-78295000D03*
X183100000Y-80835000D03*
D17*
X184700000Y-86550000D03*
X182800000Y-86550000D03*
D18*
X160350000Y-88650000D03*
X160550000Y-61150000D03*
X160600000Y-68250000D03*
X158500000Y-69900000D03*
X145350000Y-57900000D03*
X142300000Y-58050000D03*
X124500000Y-61650000D03*
X133000000Y-62400000D03*
X145100000Y-77250000D03*
X193548000Y-77724000D03*
X187706000Y-76708000D03*
X167132000Y-78486000D03*
X175514000Y-56642000D03*
X133793278Y-66447444D03*
X135325543Y-66858457D03*
X141458022Y-67056000D03*
X141986000Y-84582000D03*
X140716000Y-64262000D03*
X135890000Y-60960000D03*
X135128000Y-70104000D03*
X158820000Y-86500000D03*
X157480000Y-66802000D03*
X141700000Y-61700000D03*
X157597020Y-64008000D03*
X149352000Y-68072000D03*
X129794000Y-68834000D03*
X155254956Y-65217044D03*
X185928000Y-74422000D03*
X155702000Y-71882000D03*
X190754000Y-76708000D03*
X191516000Y-74930000D03*
X155448000Y-66294000D03*
X186690000Y-66802000D03*
X189484000Y-73406000D03*
X157734000Y-62738000D03*
X155702000Y-62738000D03*
X192786000Y-72898000D03*
X186944000Y-75184000D03*
X188214000Y-64516000D03*
X175260000Y-65278000D03*
X132842000Y-65532000D03*
X158040002Y-82042000D03*
X137160000Y-69596000D03*
X150368000Y-66548000D03*
X146304000Y-60960000D03*
X137668000Y-62230000D03*
X164592000Y-82296000D03*
X141986000Y-64262000D03*
X140208000Y-66802000D03*
X140208000Y-76454000D03*
X140208000Y-69596000D03*
X187452000Y-61722000D03*
X173228000Y-62992000D03*
D19*
X153550000Y-78070000D02*
X153550000Y-77363348D01*
X154891010Y-76022338D02*
X154891010Y-71105118D01*
X153550000Y-77363348D02*
X154891010Y-76022338D01*
X154891010Y-71105118D02*
X157480000Y-68516128D01*
X157480000Y-68516128D02*
X157480000Y-66802000D01*
X141700000Y-61700000D02*
X142980000Y-61700000D01*
X142980000Y-61700000D02*
X149352000Y-68072000D01*
X156999366Y-64181390D02*
X157172756Y-64008000D01*
X152818346Y-64181390D02*
X156999366Y-64181390D01*
X150193266Y-67647736D02*
X150993001Y-66848001D01*
X150993001Y-66006735D02*
X152818346Y-64181390D01*
X157172756Y-64008000D02*
X157597020Y-64008000D01*
X149352000Y-67647736D02*
X150193266Y-67647736D01*
X150993001Y-66848001D02*
X150993001Y-66006735D01*
X149352000Y-68072000D02*
X149352000Y-67647736D01*
X132060002Y-68834000D02*
X132197001Y-68697001D01*
X132197001Y-68697001D02*
X149780412Y-68697001D01*
X149780412Y-68697001D02*
X151918803Y-66558610D01*
X151918803Y-66558610D02*
X154194738Y-66558610D01*
X154194738Y-66558610D02*
X154954957Y-65798391D01*
X154954957Y-65798391D02*
X154954957Y-65517043D01*
X129794000Y-68834000D02*
X132060002Y-68834000D01*
X154954957Y-65517043D02*
X155254956Y-65217044D01*
X161030000Y-50250000D02*
X161030000Y-55502400D01*
X161030000Y-55502400D02*
X153702400Y-62830000D01*
X153702400Y-62830000D02*
X153550000Y-62830000D01*
X185928000Y-74422000D02*
X185628001Y-74721999D01*
X185628001Y-74721999D02*
X185628001Y-77032999D01*
X185628001Y-77032999D02*
X184366000Y-78295000D01*
X184366000Y-78295000D02*
X183100000Y-78295000D01*
X155702000Y-71882000D02*
X155702000Y-75847759D01*
X155702000Y-75847759D02*
X155194000Y-76355759D01*
X155194000Y-76355759D02*
X155194000Y-79118400D01*
X155194000Y-79118400D02*
X153702400Y-80610000D01*
X153702400Y-80610000D02*
X153550000Y-80610000D01*
X191516000Y-74930000D02*
X191516000Y-75946000D01*
X191516000Y-75946000D02*
X190754000Y-76708000D01*
X181834000Y-70675000D02*
X183100000Y-70675000D01*
X161119003Y-65994001D02*
X165800002Y-70675000D01*
X155747999Y-65994001D02*
X161119003Y-65994001D01*
X155448000Y-66294000D02*
X155747999Y-65994001D01*
X165800002Y-70675000D02*
X181834000Y-70675000D01*
X189484000Y-73406000D02*
X186690000Y-70612000D01*
X186690000Y-70612000D02*
X186690000Y-66802000D01*
X155702000Y-62738000D02*
X157734000Y-62738000D01*
X186944000Y-75184000D02*
X186944000Y-77143400D01*
X186944000Y-77143400D02*
X183252400Y-80835000D01*
X183252400Y-80835000D02*
X183100000Y-80835000D01*
X189484000Y-75184000D02*
X191770000Y-72898000D01*
X191770000Y-72898000D02*
X192786000Y-72898000D01*
X186944000Y-75184000D02*
X189484000Y-75184000D01*
X175260000Y-65278000D02*
X176131610Y-64406390D01*
X176131610Y-64406390D02*
X188104390Y-64406390D01*
X188104390Y-64406390D02*
X188214000Y-64516000D01*
X137160000Y-78740000D02*
X140462000Y-82042000D01*
X140462000Y-82042000D02*
X158040002Y-82042000D01*
X137160000Y-69596000D02*
X137160000Y-78740000D01*
X150368000Y-66548000D02*
X150368000Y-65024000D01*
X150368000Y-65024000D02*
X146304000Y-60960000D01*
X137668000Y-62230000D02*
X138938000Y-60960000D01*
X138938000Y-60960000D02*
X146304000Y-60960000D01*
X164592000Y-82296000D02*
X182752600Y-82296000D01*
X182752600Y-82296000D02*
X183100000Y-81948600D01*
X183100000Y-81948600D02*
X183100000Y-80835000D01*
X141986000Y-65024000D02*
X141986000Y-64262000D01*
X140208000Y-66802000D02*
X141986000Y-65024000D01*
X140208000Y-69596000D02*
X140208000Y-76454000D01*
X173228000Y-62992000D02*
X174498000Y-61722000D01*
X174498000Y-61722000D02*
X187452000Y-61722000D01*
D10*
G36*
X188873000Y-60000000D02*
X188883006Y-60049410D01*
X188911447Y-60091035D01*
X188953841Y-60118315D01*
X189000000Y-60127000D01*
X202873000Y-60127000D01*
X202873000Y-78873000D01*
X189000000Y-78873000D01*
X188950590Y-78883006D01*
X188908965Y-78911447D01*
X188881685Y-78953841D01*
X188873000Y-79000000D01*
X188873000Y-91873000D01*
X176108500Y-91873000D01*
X177107709Y-91674245D01*
X178046779Y-91046779D01*
X178674245Y-90107709D01*
X178894582Y-89000000D01*
X178674245Y-87892291D01*
X178046779Y-86953221D01*
X177107709Y-86325755D01*
X176000000Y-86105418D01*
X174892291Y-86325755D01*
X173953221Y-86953221D01*
X173325755Y-87892291D01*
X173105418Y-89000000D01*
X173325755Y-90107709D01*
X173953221Y-91046779D01*
X174892291Y-91674245D01*
X175891500Y-91873000D01*
X136127000Y-91873000D01*
X136127000Y-89000000D01*
X146798000Y-89000000D01*
X147003678Y-90034011D01*
X147589397Y-90910603D01*
X148465989Y-91496322D01*
X149500000Y-91702000D01*
X150534011Y-91496322D01*
X151410603Y-90910603D01*
X151996322Y-90034011D01*
X152202000Y-89000000D01*
X151996322Y-87965989D01*
X151410603Y-87089397D01*
X150534011Y-86503678D01*
X149500000Y-86298000D01*
X148465989Y-86503678D01*
X147589397Y-87089397D01*
X147003678Y-87965989D01*
X146798000Y-89000000D01*
X136127000Y-89000000D01*
X136127000Y-79000000D01*
X136116994Y-78950590D01*
X136088553Y-78908965D01*
X136046159Y-78881685D01*
X136000000Y-78873000D01*
X122127000Y-78873000D01*
X122127000Y-73271874D01*
X122310881Y-73271874D01*
X122512632Y-73682763D01*
X122853322Y-73970002D01*
X123278000Y-74105000D01*
X123553000Y-74105000D01*
X123553000Y-73097000D01*
X123807000Y-73097000D01*
X123807000Y-74105000D01*
X124082000Y-74105000D01*
X124506678Y-73970002D01*
X124847368Y-73682763D01*
X125049119Y-73271874D01*
X124922954Y-73097000D01*
X123807000Y-73097000D01*
X123553000Y-73097000D01*
X122437046Y-73097000D01*
X122310881Y-73271874D01*
X122127000Y-73271874D01*
X122127000Y-72668126D01*
X122310881Y-72668126D01*
X122437046Y-72843000D01*
X123553000Y-72843000D01*
X123553000Y-71835000D01*
X123807000Y-71835000D01*
X123807000Y-72843000D01*
X124922954Y-72843000D01*
X125049119Y-72668126D01*
X124854191Y-72271131D01*
X125278771Y-72271131D01*
X125420432Y-72681049D01*
X125708179Y-73005552D01*
X126082062Y-73189268D01*
X126253000Y-73062734D01*
X126253000Y-72097000D01*
X126507000Y-72097000D01*
X126507000Y-73062734D01*
X126677938Y-73189268D01*
X127051821Y-73005552D01*
X127339568Y-72681049D01*
X127481229Y-72271131D01*
X127332563Y-72097000D01*
X126507000Y-72097000D01*
X126253000Y-72097000D01*
X125427437Y-72097000D01*
X125278771Y-72271131D01*
X124854191Y-72271131D01*
X124847368Y-72257237D01*
X124506678Y-71969998D01*
X124082000Y-71835000D01*
X123807000Y-71835000D01*
X123553000Y-71835000D01*
X123278000Y-71835000D01*
X122853322Y-71969998D01*
X122512632Y-72257237D01*
X122310881Y-72668126D01*
X122127000Y-72668126D01*
X122127000Y-71668869D01*
X125278771Y-71668869D01*
X125427437Y-71843000D01*
X126253000Y-71843000D01*
X126253000Y-70877266D01*
X126507000Y-70877266D01*
X126507000Y-71843000D01*
X127332563Y-71843000D01*
X127481229Y-71668869D01*
X127339568Y-71258951D01*
X127051821Y-70934448D01*
X126677938Y-70750732D01*
X126507000Y-70877266D01*
X126253000Y-70877266D01*
X126082062Y-70750732D01*
X125708179Y-70934448D01*
X125420432Y-71258951D01*
X125278771Y-71668869D01*
X122127000Y-71668869D01*
X122127000Y-68958171D01*
X129166891Y-68958171D01*
X129262145Y-69188703D01*
X129438369Y-69365235D01*
X129668735Y-69460891D01*
X129918171Y-69461109D01*
X130148703Y-69365855D01*
X130228698Y-69286000D01*
X132060002Y-69286000D01*
X132232975Y-69251594D01*
X132379614Y-69153612D01*
X132384225Y-69149001D01*
X136720293Y-69149001D01*
X136628765Y-69240369D01*
X136533109Y-69470735D01*
X136532891Y-69720171D01*
X136628145Y-69950703D01*
X136708000Y-70030698D01*
X136708000Y-78740000D01*
X136742406Y-78912973D01*
X136840388Y-79059612D01*
X140142388Y-82361612D01*
X140289027Y-82459594D01*
X140462000Y-82494000D01*
X157605274Y-82494000D01*
X157684371Y-82573235D01*
X157914737Y-82668891D01*
X158164173Y-82669109D01*
X158394705Y-82573855D01*
X158548657Y-82420171D01*
X163964891Y-82420171D01*
X164060145Y-82650703D01*
X164236369Y-82827235D01*
X164466735Y-82922891D01*
X164716171Y-82923109D01*
X164946703Y-82827855D01*
X165026698Y-82748000D01*
X182752600Y-82748000D01*
X182925573Y-82713594D01*
X183072212Y-82615612D01*
X183419612Y-82268212D01*
X183517594Y-82121573D01*
X183547311Y-81972172D01*
X183734334Y-81934971D01*
X184120592Y-81676881D01*
X184378682Y-81290623D01*
X184469311Y-80835000D01*
X184378682Y-80379377D01*
X184366091Y-80360533D01*
X187263612Y-77463012D01*
X187361594Y-77316373D01*
X187396000Y-77143400D01*
X187396000Y-76832171D01*
X190126891Y-76832171D01*
X190222145Y-77062703D01*
X190398369Y-77239235D01*
X190628735Y-77334891D01*
X190878171Y-77335109D01*
X191108703Y-77239855D01*
X191285235Y-77063631D01*
X191380891Y-76833265D01*
X191380990Y-76720234D01*
X191835612Y-76265612D01*
X191933594Y-76118973D01*
X191968000Y-75946000D01*
X191968000Y-75364728D01*
X192047235Y-75285631D01*
X192142891Y-75055265D01*
X192143109Y-74805829D01*
X192047855Y-74575297D01*
X191871631Y-74398765D01*
X191641265Y-74303109D01*
X191391829Y-74302891D01*
X191161297Y-74398145D01*
X190984765Y-74574369D01*
X190889109Y-74804735D01*
X190888891Y-75054171D01*
X190984145Y-75284703D01*
X191064000Y-75364698D01*
X191064000Y-75758776D01*
X190741787Y-76080989D01*
X190629829Y-76080891D01*
X190399297Y-76176145D01*
X190222765Y-76352369D01*
X190127109Y-76582735D01*
X190126891Y-76832171D01*
X187396000Y-76832171D01*
X187396000Y-75636000D01*
X189484000Y-75636000D01*
X189656973Y-75601594D01*
X189803612Y-75503612D01*
X191957224Y-73350000D01*
X192351272Y-73350000D01*
X192430369Y-73429235D01*
X192660735Y-73524891D01*
X192910171Y-73525109D01*
X193140703Y-73429855D01*
X193317235Y-73253631D01*
X193412891Y-73023265D01*
X193413109Y-72773829D01*
X193317855Y-72543297D01*
X193141631Y-72366765D01*
X192911265Y-72271109D01*
X192661829Y-72270891D01*
X192431297Y-72366145D01*
X192351302Y-72446000D01*
X191770000Y-72446000D01*
X191597027Y-72480406D01*
X191450388Y-72578388D01*
X189296776Y-74732000D01*
X187378728Y-74732000D01*
X187299631Y-74652765D01*
X187069265Y-74557109D01*
X186819829Y-74556891D01*
X186589297Y-74652145D01*
X186412765Y-74828369D01*
X186317109Y-75058735D01*
X186316891Y-75308171D01*
X186412145Y-75538703D01*
X186492000Y-75618698D01*
X186492000Y-76956176D01*
X183716662Y-79731514D01*
X183278711Y-79644400D01*
X182921289Y-79644400D01*
X182465666Y-79735029D01*
X182079408Y-79993119D01*
X181821318Y-80379377D01*
X181730689Y-80835000D01*
X181821318Y-81290623D01*
X182079408Y-81676881D01*
X182329519Y-81844000D01*
X175830042Y-81844000D01*
X175832856Y-81837222D01*
X175833143Y-81508221D01*
X175707505Y-81204154D01*
X175475070Y-80971312D01*
X175280260Y-80890420D01*
X175311375Y-80888217D01*
X175579352Y-80777217D01*
X175616499Y-80562104D01*
X175006000Y-79951605D01*
X174395501Y-80562104D01*
X174432648Y-80777217D01*
X174749828Y-80883033D01*
X174538154Y-80970495D01*
X174305312Y-81202930D01*
X174179144Y-81506778D01*
X174178857Y-81835779D01*
X174182254Y-81844000D01*
X165026728Y-81844000D01*
X164947631Y-81764765D01*
X164717265Y-81669109D01*
X164467829Y-81668891D01*
X164237297Y-81764145D01*
X164060765Y-81940369D01*
X163965109Y-82170735D01*
X163964891Y-82420171D01*
X158548657Y-82420171D01*
X158571237Y-82397631D01*
X158666893Y-82167265D01*
X158667111Y-81917829D01*
X158571857Y-81687297D01*
X158395633Y-81510765D01*
X158165267Y-81415109D01*
X157915831Y-81414891D01*
X157685299Y-81510145D01*
X157605304Y-81590000D01*
X154875834Y-81590000D01*
X154899406Y-81473600D01*
X154899406Y-80052218D01*
X155324652Y-79626972D01*
X173857888Y-79626972D01*
X173889783Y-80077375D01*
X174000783Y-80345352D01*
X174215896Y-80382499D01*
X174826395Y-79772000D01*
X175185605Y-79772000D01*
X175796104Y-80382499D01*
X176011217Y-80345352D01*
X176154112Y-79917028D01*
X176122217Y-79466625D01*
X176011217Y-79198648D01*
X175796104Y-79161501D01*
X175185605Y-79772000D01*
X174826395Y-79772000D01*
X174215896Y-79161501D01*
X174000783Y-79198648D01*
X173857888Y-79626972D01*
X155324652Y-79626972D01*
X155513612Y-79438012D01*
X155611594Y-79291373D01*
X155646000Y-79118400D01*
X155646000Y-78981896D01*
X174395501Y-78981896D01*
X175006000Y-79592395D01*
X175616499Y-78981896D01*
X175579352Y-78766783D01*
X175151028Y-78623888D01*
X174700625Y-78655783D01*
X174432648Y-78766783D01*
X174395501Y-78981896D01*
X155646000Y-78981896D01*
X155646000Y-78295000D01*
X181730689Y-78295000D01*
X181821318Y-78750623D01*
X182079408Y-79136881D01*
X182465666Y-79394971D01*
X182921289Y-79485600D01*
X183278711Y-79485600D01*
X183734334Y-79394971D01*
X184120592Y-79136881D01*
X184378682Y-78750623D01*
X184379955Y-78744224D01*
X184538973Y-78712594D01*
X184685612Y-78614612D01*
X185947613Y-77352611D01*
X186045595Y-77205972D01*
X186080001Y-77032999D01*
X186080001Y-75037610D01*
X186282703Y-74953855D01*
X186459235Y-74777631D01*
X186554891Y-74547265D01*
X186555109Y-74297829D01*
X186459855Y-74067297D01*
X186283631Y-73890765D01*
X186053265Y-73795109D01*
X185803829Y-73794891D01*
X185573297Y-73890145D01*
X185396765Y-74066369D01*
X185301109Y-74296735D01*
X185301007Y-74413435D01*
X185210407Y-74549026D01*
X185176001Y-74721999D01*
X185176001Y-76845775D01*
X184300062Y-77721714D01*
X184120592Y-77453119D01*
X183734334Y-77195029D01*
X183278711Y-77104400D01*
X182921289Y-77104400D01*
X182465666Y-77195029D01*
X182079408Y-77453119D01*
X181821318Y-77839377D01*
X181730689Y-78295000D01*
X155646000Y-78295000D01*
X155646000Y-76542983D01*
X156021612Y-76167372D01*
X156119594Y-76020733D01*
X156125302Y-75992035D01*
X156154000Y-75847759D01*
X156154000Y-75755000D01*
X181730689Y-75755000D01*
X181821318Y-76210623D01*
X182079408Y-76596881D01*
X182465666Y-76854971D01*
X182921289Y-76945600D01*
X183278711Y-76945600D01*
X183734334Y-76854971D01*
X184120592Y-76596881D01*
X184378682Y-76210623D01*
X184469311Y-75755000D01*
X184378682Y-75299377D01*
X184120592Y-74913119D01*
X183734334Y-74655029D01*
X183278711Y-74564400D01*
X182921289Y-74564400D01*
X182465666Y-74655029D01*
X182079408Y-74913119D01*
X181821318Y-75299377D01*
X181730689Y-75755000D01*
X156154000Y-75755000D01*
X156154000Y-73215000D01*
X181730689Y-73215000D01*
X181821318Y-73670623D01*
X182079408Y-74056881D01*
X182465666Y-74314971D01*
X182921289Y-74405600D01*
X183278711Y-74405600D01*
X183734334Y-74314971D01*
X184120592Y-74056881D01*
X184378682Y-73670623D01*
X184469311Y-73215000D01*
X184378682Y-72759377D01*
X184120592Y-72373119D01*
X183734334Y-72115029D01*
X183278711Y-72024400D01*
X182921289Y-72024400D01*
X182465666Y-72115029D01*
X182079408Y-72373119D01*
X181821318Y-72759377D01*
X181730689Y-73215000D01*
X156154000Y-73215000D01*
X156154000Y-72316728D01*
X156233235Y-72237631D01*
X156328891Y-72007265D01*
X156329109Y-71757829D01*
X156233855Y-71527297D01*
X156057631Y-71350765D01*
X155827265Y-71255109D01*
X155577829Y-71254891D01*
X155347297Y-71350145D01*
X155343010Y-71354425D01*
X155343010Y-71292342D01*
X157799612Y-68835740D01*
X157897594Y-68689101D01*
X157932000Y-68516128D01*
X157932000Y-67236728D01*
X158011235Y-67157631D01*
X158106891Y-66927265D01*
X158107109Y-66677829D01*
X158011855Y-66447297D01*
X158010561Y-66446001D01*
X160931779Y-66446001D01*
X165480390Y-70994612D01*
X165627029Y-71092594D01*
X165800002Y-71127000D01*
X181820597Y-71127000D01*
X181821318Y-71130623D01*
X182079408Y-71516881D01*
X182465666Y-71774971D01*
X182921289Y-71865600D01*
X183278711Y-71865600D01*
X183734334Y-71774971D01*
X184120592Y-71516881D01*
X184378682Y-71130623D01*
X184469311Y-70675000D01*
X184378682Y-70219377D01*
X184120592Y-69833119D01*
X183734334Y-69575029D01*
X183278711Y-69484400D01*
X182921289Y-69484400D01*
X182465666Y-69575029D01*
X182079408Y-69833119D01*
X181821318Y-70219377D01*
X181820597Y-70223000D01*
X165987226Y-70223000D01*
X163899226Y-68135000D01*
X181730689Y-68135000D01*
X181821318Y-68590623D01*
X182079408Y-68976881D01*
X182465666Y-69234971D01*
X182921289Y-69325600D01*
X183278711Y-69325600D01*
X183734334Y-69234971D01*
X184120592Y-68976881D01*
X184378682Y-68590623D01*
X184469311Y-68135000D01*
X184378682Y-67679377D01*
X184120592Y-67293119D01*
X183734334Y-67035029D01*
X183278711Y-66944400D01*
X182921289Y-66944400D01*
X182465666Y-67035029D01*
X182079408Y-67293119D01*
X181821318Y-67679377D01*
X181730689Y-68135000D01*
X163899226Y-68135000D01*
X162690397Y-66926171D01*
X186062891Y-66926171D01*
X186158145Y-67156703D01*
X186238000Y-67236698D01*
X186238000Y-70612000D01*
X186272406Y-70784973D01*
X186370388Y-70931612D01*
X188856989Y-73418213D01*
X188856891Y-73530171D01*
X188952145Y-73760703D01*
X189128369Y-73937235D01*
X189358735Y-74032891D01*
X189608171Y-74033109D01*
X189838703Y-73937855D01*
X190015235Y-73761631D01*
X190110891Y-73531265D01*
X190111109Y-73281829D01*
X190015855Y-73051297D01*
X189839631Y-72874765D01*
X189609265Y-72779109D01*
X189496234Y-72779010D01*
X187142000Y-70424776D01*
X187142000Y-67236728D01*
X187221235Y-67157631D01*
X187316891Y-66927265D01*
X187317109Y-66677829D01*
X187221855Y-66447297D01*
X187045631Y-66270765D01*
X186815265Y-66175109D01*
X186565829Y-66174891D01*
X186335297Y-66270145D01*
X186158765Y-66446369D01*
X186063109Y-66676735D01*
X186062891Y-66926171D01*
X162690397Y-66926171D01*
X161438615Y-65674389D01*
X161291976Y-65576407D01*
X161119003Y-65542001D01*
X155798928Y-65542001D01*
X155881847Y-65342309D01*
X155882065Y-65092873D01*
X155786811Y-64862341D01*
X155610587Y-64685809D01*
X155484348Y-64633390D01*
X156999366Y-64633390D01*
X157172339Y-64598984D01*
X157253952Y-64544452D01*
X157471755Y-64634891D01*
X157721191Y-64635109D01*
X157951723Y-64539855D01*
X158128255Y-64363631D01*
X158223911Y-64133265D01*
X158224129Y-63883829D01*
X158128875Y-63653297D01*
X157952651Y-63476765D01*
X157722285Y-63381109D01*
X157472849Y-63380891D01*
X157242317Y-63476145D01*
X157159726Y-63558592D01*
X157028480Y-63584698D01*
X156999782Y-63590406D01*
X156853143Y-63688388D01*
X156812141Y-63729390D01*
X154484524Y-63729390D01*
X154570592Y-63671881D01*
X154828682Y-63285623D01*
X154912911Y-62862171D01*
X155074891Y-62862171D01*
X155170145Y-63092703D01*
X155346369Y-63269235D01*
X155576735Y-63364891D01*
X155826171Y-63365109D01*
X156056703Y-63269855D01*
X156136698Y-63190000D01*
X157299272Y-63190000D01*
X157378369Y-63269235D01*
X157608735Y-63364891D01*
X157858171Y-63365109D01*
X158088703Y-63269855D01*
X158242655Y-63116171D01*
X172600891Y-63116171D01*
X172696145Y-63346703D01*
X172872369Y-63523235D01*
X173102735Y-63618891D01*
X173352171Y-63619109D01*
X173582703Y-63523855D01*
X173759235Y-63347631D01*
X173854891Y-63117265D01*
X173854990Y-63004234D01*
X174685224Y-62174000D01*
X182137954Y-62174000D01*
X182079408Y-62213119D01*
X181821318Y-62599377D01*
X181730689Y-63055000D01*
X181821318Y-63510623D01*
X182079408Y-63896881D01*
X182165476Y-63954390D01*
X176131610Y-63954390D01*
X175958637Y-63988796D01*
X175811998Y-64086778D01*
X175247787Y-64650989D01*
X175135829Y-64650891D01*
X174905297Y-64746145D01*
X174728765Y-64922369D01*
X174633109Y-65152735D01*
X174632891Y-65402171D01*
X174728145Y-65632703D01*
X174904369Y-65809235D01*
X175134735Y-65904891D01*
X175384171Y-65905109D01*
X175614703Y-65809855D01*
X175791235Y-65633631D01*
X175886891Y-65403265D01*
X175886990Y-65290234D01*
X176318834Y-64858390D01*
X182009068Y-64858390D01*
X181821318Y-65139377D01*
X181730689Y-65595000D01*
X181821318Y-66050623D01*
X182079408Y-66436881D01*
X182465666Y-66694971D01*
X182921289Y-66785600D01*
X183278711Y-66785600D01*
X183734334Y-66694971D01*
X184120592Y-66436881D01*
X184378682Y-66050623D01*
X184469311Y-65595000D01*
X184378682Y-65139377D01*
X184190932Y-64858390D01*
X187677057Y-64858390D01*
X187682145Y-64870703D01*
X187858369Y-65047235D01*
X188088735Y-65142891D01*
X188338171Y-65143109D01*
X188568703Y-65047855D01*
X188745235Y-64871631D01*
X188840891Y-64641265D01*
X188841109Y-64391829D01*
X188745855Y-64161297D01*
X188569631Y-63984765D01*
X188339265Y-63889109D01*
X188089829Y-63888891D01*
X187931310Y-63954390D01*
X184034524Y-63954390D01*
X184120592Y-63896881D01*
X184378682Y-63510623D01*
X184469311Y-63055000D01*
X184378682Y-62599377D01*
X184120592Y-62213119D01*
X184062046Y-62174000D01*
X187017272Y-62174000D01*
X187096369Y-62253235D01*
X187326735Y-62348891D01*
X187576171Y-62349109D01*
X187806703Y-62253855D01*
X187983235Y-62077631D01*
X188078891Y-61847265D01*
X188079109Y-61597829D01*
X187983855Y-61367297D01*
X187807631Y-61190765D01*
X187577265Y-61095109D01*
X187327829Y-61094891D01*
X187097297Y-61190145D01*
X187017302Y-61270000D01*
X184521560Y-61270000D01*
X184704709Y-60889791D01*
X184707358Y-60874026D01*
X184586217Y-60642000D01*
X183227000Y-60642000D01*
X183227000Y-60662000D01*
X182973000Y-60662000D01*
X182973000Y-60642000D01*
X181613783Y-60642000D01*
X181492642Y-60874026D01*
X181495291Y-60889791D01*
X181678440Y-61270000D01*
X174498000Y-61270000D01*
X174325027Y-61304406D01*
X174178388Y-61402388D01*
X173215787Y-62364989D01*
X173103829Y-62364891D01*
X172873297Y-62460145D01*
X172696765Y-62636369D01*
X172601109Y-62866735D01*
X172600891Y-63116171D01*
X158242655Y-63116171D01*
X158265235Y-63093631D01*
X158360891Y-62863265D01*
X158361109Y-62613829D01*
X158265855Y-62383297D01*
X158089631Y-62206765D01*
X157859265Y-62111109D01*
X157609829Y-62110891D01*
X157379297Y-62206145D01*
X157299302Y-62286000D01*
X156136728Y-62286000D01*
X156057631Y-62206765D01*
X155827265Y-62111109D01*
X155577829Y-62110891D01*
X155347297Y-62206145D01*
X155170765Y-62382369D01*
X155075109Y-62612735D01*
X155074891Y-62862171D01*
X154912911Y-62862171D01*
X154919311Y-62830000D01*
X154828682Y-62374377D01*
X154816091Y-62355533D01*
X158910874Y-58260750D01*
X181449000Y-58260750D01*
X181449000Y-58964910D01*
X181545673Y-59198299D01*
X181724302Y-59376927D01*
X181921861Y-59458759D01*
X181749268Y-59612964D01*
X181495291Y-60140209D01*
X181492642Y-60155974D01*
X181613783Y-60388000D01*
X182973000Y-60388000D01*
X182973000Y-58102000D01*
X183227000Y-58102000D01*
X183227000Y-60388000D01*
X184586217Y-60388000D01*
X184707358Y-60155974D01*
X184704709Y-60140209D01*
X184450732Y-59612964D01*
X184278139Y-59458759D01*
X184475698Y-59376927D01*
X184654327Y-59198299D01*
X184751000Y-58964910D01*
X184751000Y-58260750D01*
X184592250Y-58102000D01*
X183227000Y-58102000D01*
X182973000Y-58102000D01*
X181607750Y-58102000D01*
X181449000Y-58260750D01*
X158910874Y-58260750D01*
X160186534Y-56985090D01*
X181449000Y-56985090D01*
X181449000Y-57689250D01*
X181607750Y-57848000D01*
X182973000Y-57848000D01*
X182973000Y-56635150D01*
X183227000Y-56635150D01*
X183227000Y-57848000D01*
X184592250Y-57848000D01*
X184751000Y-57689250D01*
X184751000Y-56985090D01*
X184654327Y-56751701D01*
X184475698Y-56573073D01*
X184242309Y-56476400D01*
X183385750Y-56476400D01*
X183227000Y-56635150D01*
X182973000Y-56635150D01*
X182814250Y-56476400D01*
X181957691Y-56476400D01*
X181724302Y-56573073D01*
X181545673Y-56751701D01*
X181449000Y-56985090D01*
X160186534Y-56985090D01*
X161349612Y-55822012D01*
X161447594Y-55675373D01*
X161482000Y-55502400D01*
X161482000Y-51529403D01*
X161485623Y-51528682D01*
X161871881Y-51270592D01*
X162129971Y-50884334D01*
X162220600Y-50428711D01*
X162220600Y-50071289D01*
X162379400Y-50071289D01*
X162379400Y-50428711D01*
X162470029Y-50884334D01*
X162728119Y-51270592D01*
X163114377Y-51528682D01*
X163570000Y-51619311D01*
X164025623Y-51528682D01*
X164411881Y-51270592D01*
X164669971Y-50884334D01*
X164760600Y-50428711D01*
X164760600Y-50071289D01*
X164919400Y-50071289D01*
X164919400Y-50428711D01*
X165010029Y-50884334D01*
X165268119Y-51270592D01*
X165654377Y-51528682D01*
X166110000Y-51619311D01*
X166565623Y-51528682D01*
X166951881Y-51270592D01*
X167209971Y-50884334D01*
X167300600Y-50428711D01*
X167300600Y-50071289D01*
X167209971Y-49615666D01*
X166954950Y-49234000D01*
X167452994Y-49234000D01*
X167452994Y-51266000D01*
X167475795Y-51387179D01*
X167547412Y-51498474D01*
X167656686Y-51573138D01*
X167786400Y-51599406D01*
X169513600Y-51599406D01*
X169634779Y-51576605D01*
X169746074Y-51504988D01*
X169820738Y-51395714D01*
X169847006Y-51266000D01*
X169847006Y-50000000D01*
X173105418Y-50000000D01*
X173325755Y-51107709D01*
X173953221Y-52046779D01*
X174892291Y-52674245D01*
X176000000Y-52894582D01*
X177107709Y-52674245D01*
X178046779Y-52046779D01*
X178674245Y-51107709D01*
X178894582Y-50000000D01*
X178674245Y-48892291D01*
X178046779Y-47953221D01*
X177107709Y-47325755D01*
X176000000Y-47105418D01*
X174892291Y-47325755D01*
X173953221Y-47953221D01*
X173325755Y-48892291D01*
X173105418Y-50000000D01*
X169847006Y-50000000D01*
X169847006Y-49234000D01*
X169824205Y-49112821D01*
X169752588Y-49001526D01*
X169643314Y-48926862D01*
X169513600Y-48900594D01*
X167786400Y-48900594D01*
X167665221Y-48923395D01*
X167553926Y-48995012D01*
X167479262Y-49104286D01*
X167452994Y-49234000D01*
X166954950Y-49234000D01*
X166951881Y-49229408D01*
X166565623Y-48971318D01*
X166110000Y-48880689D01*
X165654377Y-48971318D01*
X165268119Y-49229408D01*
X165010029Y-49615666D01*
X164919400Y-50071289D01*
X164760600Y-50071289D01*
X164669971Y-49615666D01*
X164411881Y-49229408D01*
X164025623Y-48971318D01*
X163570000Y-48880689D01*
X163114377Y-48971318D01*
X162728119Y-49229408D01*
X162470029Y-49615666D01*
X162379400Y-50071289D01*
X162220600Y-50071289D01*
X162129971Y-49615666D01*
X161871881Y-49229408D01*
X161485623Y-48971318D01*
X161030000Y-48880689D01*
X160574377Y-48971318D01*
X160188119Y-49229408D01*
X159930029Y-49615666D01*
X159839400Y-50071289D01*
X159839400Y-50428711D01*
X159930029Y-50884334D01*
X160188119Y-51270592D01*
X160574377Y-51528682D01*
X160578000Y-51529403D01*
X160578000Y-55315176D01*
X154166662Y-61726514D01*
X153728711Y-61639400D01*
X153371289Y-61639400D01*
X152915666Y-61730029D01*
X152529408Y-61988119D01*
X152271318Y-62374377D01*
X152180689Y-62830000D01*
X152271318Y-63285623D01*
X152529408Y-63671881D01*
X152662014Y-63760486D01*
X152645373Y-63763796D01*
X152498734Y-63861777D01*
X150820000Y-65540512D01*
X150820000Y-65024000D01*
X150785594Y-64851027D01*
X150687612Y-64704388D01*
X146931011Y-60947787D01*
X146931109Y-60835829D01*
X146835855Y-60605297D01*
X146659631Y-60428765D01*
X146429265Y-60333109D01*
X146179829Y-60332891D01*
X145949297Y-60428145D01*
X145869302Y-60508000D01*
X138938000Y-60508000D01*
X138765027Y-60542406D01*
X138618388Y-60640388D01*
X137655787Y-61602989D01*
X137543829Y-61602891D01*
X137313297Y-61698145D01*
X137136765Y-61874369D01*
X137041109Y-62104735D01*
X137040891Y-62354171D01*
X137136145Y-62584703D01*
X137312369Y-62761235D01*
X137542735Y-62856891D01*
X137792171Y-62857109D01*
X138022703Y-62761855D01*
X138199235Y-62585631D01*
X138294891Y-62355265D01*
X138294990Y-62242234D01*
X139125224Y-61412000D01*
X141140682Y-61412000D01*
X141073109Y-61574735D01*
X141072891Y-61824171D01*
X141168145Y-62054703D01*
X141344369Y-62231235D01*
X141574735Y-62326891D01*
X141824171Y-62327109D01*
X142054703Y-62231855D01*
X142134698Y-62152000D01*
X142792776Y-62152000D01*
X148724989Y-68084213D01*
X148724891Y-68196171D01*
X148745067Y-68245001D01*
X132197001Y-68245001D01*
X132024028Y-68279407D01*
X131877389Y-68377389D01*
X131872778Y-68382000D01*
X130228728Y-68382000D01*
X130149631Y-68302765D01*
X129919265Y-68207109D01*
X129669829Y-68206891D01*
X129439297Y-68302145D01*
X129262765Y-68478369D01*
X129167109Y-68708735D01*
X129166891Y-68958171D01*
X122127000Y-68958171D01*
X122127000Y-67271131D01*
X125278771Y-67271131D01*
X125420432Y-67681049D01*
X125708179Y-68005552D01*
X126082062Y-68189268D01*
X126253000Y-68062734D01*
X126253000Y-67097000D01*
X126507000Y-67097000D01*
X126507000Y-68062734D01*
X126677938Y-68189268D01*
X127051821Y-68005552D01*
X127339568Y-67681049D01*
X127481229Y-67271131D01*
X127332563Y-67097000D01*
X126507000Y-67097000D01*
X126253000Y-67097000D01*
X125427437Y-67097000D01*
X125278771Y-67271131D01*
X122127000Y-67271131D01*
X122127000Y-66271874D01*
X122310881Y-66271874D01*
X122512632Y-66682763D01*
X122853322Y-66970002D01*
X123278000Y-67105000D01*
X123553000Y-67105000D01*
X123553000Y-66097000D01*
X123807000Y-66097000D01*
X123807000Y-67105000D01*
X124082000Y-67105000D01*
X124506678Y-66970002D01*
X124558665Y-66926171D01*
X139580891Y-66926171D01*
X139676145Y-67156703D01*
X139852369Y-67333235D01*
X140082735Y-67428891D01*
X140332171Y-67429109D01*
X140562703Y-67333855D01*
X140739235Y-67157631D01*
X140834891Y-66927265D01*
X140834990Y-66814234D01*
X142305612Y-65343612D01*
X142403594Y-65196973D01*
X142438000Y-65024000D01*
X142438000Y-64696728D01*
X142517235Y-64617631D01*
X142612891Y-64387265D01*
X142613109Y-64137829D01*
X142517855Y-63907297D01*
X142341631Y-63730765D01*
X142111265Y-63635109D01*
X141861829Y-63634891D01*
X141631297Y-63730145D01*
X141454765Y-63906369D01*
X141359109Y-64136735D01*
X141358891Y-64386171D01*
X141454145Y-64616703D01*
X141534000Y-64696698D01*
X141534000Y-64836776D01*
X140195787Y-66174989D01*
X140083829Y-66174891D01*
X139853297Y-66270145D01*
X139676765Y-66446369D01*
X139581109Y-66676735D01*
X139580891Y-66926171D01*
X124558665Y-66926171D01*
X124847368Y-66682763D01*
X124854190Y-66668869D01*
X125278771Y-66668869D01*
X125427437Y-66843000D01*
X126253000Y-66843000D01*
X126253000Y-65877266D01*
X126507000Y-65877266D01*
X126507000Y-66843000D01*
X127332563Y-66843000D01*
X127481229Y-66668869D01*
X127339568Y-66258951D01*
X127051821Y-65934448D01*
X126677938Y-65750732D01*
X126507000Y-65877266D01*
X126253000Y-65877266D01*
X126082062Y-65750732D01*
X125708179Y-65934448D01*
X125420432Y-66258951D01*
X125278771Y-66668869D01*
X124854190Y-66668869D01*
X125049119Y-66271874D01*
X124922954Y-66097000D01*
X123807000Y-66097000D01*
X123553000Y-66097000D01*
X122437046Y-66097000D01*
X122310881Y-66271874D01*
X122127000Y-66271874D01*
X122127000Y-65668126D01*
X122310881Y-65668126D01*
X122437046Y-65843000D01*
X123553000Y-65843000D01*
X123553000Y-64835000D01*
X123807000Y-64835000D01*
X123807000Y-65843000D01*
X124922954Y-65843000D01*
X125049119Y-65668126D01*
X125043249Y-65656171D01*
X132214891Y-65656171D01*
X132310145Y-65886703D01*
X132486369Y-66063235D01*
X132716735Y-66158891D01*
X132966171Y-66159109D01*
X133196703Y-66063855D01*
X133373235Y-65887631D01*
X133468891Y-65657265D01*
X133469109Y-65407829D01*
X133373855Y-65177297D01*
X133197631Y-65000765D01*
X132967265Y-64905109D01*
X132717829Y-64904891D01*
X132487297Y-65000145D01*
X132310765Y-65176369D01*
X132215109Y-65406735D01*
X132214891Y-65656171D01*
X125043249Y-65656171D01*
X124847368Y-65257237D01*
X124506678Y-64969998D01*
X124082000Y-64835000D01*
X123807000Y-64835000D01*
X123553000Y-64835000D01*
X123278000Y-64835000D01*
X122853322Y-64969998D01*
X122512632Y-65257237D01*
X122310881Y-65668126D01*
X122127000Y-65668126D01*
X122127000Y-60127000D01*
X136000000Y-60127000D01*
X136049410Y-60116994D01*
X136091035Y-60088553D01*
X136118315Y-60046159D01*
X136127000Y-60000000D01*
X136127000Y-58109026D01*
X151942642Y-58109026D01*
X151945291Y-58124791D01*
X152199268Y-58652036D01*
X152635680Y-59041954D01*
X153007039Y-59171854D01*
X152915666Y-59190029D01*
X152529408Y-59448119D01*
X152271318Y-59834377D01*
X152180689Y-60290000D01*
X152271318Y-60745623D01*
X152529408Y-61131881D01*
X152915666Y-61389971D01*
X153371289Y-61480600D01*
X153728711Y-61480600D01*
X154184334Y-61389971D01*
X154570592Y-61131881D01*
X154828682Y-60745623D01*
X154919311Y-60290000D01*
X154828682Y-59834377D01*
X154570592Y-59448119D01*
X154184334Y-59190029D01*
X154092961Y-59171854D01*
X154464320Y-59041954D01*
X154900732Y-58652036D01*
X155154709Y-58124791D01*
X155157358Y-58109026D01*
X155036217Y-57877000D01*
X153677000Y-57877000D01*
X153677000Y-57897000D01*
X153423000Y-57897000D01*
X153423000Y-57877000D01*
X152063783Y-57877000D01*
X151942642Y-58109026D01*
X136127000Y-58109026D01*
X136127000Y-57390974D01*
X151942642Y-57390974D01*
X152063783Y-57623000D01*
X153423000Y-57623000D01*
X153423000Y-56409076D01*
X153677000Y-56409076D01*
X153677000Y-57623000D01*
X155036217Y-57623000D01*
X155157358Y-57390974D01*
X155154709Y-57375209D01*
X154900732Y-56847964D01*
X154464320Y-56458046D01*
X153911913Y-56264816D01*
X153677000Y-56409076D01*
X153423000Y-56409076D01*
X153188087Y-56264816D01*
X152635680Y-56458046D01*
X152199268Y-56847964D01*
X151945291Y-57375209D01*
X151942642Y-57390974D01*
X136127000Y-57390974D01*
X136127000Y-50000000D01*
X146605418Y-50000000D01*
X146825755Y-51107709D01*
X147453221Y-52046779D01*
X148392291Y-52674245D01*
X149500000Y-52894582D01*
X150607709Y-52674245D01*
X151546779Y-52046779D01*
X152174245Y-51107709D01*
X152272864Y-50611913D01*
X154464816Y-50611913D01*
X154658046Y-51164320D01*
X155047964Y-51600732D01*
X155575209Y-51854709D01*
X155590974Y-51857358D01*
X155823000Y-51736217D01*
X155823000Y-50377000D01*
X154609076Y-50377000D01*
X154464816Y-50611913D01*
X152272864Y-50611913D01*
X152394582Y-50000000D01*
X152372322Y-49888087D01*
X154464816Y-49888087D01*
X154609076Y-50123000D01*
X155823000Y-50123000D01*
X155823000Y-48763783D01*
X156077000Y-48763783D01*
X156077000Y-50123000D01*
X156097000Y-50123000D01*
X156097000Y-50377000D01*
X156077000Y-50377000D01*
X156077000Y-51736217D01*
X156309026Y-51857358D01*
X156324791Y-51854709D01*
X156852036Y-51600732D01*
X157241954Y-51164320D01*
X157371854Y-50792961D01*
X157390029Y-50884334D01*
X157648119Y-51270592D01*
X158034377Y-51528682D01*
X158490000Y-51619311D01*
X158945623Y-51528682D01*
X159331881Y-51270592D01*
X159589971Y-50884334D01*
X159680600Y-50428711D01*
X159680600Y-50071289D01*
X159589971Y-49615666D01*
X159331881Y-49229408D01*
X158945623Y-48971318D01*
X158490000Y-48880689D01*
X158034377Y-48971318D01*
X157648119Y-49229408D01*
X157390029Y-49615666D01*
X157371854Y-49707039D01*
X157241954Y-49335680D01*
X156852036Y-48899268D01*
X156324791Y-48645291D01*
X156309026Y-48642642D01*
X156077000Y-48763783D01*
X155823000Y-48763783D01*
X155590974Y-48642642D01*
X155575209Y-48645291D01*
X155047964Y-48899268D01*
X154658046Y-49335680D01*
X154464816Y-49888087D01*
X152372322Y-49888087D01*
X152174245Y-48892291D01*
X151546779Y-47953221D01*
X150607709Y-47325755D01*
X149500000Y-47105418D01*
X148392291Y-47325755D01*
X147453221Y-47953221D01*
X146825755Y-48892291D01*
X146605418Y-50000000D01*
X136127000Y-50000000D01*
X136127000Y-46127000D01*
X188873000Y-46127000D01*
X188873000Y-60000000D01*
X188873000Y-60000000D01*
G37*
X188873000Y-60000000D02*
X188883006Y-60049410D01*
X188911447Y-60091035D01*
X188953841Y-60118315D01*
X189000000Y-60127000D01*
X202873000Y-60127000D01*
X202873000Y-78873000D01*
X189000000Y-78873000D01*
X188950590Y-78883006D01*
X188908965Y-78911447D01*
X188881685Y-78953841D01*
X188873000Y-79000000D01*
X188873000Y-91873000D01*
X176108500Y-91873000D01*
X177107709Y-91674245D01*
X178046779Y-91046779D01*
X178674245Y-90107709D01*
X178894582Y-89000000D01*
X178674245Y-87892291D01*
X178046779Y-86953221D01*
X177107709Y-86325755D01*
X176000000Y-86105418D01*
X174892291Y-86325755D01*
X173953221Y-86953221D01*
X173325755Y-87892291D01*
X173105418Y-89000000D01*
X173325755Y-90107709D01*
X173953221Y-91046779D01*
X174892291Y-91674245D01*
X175891500Y-91873000D01*
X136127000Y-91873000D01*
X136127000Y-89000000D01*
X146798000Y-89000000D01*
X147003678Y-90034011D01*
X147589397Y-90910603D01*
X148465989Y-91496322D01*
X149500000Y-91702000D01*
X150534011Y-91496322D01*
X151410603Y-90910603D01*
X151996322Y-90034011D01*
X152202000Y-89000000D01*
X151996322Y-87965989D01*
X151410603Y-87089397D01*
X150534011Y-86503678D01*
X149500000Y-86298000D01*
X148465989Y-86503678D01*
X147589397Y-87089397D01*
X147003678Y-87965989D01*
X146798000Y-89000000D01*
X136127000Y-89000000D01*
X136127000Y-79000000D01*
X136116994Y-78950590D01*
X136088553Y-78908965D01*
X136046159Y-78881685D01*
X136000000Y-78873000D01*
X122127000Y-78873000D01*
X122127000Y-73271874D01*
X122310881Y-73271874D01*
X122512632Y-73682763D01*
X122853322Y-73970002D01*
X123278000Y-74105000D01*
X123553000Y-74105000D01*
X123553000Y-73097000D01*
X123807000Y-73097000D01*
X123807000Y-74105000D01*
X124082000Y-74105000D01*
X124506678Y-73970002D01*
X124847368Y-73682763D01*
X125049119Y-73271874D01*
X124922954Y-73097000D01*
X123807000Y-73097000D01*
X123553000Y-73097000D01*
X122437046Y-73097000D01*
X122310881Y-73271874D01*
X122127000Y-73271874D01*
X122127000Y-72668126D01*
X122310881Y-72668126D01*
X122437046Y-72843000D01*
X123553000Y-72843000D01*
X123553000Y-71835000D01*
X123807000Y-71835000D01*
X123807000Y-72843000D01*
X124922954Y-72843000D01*
X125049119Y-72668126D01*
X124854191Y-72271131D01*
X125278771Y-72271131D01*
X125420432Y-72681049D01*
X125708179Y-73005552D01*
X126082062Y-73189268D01*
X126253000Y-73062734D01*
X126253000Y-72097000D01*
X126507000Y-72097000D01*
X126507000Y-73062734D01*
X126677938Y-73189268D01*
X127051821Y-73005552D01*
X127339568Y-72681049D01*
X127481229Y-72271131D01*
X127332563Y-72097000D01*
X126507000Y-72097000D01*
X126253000Y-72097000D01*
X125427437Y-72097000D01*
X125278771Y-72271131D01*
X124854191Y-72271131D01*
X124847368Y-72257237D01*
X124506678Y-71969998D01*
X124082000Y-71835000D01*
X123807000Y-71835000D01*
X123553000Y-71835000D01*
X123278000Y-71835000D01*
X122853322Y-71969998D01*
X122512632Y-72257237D01*
X122310881Y-72668126D01*
X122127000Y-72668126D01*
X122127000Y-71668869D01*
X125278771Y-71668869D01*
X125427437Y-71843000D01*
X126253000Y-71843000D01*
X126253000Y-70877266D01*
X126507000Y-70877266D01*
X126507000Y-71843000D01*
X127332563Y-71843000D01*
X127481229Y-71668869D01*
X127339568Y-71258951D01*
X127051821Y-70934448D01*
X126677938Y-70750732D01*
X126507000Y-70877266D01*
X126253000Y-70877266D01*
X126082062Y-70750732D01*
X125708179Y-70934448D01*
X125420432Y-71258951D01*
X125278771Y-71668869D01*
X122127000Y-71668869D01*
X122127000Y-68958171D01*
X129166891Y-68958171D01*
X129262145Y-69188703D01*
X129438369Y-69365235D01*
X129668735Y-69460891D01*
X129918171Y-69461109D01*
X130148703Y-69365855D01*
X130228698Y-69286000D01*
X132060002Y-69286000D01*
X132232975Y-69251594D01*
X132379614Y-69153612D01*
X132384225Y-69149001D01*
X136720293Y-69149001D01*
X136628765Y-69240369D01*
X136533109Y-69470735D01*
X136532891Y-69720171D01*
X136628145Y-69950703D01*
X136708000Y-70030698D01*
X136708000Y-78740000D01*
X136742406Y-78912973D01*
X136840388Y-79059612D01*
X140142388Y-82361612D01*
X140289027Y-82459594D01*
X140462000Y-82494000D01*
X157605274Y-82494000D01*
X157684371Y-82573235D01*
X157914737Y-82668891D01*
X158164173Y-82669109D01*
X158394705Y-82573855D01*
X158548657Y-82420171D01*
X163964891Y-82420171D01*
X164060145Y-82650703D01*
X164236369Y-82827235D01*
X164466735Y-82922891D01*
X164716171Y-82923109D01*
X164946703Y-82827855D01*
X165026698Y-82748000D01*
X182752600Y-82748000D01*
X182925573Y-82713594D01*
X183072212Y-82615612D01*
X183419612Y-82268212D01*
X183517594Y-82121573D01*
X183547311Y-81972172D01*
X183734334Y-81934971D01*
X184120592Y-81676881D01*
X184378682Y-81290623D01*
X184469311Y-80835000D01*
X184378682Y-80379377D01*
X184366091Y-80360533D01*
X187263612Y-77463012D01*
X187361594Y-77316373D01*
X187396000Y-77143400D01*
X187396000Y-76832171D01*
X190126891Y-76832171D01*
X190222145Y-77062703D01*
X190398369Y-77239235D01*
X190628735Y-77334891D01*
X190878171Y-77335109D01*
X191108703Y-77239855D01*
X191285235Y-77063631D01*
X191380891Y-76833265D01*
X191380990Y-76720234D01*
X191835612Y-76265612D01*
X191933594Y-76118973D01*
X191968000Y-75946000D01*
X191968000Y-75364728D01*
X192047235Y-75285631D01*
X192142891Y-75055265D01*
X192143109Y-74805829D01*
X192047855Y-74575297D01*
X191871631Y-74398765D01*
X191641265Y-74303109D01*
X191391829Y-74302891D01*
X191161297Y-74398145D01*
X190984765Y-74574369D01*
X190889109Y-74804735D01*
X190888891Y-75054171D01*
X190984145Y-75284703D01*
X191064000Y-75364698D01*
X191064000Y-75758776D01*
X190741787Y-76080989D01*
X190629829Y-76080891D01*
X190399297Y-76176145D01*
X190222765Y-76352369D01*
X190127109Y-76582735D01*
X190126891Y-76832171D01*
X187396000Y-76832171D01*
X187396000Y-75636000D01*
X189484000Y-75636000D01*
X189656973Y-75601594D01*
X189803612Y-75503612D01*
X191957224Y-73350000D01*
X192351272Y-73350000D01*
X192430369Y-73429235D01*
X192660735Y-73524891D01*
X192910171Y-73525109D01*
X193140703Y-73429855D01*
X193317235Y-73253631D01*
X193412891Y-73023265D01*
X193413109Y-72773829D01*
X193317855Y-72543297D01*
X193141631Y-72366765D01*
X192911265Y-72271109D01*
X192661829Y-72270891D01*
X192431297Y-72366145D01*
X192351302Y-72446000D01*
X191770000Y-72446000D01*
X191597027Y-72480406D01*
X191450388Y-72578388D01*
X189296776Y-74732000D01*
X187378728Y-74732000D01*
X187299631Y-74652765D01*
X187069265Y-74557109D01*
X186819829Y-74556891D01*
X186589297Y-74652145D01*
X186412765Y-74828369D01*
X186317109Y-75058735D01*
X186316891Y-75308171D01*
X186412145Y-75538703D01*
X186492000Y-75618698D01*
X186492000Y-76956176D01*
X183716662Y-79731514D01*
X183278711Y-79644400D01*
X182921289Y-79644400D01*
X182465666Y-79735029D01*
X182079408Y-79993119D01*
X181821318Y-80379377D01*
X181730689Y-80835000D01*
X181821318Y-81290623D01*
X182079408Y-81676881D01*
X182329519Y-81844000D01*
X175830042Y-81844000D01*
X175832856Y-81837222D01*
X175833143Y-81508221D01*
X175707505Y-81204154D01*
X175475070Y-80971312D01*
X175280260Y-80890420D01*
X175311375Y-80888217D01*
X175579352Y-80777217D01*
X175616499Y-80562104D01*
X175006000Y-79951605D01*
X174395501Y-80562104D01*
X174432648Y-80777217D01*
X174749828Y-80883033D01*
X174538154Y-80970495D01*
X174305312Y-81202930D01*
X174179144Y-81506778D01*
X174178857Y-81835779D01*
X174182254Y-81844000D01*
X165026728Y-81844000D01*
X164947631Y-81764765D01*
X164717265Y-81669109D01*
X164467829Y-81668891D01*
X164237297Y-81764145D01*
X164060765Y-81940369D01*
X163965109Y-82170735D01*
X163964891Y-82420171D01*
X158548657Y-82420171D01*
X158571237Y-82397631D01*
X158666893Y-82167265D01*
X158667111Y-81917829D01*
X158571857Y-81687297D01*
X158395633Y-81510765D01*
X158165267Y-81415109D01*
X157915831Y-81414891D01*
X157685299Y-81510145D01*
X157605304Y-81590000D01*
X154875834Y-81590000D01*
X154899406Y-81473600D01*
X154899406Y-80052218D01*
X155324652Y-79626972D01*
X173857888Y-79626972D01*
X173889783Y-80077375D01*
X174000783Y-80345352D01*
X174215896Y-80382499D01*
X174826395Y-79772000D01*
X175185605Y-79772000D01*
X175796104Y-80382499D01*
X176011217Y-80345352D01*
X176154112Y-79917028D01*
X176122217Y-79466625D01*
X176011217Y-79198648D01*
X175796104Y-79161501D01*
X175185605Y-79772000D01*
X174826395Y-79772000D01*
X174215896Y-79161501D01*
X174000783Y-79198648D01*
X173857888Y-79626972D01*
X155324652Y-79626972D01*
X155513612Y-79438012D01*
X155611594Y-79291373D01*
X155646000Y-79118400D01*
X155646000Y-78981896D01*
X174395501Y-78981896D01*
X175006000Y-79592395D01*
X175616499Y-78981896D01*
X175579352Y-78766783D01*
X175151028Y-78623888D01*
X174700625Y-78655783D01*
X174432648Y-78766783D01*
X174395501Y-78981896D01*
X155646000Y-78981896D01*
X155646000Y-78295000D01*
X181730689Y-78295000D01*
X181821318Y-78750623D01*
X182079408Y-79136881D01*
X182465666Y-79394971D01*
X182921289Y-79485600D01*
X183278711Y-79485600D01*
X183734334Y-79394971D01*
X184120592Y-79136881D01*
X184378682Y-78750623D01*
X184379955Y-78744224D01*
X184538973Y-78712594D01*
X184685612Y-78614612D01*
X185947613Y-77352611D01*
X186045595Y-77205972D01*
X186080001Y-77032999D01*
X186080001Y-75037610D01*
X186282703Y-74953855D01*
X186459235Y-74777631D01*
X186554891Y-74547265D01*
X186555109Y-74297829D01*
X186459855Y-74067297D01*
X186283631Y-73890765D01*
X186053265Y-73795109D01*
X185803829Y-73794891D01*
X185573297Y-73890145D01*
X185396765Y-74066369D01*
X185301109Y-74296735D01*
X185301007Y-74413435D01*
X185210407Y-74549026D01*
X185176001Y-74721999D01*
X185176001Y-76845775D01*
X184300062Y-77721714D01*
X184120592Y-77453119D01*
X183734334Y-77195029D01*
X183278711Y-77104400D01*
X182921289Y-77104400D01*
X182465666Y-77195029D01*
X182079408Y-77453119D01*
X181821318Y-77839377D01*
X181730689Y-78295000D01*
X155646000Y-78295000D01*
X155646000Y-76542983D01*
X156021612Y-76167372D01*
X156119594Y-76020733D01*
X156125302Y-75992035D01*
X156154000Y-75847759D01*
X156154000Y-75755000D01*
X181730689Y-75755000D01*
X181821318Y-76210623D01*
X182079408Y-76596881D01*
X182465666Y-76854971D01*
X182921289Y-76945600D01*
X183278711Y-76945600D01*
X183734334Y-76854971D01*
X184120592Y-76596881D01*
X184378682Y-76210623D01*
X184469311Y-75755000D01*
X184378682Y-75299377D01*
X184120592Y-74913119D01*
X183734334Y-74655029D01*
X183278711Y-74564400D01*
X182921289Y-74564400D01*
X182465666Y-74655029D01*
X182079408Y-74913119D01*
X181821318Y-75299377D01*
X181730689Y-75755000D01*
X156154000Y-75755000D01*
X156154000Y-73215000D01*
X181730689Y-73215000D01*
X181821318Y-73670623D01*
X182079408Y-74056881D01*
X182465666Y-74314971D01*
X182921289Y-74405600D01*
X183278711Y-74405600D01*
X183734334Y-74314971D01*
X184120592Y-74056881D01*
X184378682Y-73670623D01*
X184469311Y-73215000D01*
X184378682Y-72759377D01*
X184120592Y-72373119D01*
X183734334Y-72115029D01*
X183278711Y-72024400D01*
X182921289Y-72024400D01*
X182465666Y-72115029D01*
X182079408Y-72373119D01*
X181821318Y-72759377D01*
X181730689Y-73215000D01*
X156154000Y-73215000D01*
X156154000Y-72316728D01*
X156233235Y-72237631D01*
X156328891Y-72007265D01*
X156329109Y-71757829D01*
X156233855Y-71527297D01*
X156057631Y-71350765D01*
X155827265Y-71255109D01*
X155577829Y-71254891D01*
X155347297Y-71350145D01*
X155343010Y-71354425D01*
X155343010Y-71292342D01*
X157799612Y-68835740D01*
X157897594Y-68689101D01*
X157932000Y-68516128D01*
X157932000Y-67236728D01*
X158011235Y-67157631D01*
X158106891Y-66927265D01*
X158107109Y-66677829D01*
X158011855Y-66447297D01*
X158010561Y-66446001D01*
X160931779Y-66446001D01*
X165480390Y-70994612D01*
X165627029Y-71092594D01*
X165800002Y-71127000D01*
X181820597Y-71127000D01*
X181821318Y-71130623D01*
X182079408Y-71516881D01*
X182465666Y-71774971D01*
X182921289Y-71865600D01*
X183278711Y-71865600D01*
X183734334Y-71774971D01*
X184120592Y-71516881D01*
X184378682Y-71130623D01*
X184469311Y-70675000D01*
X184378682Y-70219377D01*
X184120592Y-69833119D01*
X183734334Y-69575029D01*
X183278711Y-69484400D01*
X182921289Y-69484400D01*
X182465666Y-69575029D01*
X182079408Y-69833119D01*
X181821318Y-70219377D01*
X181820597Y-70223000D01*
X165987226Y-70223000D01*
X163899226Y-68135000D01*
X181730689Y-68135000D01*
X181821318Y-68590623D01*
X182079408Y-68976881D01*
X182465666Y-69234971D01*
X182921289Y-69325600D01*
X183278711Y-69325600D01*
X183734334Y-69234971D01*
X184120592Y-68976881D01*
X184378682Y-68590623D01*
X184469311Y-68135000D01*
X184378682Y-67679377D01*
X184120592Y-67293119D01*
X183734334Y-67035029D01*
X183278711Y-66944400D01*
X182921289Y-66944400D01*
X182465666Y-67035029D01*
X182079408Y-67293119D01*
X181821318Y-67679377D01*
X181730689Y-68135000D01*
X163899226Y-68135000D01*
X162690397Y-66926171D01*
X186062891Y-66926171D01*
X186158145Y-67156703D01*
X186238000Y-67236698D01*
X186238000Y-70612000D01*
X186272406Y-70784973D01*
X186370388Y-70931612D01*
X188856989Y-73418213D01*
X188856891Y-73530171D01*
X188952145Y-73760703D01*
X189128369Y-73937235D01*
X189358735Y-74032891D01*
X189608171Y-74033109D01*
X189838703Y-73937855D01*
X190015235Y-73761631D01*
X190110891Y-73531265D01*
X190111109Y-73281829D01*
X190015855Y-73051297D01*
X189839631Y-72874765D01*
X189609265Y-72779109D01*
X189496234Y-72779010D01*
X187142000Y-70424776D01*
X187142000Y-67236728D01*
X187221235Y-67157631D01*
X187316891Y-66927265D01*
X187317109Y-66677829D01*
X187221855Y-66447297D01*
X187045631Y-66270765D01*
X186815265Y-66175109D01*
X186565829Y-66174891D01*
X186335297Y-66270145D01*
X186158765Y-66446369D01*
X186063109Y-66676735D01*
X186062891Y-66926171D01*
X162690397Y-66926171D01*
X161438615Y-65674389D01*
X161291976Y-65576407D01*
X161119003Y-65542001D01*
X155798928Y-65542001D01*
X155881847Y-65342309D01*
X155882065Y-65092873D01*
X155786811Y-64862341D01*
X155610587Y-64685809D01*
X155484348Y-64633390D01*
X156999366Y-64633390D01*
X157172339Y-64598984D01*
X157253952Y-64544452D01*
X157471755Y-64634891D01*
X157721191Y-64635109D01*
X157951723Y-64539855D01*
X158128255Y-64363631D01*
X158223911Y-64133265D01*
X158224129Y-63883829D01*
X158128875Y-63653297D01*
X157952651Y-63476765D01*
X157722285Y-63381109D01*
X157472849Y-63380891D01*
X157242317Y-63476145D01*
X157159726Y-63558592D01*
X157028480Y-63584698D01*
X156999782Y-63590406D01*
X156853143Y-63688388D01*
X156812141Y-63729390D01*
X154484524Y-63729390D01*
X154570592Y-63671881D01*
X154828682Y-63285623D01*
X154912911Y-62862171D01*
X155074891Y-62862171D01*
X155170145Y-63092703D01*
X155346369Y-63269235D01*
X155576735Y-63364891D01*
X155826171Y-63365109D01*
X156056703Y-63269855D01*
X156136698Y-63190000D01*
X157299272Y-63190000D01*
X157378369Y-63269235D01*
X157608735Y-63364891D01*
X157858171Y-63365109D01*
X158088703Y-63269855D01*
X158242655Y-63116171D01*
X172600891Y-63116171D01*
X172696145Y-63346703D01*
X172872369Y-63523235D01*
X173102735Y-63618891D01*
X173352171Y-63619109D01*
X173582703Y-63523855D01*
X173759235Y-63347631D01*
X173854891Y-63117265D01*
X173854990Y-63004234D01*
X174685224Y-62174000D01*
X182137954Y-62174000D01*
X182079408Y-62213119D01*
X181821318Y-62599377D01*
X181730689Y-63055000D01*
X181821318Y-63510623D01*
X182079408Y-63896881D01*
X182165476Y-63954390D01*
X176131610Y-63954390D01*
X175958637Y-63988796D01*
X175811998Y-64086778D01*
X175247787Y-64650989D01*
X175135829Y-64650891D01*
X174905297Y-64746145D01*
X174728765Y-64922369D01*
X174633109Y-65152735D01*
X174632891Y-65402171D01*
X174728145Y-65632703D01*
X174904369Y-65809235D01*
X175134735Y-65904891D01*
X175384171Y-65905109D01*
X175614703Y-65809855D01*
X175791235Y-65633631D01*
X175886891Y-65403265D01*
X175886990Y-65290234D01*
X176318834Y-64858390D01*
X182009068Y-64858390D01*
X181821318Y-65139377D01*
X181730689Y-65595000D01*
X181821318Y-66050623D01*
X182079408Y-66436881D01*
X182465666Y-66694971D01*
X182921289Y-66785600D01*
X183278711Y-66785600D01*
X183734334Y-66694971D01*
X184120592Y-66436881D01*
X184378682Y-66050623D01*
X184469311Y-65595000D01*
X184378682Y-65139377D01*
X184190932Y-64858390D01*
X187677057Y-64858390D01*
X187682145Y-64870703D01*
X187858369Y-65047235D01*
X188088735Y-65142891D01*
X188338171Y-65143109D01*
X188568703Y-65047855D01*
X188745235Y-64871631D01*
X188840891Y-64641265D01*
X188841109Y-64391829D01*
X188745855Y-64161297D01*
X188569631Y-63984765D01*
X188339265Y-63889109D01*
X188089829Y-63888891D01*
X187931310Y-63954390D01*
X184034524Y-63954390D01*
X184120592Y-63896881D01*
X184378682Y-63510623D01*
X184469311Y-63055000D01*
X184378682Y-62599377D01*
X184120592Y-62213119D01*
X184062046Y-62174000D01*
X187017272Y-62174000D01*
X187096369Y-62253235D01*
X187326735Y-62348891D01*
X187576171Y-62349109D01*
X187806703Y-62253855D01*
X187983235Y-62077631D01*
X188078891Y-61847265D01*
X188079109Y-61597829D01*
X187983855Y-61367297D01*
X187807631Y-61190765D01*
X187577265Y-61095109D01*
X187327829Y-61094891D01*
X187097297Y-61190145D01*
X187017302Y-61270000D01*
X184521560Y-61270000D01*
X184704709Y-60889791D01*
X184707358Y-60874026D01*
X184586217Y-60642000D01*
X183227000Y-60642000D01*
X183227000Y-60662000D01*
X182973000Y-60662000D01*
X182973000Y-60642000D01*
X181613783Y-60642000D01*
X181492642Y-60874026D01*
X181495291Y-60889791D01*
X181678440Y-61270000D01*
X174498000Y-61270000D01*
X174325027Y-61304406D01*
X174178388Y-61402388D01*
X173215787Y-62364989D01*
X173103829Y-62364891D01*
X172873297Y-62460145D01*
X172696765Y-62636369D01*
X172601109Y-62866735D01*
X172600891Y-63116171D01*
X158242655Y-63116171D01*
X158265235Y-63093631D01*
X158360891Y-62863265D01*
X158361109Y-62613829D01*
X158265855Y-62383297D01*
X158089631Y-62206765D01*
X157859265Y-62111109D01*
X157609829Y-62110891D01*
X157379297Y-62206145D01*
X157299302Y-62286000D01*
X156136728Y-62286000D01*
X156057631Y-62206765D01*
X155827265Y-62111109D01*
X155577829Y-62110891D01*
X155347297Y-62206145D01*
X155170765Y-62382369D01*
X155075109Y-62612735D01*
X155074891Y-62862171D01*
X154912911Y-62862171D01*
X154919311Y-62830000D01*
X154828682Y-62374377D01*
X154816091Y-62355533D01*
X158910874Y-58260750D01*
X181449000Y-58260750D01*
X181449000Y-58964910D01*
X181545673Y-59198299D01*
X181724302Y-59376927D01*
X181921861Y-59458759D01*
X181749268Y-59612964D01*
X181495291Y-60140209D01*
X181492642Y-60155974D01*
X181613783Y-60388000D01*
X182973000Y-60388000D01*
X182973000Y-58102000D01*
X183227000Y-58102000D01*
X183227000Y-60388000D01*
X184586217Y-60388000D01*
X184707358Y-60155974D01*
X184704709Y-60140209D01*
X184450732Y-59612964D01*
X184278139Y-59458759D01*
X184475698Y-59376927D01*
X184654327Y-59198299D01*
X184751000Y-58964910D01*
X184751000Y-58260750D01*
X184592250Y-58102000D01*
X183227000Y-58102000D01*
X182973000Y-58102000D01*
X181607750Y-58102000D01*
X181449000Y-58260750D01*
X158910874Y-58260750D01*
X160186534Y-56985090D01*
X181449000Y-56985090D01*
X181449000Y-57689250D01*
X181607750Y-57848000D01*
X182973000Y-57848000D01*
X182973000Y-56635150D01*
X183227000Y-56635150D01*
X183227000Y-57848000D01*
X184592250Y-57848000D01*
X184751000Y-57689250D01*
X184751000Y-56985090D01*
X184654327Y-56751701D01*
X184475698Y-56573073D01*
X184242309Y-56476400D01*
X183385750Y-56476400D01*
X183227000Y-56635150D01*
X182973000Y-56635150D01*
X182814250Y-56476400D01*
X181957691Y-56476400D01*
X181724302Y-56573073D01*
X181545673Y-56751701D01*
X181449000Y-56985090D01*
X160186534Y-56985090D01*
X161349612Y-55822012D01*
X161447594Y-55675373D01*
X161482000Y-55502400D01*
X161482000Y-51529403D01*
X161485623Y-51528682D01*
X161871881Y-51270592D01*
X162129971Y-50884334D01*
X162220600Y-50428711D01*
X162220600Y-50071289D01*
X162379400Y-50071289D01*
X162379400Y-50428711D01*
X162470029Y-50884334D01*
X162728119Y-51270592D01*
X163114377Y-51528682D01*
X163570000Y-51619311D01*
X164025623Y-51528682D01*
X164411881Y-51270592D01*
X164669971Y-50884334D01*
X164760600Y-50428711D01*
X164760600Y-50071289D01*
X164919400Y-50071289D01*
X164919400Y-50428711D01*
X165010029Y-50884334D01*
X165268119Y-51270592D01*
X165654377Y-51528682D01*
X166110000Y-51619311D01*
X166565623Y-51528682D01*
X166951881Y-51270592D01*
X167209971Y-50884334D01*
X167300600Y-50428711D01*
X167300600Y-50071289D01*
X167209971Y-49615666D01*
X166954950Y-49234000D01*
X167452994Y-49234000D01*
X167452994Y-51266000D01*
X167475795Y-51387179D01*
X167547412Y-51498474D01*
X167656686Y-51573138D01*
X167786400Y-51599406D01*
X169513600Y-51599406D01*
X169634779Y-51576605D01*
X169746074Y-51504988D01*
X169820738Y-51395714D01*
X169847006Y-51266000D01*
X169847006Y-50000000D01*
X173105418Y-50000000D01*
X173325755Y-51107709D01*
X173953221Y-52046779D01*
X174892291Y-52674245D01*
X176000000Y-52894582D01*
X177107709Y-52674245D01*
X178046779Y-52046779D01*
X178674245Y-51107709D01*
X178894582Y-50000000D01*
X178674245Y-48892291D01*
X178046779Y-47953221D01*
X177107709Y-47325755D01*
X176000000Y-47105418D01*
X174892291Y-47325755D01*
X173953221Y-47953221D01*
X173325755Y-48892291D01*
X173105418Y-50000000D01*
X169847006Y-50000000D01*
X169847006Y-49234000D01*
X169824205Y-49112821D01*
X169752588Y-49001526D01*
X169643314Y-48926862D01*
X169513600Y-48900594D01*
X167786400Y-48900594D01*
X167665221Y-48923395D01*
X167553926Y-48995012D01*
X167479262Y-49104286D01*
X167452994Y-49234000D01*
X166954950Y-49234000D01*
X166951881Y-49229408D01*
X166565623Y-48971318D01*
X166110000Y-48880689D01*
X165654377Y-48971318D01*
X165268119Y-49229408D01*
X165010029Y-49615666D01*
X164919400Y-50071289D01*
X164760600Y-50071289D01*
X164669971Y-49615666D01*
X164411881Y-49229408D01*
X164025623Y-48971318D01*
X163570000Y-48880689D01*
X163114377Y-48971318D01*
X162728119Y-49229408D01*
X162470029Y-49615666D01*
X162379400Y-50071289D01*
X162220600Y-50071289D01*
X162129971Y-49615666D01*
X161871881Y-49229408D01*
X161485623Y-48971318D01*
X161030000Y-48880689D01*
X160574377Y-48971318D01*
X160188119Y-49229408D01*
X159930029Y-49615666D01*
X159839400Y-50071289D01*
X159839400Y-50428711D01*
X159930029Y-50884334D01*
X160188119Y-51270592D01*
X160574377Y-51528682D01*
X160578000Y-51529403D01*
X160578000Y-55315176D01*
X154166662Y-61726514D01*
X153728711Y-61639400D01*
X153371289Y-61639400D01*
X152915666Y-61730029D01*
X152529408Y-61988119D01*
X152271318Y-62374377D01*
X152180689Y-62830000D01*
X152271318Y-63285623D01*
X152529408Y-63671881D01*
X152662014Y-63760486D01*
X152645373Y-63763796D01*
X152498734Y-63861777D01*
X150820000Y-65540512D01*
X150820000Y-65024000D01*
X150785594Y-64851027D01*
X150687612Y-64704388D01*
X146931011Y-60947787D01*
X146931109Y-60835829D01*
X146835855Y-60605297D01*
X146659631Y-60428765D01*
X146429265Y-60333109D01*
X146179829Y-60332891D01*
X145949297Y-60428145D01*
X145869302Y-60508000D01*
X138938000Y-60508000D01*
X138765027Y-60542406D01*
X138618388Y-60640388D01*
X137655787Y-61602989D01*
X137543829Y-61602891D01*
X137313297Y-61698145D01*
X137136765Y-61874369D01*
X137041109Y-62104735D01*
X137040891Y-62354171D01*
X137136145Y-62584703D01*
X137312369Y-62761235D01*
X137542735Y-62856891D01*
X137792171Y-62857109D01*
X138022703Y-62761855D01*
X138199235Y-62585631D01*
X138294891Y-62355265D01*
X138294990Y-62242234D01*
X139125224Y-61412000D01*
X141140682Y-61412000D01*
X141073109Y-61574735D01*
X141072891Y-61824171D01*
X141168145Y-62054703D01*
X141344369Y-62231235D01*
X141574735Y-62326891D01*
X141824171Y-62327109D01*
X142054703Y-62231855D01*
X142134698Y-62152000D01*
X142792776Y-62152000D01*
X148724989Y-68084213D01*
X148724891Y-68196171D01*
X148745067Y-68245001D01*
X132197001Y-68245001D01*
X132024028Y-68279407D01*
X131877389Y-68377389D01*
X131872778Y-68382000D01*
X130228728Y-68382000D01*
X130149631Y-68302765D01*
X129919265Y-68207109D01*
X129669829Y-68206891D01*
X129439297Y-68302145D01*
X129262765Y-68478369D01*
X129167109Y-68708735D01*
X129166891Y-68958171D01*
X122127000Y-68958171D01*
X122127000Y-67271131D01*
X125278771Y-67271131D01*
X125420432Y-67681049D01*
X125708179Y-68005552D01*
X126082062Y-68189268D01*
X126253000Y-68062734D01*
X126253000Y-67097000D01*
X126507000Y-67097000D01*
X126507000Y-68062734D01*
X126677938Y-68189268D01*
X127051821Y-68005552D01*
X127339568Y-67681049D01*
X127481229Y-67271131D01*
X127332563Y-67097000D01*
X126507000Y-67097000D01*
X126253000Y-67097000D01*
X125427437Y-67097000D01*
X125278771Y-67271131D01*
X122127000Y-67271131D01*
X122127000Y-66271874D01*
X122310881Y-66271874D01*
X122512632Y-66682763D01*
X122853322Y-66970002D01*
X123278000Y-67105000D01*
X123553000Y-67105000D01*
X123553000Y-66097000D01*
X123807000Y-66097000D01*
X123807000Y-67105000D01*
X124082000Y-67105000D01*
X124506678Y-66970002D01*
X124558665Y-66926171D01*
X139580891Y-66926171D01*
X139676145Y-67156703D01*
X139852369Y-67333235D01*
X140082735Y-67428891D01*
X140332171Y-67429109D01*
X140562703Y-67333855D01*
X140739235Y-67157631D01*
X140834891Y-66927265D01*
X140834990Y-66814234D01*
X142305612Y-65343612D01*
X142403594Y-65196973D01*
X142438000Y-65024000D01*
X142438000Y-64696728D01*
X142517235Y-64617631D01*
X142612891Y-64387265D01*
X142613109Y-64137829D01*
X142517855Y-63907297D01*
X142341631Y-63730765D01*
X142111265Y-63635109D01*
X141861829Y-63634891D01*
X141631297Y-63730145D01*
X141454765Y-63906369D01*
X141359109Y-64136735D01*
X141358891Y-64386171D01*
X141454145Y-64616703D01*
X141534000Y-64696698D01*
X141534000Y-64836776D01*
X140195787Y-66174989D01*
X140083829Y-66174891D01*
X139853297Y-66270145D01*
X139676765Y-66446369D01*
X139581109Y-66676735D01*
X139580891Y-66926171D01*
X124558665Y-66926171D01*
X124847368Y-66682763D01*
X124854190Y-66668869D01*
X125278771Y-66668869D01*
X125427437Y-66843000D01*
X126253000Y-66843000D01*
X126253000Y-65877266D01*
X126507000Y-65877266D01*
X126507000Y-66843000D01*
X127332563Y-66843000D01*
X127481229Y-66668869D01*
X127339568Y-66258951D01*
X127051821Y-65934448D01*
X126677938Y-65750732D01*
X126507000Y-65877266D01*
X126253000Y-65877266D01*
X126082062Y-65750732D01*
X125708179Y-65934448D01*
X125420432Y-66258951D01*
X125278771Y-66668869D01*
X124854190Y-66668869D01*
X125049119Y-66271874D01*
X124922954Y-66097000D01*
X123807000Y-66097000D01*
X123553000Y-66097000D01*
X122437046Y-66097000D01*
X122310881Y-66271874D01*
X122127000Y-66271874D01*
X122127000Y-65668126D01*
X122310881Y-65668126D01*
X122437046Y-65843000D01*
X123553000Y-65843000D01*
X123553000Y-64835000D01*
X123807000Y-64835000D01*
X123807000Y-65843000D01*
X124922954Y-65843000D01*
X125049119Y-65668126D01*
X125043249Y-65656171D01*
X132214891Y-65656171D01*
X132310145Y-65886703D01*
X132486369Y-66063235D01*
X132716735Y-66158891D01*
X132966171Y-66159109D01*
X133196703Y-66063855D01*
X133373235Y-65887631D01*
X133468891Y-65657265D01*
X133469109Y-65407829D01*
X133373855Y-65177297D01*
X133197631Y-65000765D01*
X132967265Y-64905109D01*
X132717829Y-64904891D01*
X132487297Y-65000145D01*
X132310765Y-65176369D01*
X132215109Y-65406735D01*
X132214891Y-65656171D01*
X125043249Y-65656171D01*
X124847368Y-65257237D01*
X124506678Y-64969998D01*
X124082000Y-64835000D01*
X123807000Y-64835000D01*
X123553000Y-64835000D01*
X123278000Y-64835000D01*
X122853322Y-64969998D01*
X122512632Y-65257237D01*
X122310881Y-65668126D01*
X122127000Y-65668126D01*
X122127000Y-60127000D01*
X136000000Y-60127000D01*
X136049410Y-60116994D01*
X136091035Y-60088553D01*
X136118315Y-60046159D01*
X136127000Y-60000000D01*
X136127000Y-58109026D01*
X151942642Y-58109026D01*
X151945291Y-58124791D01*
X152199268Y-58652036D01*
X152635680Y-59041954D01*
X153007039Y-59171854D01*
X152915666Y-59190029D01*
X152529408Y-59448119D01*
X152271318Y-59834377D01*
X152180689Y-60290000D01*
X152271318Y-60745623D01*
X152529408Y-61131881D01*
X152915666Y-61389971D01*
X153371289Y-61480600D01*
X153728711Y-61480600D01*
X154184334Y-61389971D01*
X154570592Y-61131881D01*
X154828682Y-60745623D01*
X154919311Y-60290000D01*
X154828682Y-59834377D01*
X154570592Y-59448119D01*
X154184334Y-59190029D01*
X154092961Y-59171854D01*
X154464320Y-59041954D01*
X154900732Y-58652036D01*
X155154709Y-58124791D01*
X155157358Y-58109026D01*
X155036217Y-57877000D01*
X153677000Y-57877000D01*
X153677000Y-57897000D01*
X153423000Y-57897000D01*
X153423000Y-57877000D01*
X152063783Y-57877000D01*
X151942642Y-58109026D01*
X136127000Y-58109026D01*
X136127000Y-57390974D01*
X151942642Y-57390974D01*
X152063783Y-57623000D01*
X153423000Y-57623000D01*
X153423000Y-56409076D01*
X153677000Y-56409076D01*
X153677000Y-57623000D01*
X155036217Y-57623000D01*
X155157358Y-57390974D01*
X155154709Y-57375209D01*
X154900732Y-56847964D01*
X154464320Y-56458046D01*
X153911913Y-56264816D01*
X153677000Y-56409076D01*
X153423000Y-56409076D01*
X153188087Y-56264816D01*
X152635680Y-56458046D01*
X152199268Y-56847964D01*
X151945291Y-57375209D01*
X151942642Y-57390974D01*
X136127000Y-57390974D01*
X136127000Y-50000000D01*
X146605418Y-50000000D01*
X146825755Y-51107709D01*
X147453221Y-52046779D01*
X148392291Y-52674245D01*
X149500000Y-52894582D01*
X150607709Y-52674245D01*
X151546779Y-52046779D01*
X152174245Y-51107709D01*
X152272864Y-50611913D01*
X154464816Y-50611913D01*
X154658046Y-51164320D01*
X155047964Y-51600732D01*
X155575209Y-51854709D01*
X155590974Y-51857358D01*
X155823000Y-51736217D01*
X155823000Y-50377000D01*
X154609076Y-50377000D01*
X154464816Y-50611913D01*
X152272864Y-50611913D01*
X152394582Y-50000000D01*
X152372322Y-49888087D01*
X154464816Y-49888087D01*
X154609076Y-50123000D01*
X155823000Y-50123000D01*
X155823000Y-48763783D01*
X156077000Y-48763783D01*
X156077000Y-50123000D01*
X156097000Y-50123000D01*
X156097000Y-50377000D01*
X156077000Y-50377000D01*
X156077000Y-51736217D01*
X156309026Y-51857358D01*
X156324791Y-51854709D01*
X156852036Y-51600732D01*
X157241954Y-51164320D01*
X157371854Y-50792961D01*
X157390029Y-50884334D01*
X157648119Y-51270592D01*
X158034377Y-51528682D01*
X158490000Y-51619311D01*
X158945623Y-51528682D01*
X159331881Y-51270592D01*
X159589971Y-50884334D01*
X159680600Y-50428711D01*
X159680600Y-50071289D01*
X159589971Y-49615666D01*
X159331881Y-49229408D01*
X158945623Y-48971318D01*
X158490000Y-48880689D01*
X158034377Y-48971318D01*
X157648119Y-49229408D01*
X157390029Y-49615666D01*
X157371854Y-49707039D01*
X157241954Y-49335680D01*
X156852036Y-48899268D01*
X156324791Y-48645291D01*
X156309026Y-48642642D01*
X156077000Y-48763783D01*
X155823000Y-48763783D01*
X155590974Y-48642642D01*
X155575209Y-48645291D01*
X155047964Y-48899268D01*
X154658046Y-49335680D01*
X154464816Y-49888087D01*
X152372322Y-49888087D01*
X152174245Y-48892291D01*
X151546779Y-47953221D01*
X150607709Y-47325755D01*
X149500000Y-47105418D01*
X148392291Y-47325755D01*
X147453221Y-47953221D01*
X146825755Y-48892291D01*
X146605418Y-50000000D01*
X136127000Y-50000000D01*
X136127000Y-46127000D01*
X188873000Y-46127000D01*
X188873000Y-60000000D01*
G36*
X156948765Y-66446369D02*
X156853109Y-66676735D01*
X156852891Y-66926171D01*
X156948145Y-67156703D01*
X157028000Y-67236698D01*
X157028000Y-68328904D01*
X154917253Y-70439651D01*
X154828682Y-69994377D01*
X154570592Y-69608119D01*
X154184334Y-69350029D01*
X153728711Y-69259400D01*
X153371289Y-69259400D01*
X152915666Y-69350029D01*
X152529408Y-69608119D01*
X152271318Y-69994377D01*
X152180689Y-70450000D01*
X152271318Y-70905623D01*
X152529408Y-71291881D01*
X152915666Y-71549971D01*
X153371289Y-71640600D01*
X153728711Y-71640600D01*
X154184334Y-71549971D01*
X154439010Y-71379802D01*
X154439010Y-72060198D01*
X154184334Y-71890029D01*
X153728711Y-71799400D01*
X153371289Y-71799400D01*
X152915666Y-71890029D01*
X152529408Y-72148119D01*
X152271318Y-72534377D01*
X152180689Y-72990000D01*
X152271318Y-73445623D01*
X152529408Y-73831881D01*
X152915666Y-74089971D01*
X153371289Y-74180600D01*
X153728711Y-74180600D01*
X154184334Y-74089971D01*
X154439010Y-73919802D01*
X154439010Y-74600198D01*
X154184334Y-74430029D01*
X153728711Y-74339400D01*
X153371289Y-74339400D01*
X152915666Y-74430029D01*
X152529408Y-74688119D01*
X152271318Y-75074377D01*
X152180689Y-75530000D01*
X152271318Y-75985623D01*
X152529408Y-76371881D01*
X152915666Y-76629971D01*
X153371289Y-76720600D01*
X153553524Y-76720600D01*
X153394724Y-76879400D01*
X153371289Y-76879400D01*
X152915666Y-76970029D01*
X152529408Y-77228119D01*
X152271318Y-77614377D01*
X152180689Y-78070000D01*
X152271318Y-78525623D01*
X152529408Y-78911881D01*
X152915666Y-79169971D01*
X153371289Y-79260600D01*
X153728711Y-79260600D01*
X154184334Y-79169971D01*
X154570592Y-78911881D01*
X154742000Y-78655351D01*
X154742000Y-78931176D01*
X154260182Y-79412994D01*
X152534000Y-79412994D01*
X152412821Y-79435795D01*
X152301526Y-79507412D01*
X152226862Y-79616686D01*
X152200594Y-79746400D01*
X152200594Y-81473600D01*
X152222496Y-81590000D01*
X140649224Y-81590000D01*
X137612000Y-78552776D01*
X137612000Y-70030728D01*
X137691235Y-69951631D01*
X137786891Y-69721265D01*
X137787109Y-69471829D01*
X137691855Y-69241297D01*
X137599720Y-69149001D01*
X139768293Y-69149001D01*
X139676765Y-69240369D01*
X139581109Y-69470735D01*
X139580891Y-69720171D01*
X139676145Y-69950703D01*
X139756000Y-70030698D01*
X139756000Y-76019272D01*
X139676765Y-76098369D01*
X139581109Y-76328735D01*
X139580891Y-76578171D01*
X139676145Y-76808703D01*
X139852369Y-76985235D01*
X140082735Y-77080891D01*
X140332171Y-77081109D01*
X140562703Y-76985855D01*
X140739235Y-76809631D01*
X140834891Y-76579265D01*
X140835109Y-76329829D01*
X140739855Y-76099297D01*
X140660000Y-76019302D01*
X140660000Y-70030728D01*
X140739235Y-69951631D01*
X140834891Y-69721265D01*
X140835109Y-69471829D01*
X140739855Y-69241297D01*
X140647720Y-69149001D01*
X149780412Y-69149001D01*
X149953385Y-69114595D01*
X150100024Y-69016613D01*
X152106028Y-67010610D01*
X152615476Y-67010610D01*
X152529408Y-67068119D01*
X152271318Y-67454377D01*
X152180689Y-67910000D01*
X152271318Y-68365623D01*
X152529408Y-68751881D01*
X152915666Y-69009971D01*
X153371289Y-69100600D01*
X153728711Y-69100600D01*
X154184334Y-69009971D01*
X154570592Y-68751881D01*
X154828682Y-68365623D01*
X154919311Y-67910000D01*
X154828682Y-67454377D01*
X154570592Y-67068119D01*
X154400371Y-66954381D01*
X154514350Y-66878222D01*
X154865775Y-66526797D01*
X154916145Y-66648703D01*
X155092369Y-66825235D01*
X155322735Y-66920891D01*
X155572171Y-66921109D01*
X155802703Y-66825855D01*
X155979235Y-66649631D01*
X156063789Y-66446001D01*
X156949134Y-66446001D01*
X156948765Y-66446369D01*
X156948765Y-66446369D01*
G37*
X156948765Y-66446369D02*
X156853109Y-66676735D01*
X156852891Y-66926171D01*
X156948145Y-67156703D01*
X157028000Y-67236698D01*
X157028000Y-68328904D01*
X154917253Y-70439651D01*
X154828682Y-69994377D01*
X154570592Y-69608119D01*
X154184334Y-69350029D01*
X153728711Y-69259400D01*
X153371289Y-69259400D01*
X152915666Y-69350029D01*
X152529408Y-69608119D01*
X152271318Y-69994377D01*
X152180689Y-70450000D01*
X152271318Y-70905623D01*
X152529408Y-71291881D01*
X152915666Y-71549971D01*
X153371289Y-71640600D01*
X153728711Y-71640600D01*
X154184334Y-71549971D01*
X154439010Y-71379802D01*
X154439010Y-72060198D01*
X154184334Y-71890029D01*
X153728711Y-71799400D01*
X153371289Y-71799400D01*
X152915666Y-71890029D01*
X152529408Y-72148119D01*
X152271318Y-72534377D01*
X152180689Y-72990000D01*
X152271318Y-73445623D01*
X152529408Y-73831881D01*
X152915666Y-74089971D01*
X153371289Y-74180600D01*
X153728711Y-74180600D01*
X154184334Y-74089971D01*
X154439010Y-73919802D01*
X154439010Y-74600198D01*
X154184334Y-74430029D01*
X153728711Y-74339400D01*
X153371289Y-74339400D01*
X152915666Y-74430029D01*
X152529408Y-74688119D01*
X152271318Y-75074377D01*
X152180689Y-75530000D01*
X152271318Y-75985623D01*
X152529408Y-76371881D01*
X152915666Y-76629971D01*
X153371289Y-76720600D01*
X153553524Y-76720600D01*
X153394724Y-76879400D01*
X153371289Y-76879400D01*
X152915666Y-76970029D01*
X152529408Y-77228119D01*
X152271318Y-77614377D01*
X152180689Y-78070000D01*
X152271318Y-78525623D01*
X152529408Y-78911881D01*
X152915666Y-79169971D01*
X153371289Y-79260600D01*
X153728711Y-79260600D01*
X154184334Y-79169971D01*
X154570592Y-78911881D01*
X154742000Y-78655351D01*
X154742000Y-78931176D01*
X154260182Y-79412994D01*
X152534000Y-79412994D01*
X152412821Y-79435795D01*
X152301526Y-79507412D01*
X152226862Y-79616686D01*
X152200594Y-79746400D01*
X152200594Y-81473600D01*
X152222496Y-81590000D01*
X140649224Y-81590000D01*
X137612000Y-78552776D01*
X137612000Y-70030728D01*
X137691235Y-69951631D01*
X137786891Y-69721265D01*
X137787109Y-69471829D01*
X137691855Y-69241297D01*
X137599720Y-69149001D01*
X139768293Y-69149001D01*
X139676765Y-69240369D01*
X139581109Y-69470735D01*
X139580891Y-69720171D01*
X139676145Y-69950703D01*
X139756000Y-70030698D01*
X139756000Y-76019272D01*
X139676765Y-76098369D01*
X139581109Y-76328735D01*
X139580891Y-76578171D01*
X139676145Y-76808703D01*
X139852369Y-76985235D01*
X140082735Y-77080891D01*
X140332171Y-77081109D01*
X140562703Y-76985855D01*
X140739235Y-76809631D01*
X140834891Y-76579265D01*
X140835109Y-76329829D01*
X140739855Y-76099297D01*
X140660000Y-76019302D01*
X140660000Y-70030728D01*
X140739235Y-69951631D01*
X140834891Y-69721265D01*
X140835109Y-69471829D01*
X140739855Y-69241297D01*
X140647720Y-69149001D01*
X149780412Y-69149001D01*
X149953385Y-69114595D01*
X150100024Y-69016613D01*
X152106028Y-67010610D01*
X152615476Y-67010610D01*
X152529408Y-67068119D01*
X152271318Y-67454377D01*
X152180689Y-67910000D01*
X152271318Y-68365623D01*
X152529408Y-68751881D01*
X152915666Y-69009971D01*
X153371289Y-69100600D01*
X153728711Y-69100600D01*
X154184334Y-69009971D01*
X154570592Y-68751881D01*
X154828682Y-68365623D01*
X154919311Y-67910000D01*
X154828682Y-67454377D01*
X154570592Y-67068119D01*
X154400371Y-66954381D01*
X154514350Y-66878222D01*
X154865775Y-66526797D01*
X154916145Y-66648703D01*
X155092369Y-66825235D01*
X155322735Y-66920891D01*
X155572171Y-66921109D01*
X155802703Y-66825855D01*
X155979235Y-66649631D01*
X156063789Y-66446001D01*
X156949134Y-66446001D01*
X156948765Y-66446369D01*
M02*
