M48
;DRILL file {KiCad 4.0.2-4+6225~38~ubuntu15.10.1-stable} date Thu 10 Mar 2016 05:21:15 PM CST
;FORMAT={-:-/ absolute / metric / decimal}
FMAT,2
METRIC,TZ
T1C0.400
T2C0.500
T3C0.550
T4C1.016
%
G90
G05
M71
T1
X135.55Y-72.6
X145.15Y-63.2
X145.5Y-73.15
X146.75Y-78.
X147.Y-70.
X153.45Y-76.4
X154.65Y-72.9
X157.057Y-60.711
X158.15Y-78.4
X159.1Y-60.85
X174.2Y-59.8
X181.5Y-72.5
X185.15Y-81.4
X185.65Y-56.4
X191.95Y-60.8
T2
X201.295Y-67.68
X201.295Y-69.58
T4
X141.5Y-62.2
X141.5Y-64.74
X141.5Y-67.28
X141.5Y-69.82
X141.5Y-72.36
X141.5Y-74.9
X155.575Y-55.88
X156.21Y-83.185
X158.115Y-55.88
X158.75Y-83.185
X160.655Y-55.88
X161.29Y-83.185
X163.195Y-55.88
X163.83Y-83.185
X165.735Y-55.88
X166.37Y-83.185
X168.275Y-55.88
X168.91Y-83.185
X170.815Y-55.88
X171.45Y-83.185
X173.355Y-55.88
X173.99Y-83.185
X175.895Y-55.88
X176.53Y-83.185
X178.435Y-55.88
X179.07Y-83.185
T2
X124.014Y-66.095G85X124.664Y-66.095
G05
X124.014Y-73.095G85X124.664Y-73.095
G05
T3
X127.039Y-66.945G85X127.039Y-67.245
G05
X127.039Y-71.945G85X127.039Y-72.245
G05
T0
M30
