G04 #@! TF.FileFunction,Legend,Top*
%FSLAX46Y46*%
G04 Gerber Fmt 4.6, Leading zero omitted, Abs format (unit mm)*
G04 Created by KiCad (PCBNEW 4.0.2-4+6225~38~ubuntu15.10.1-stable) date Thu 10 Mar 2016 05:21:24 PM CST*
%MOMM*%
G01*
G04 APERTURE LIST*
%ADD10C,0.100000*%
%ADD11C,0.150000*%
G04 APERTURE END LIST*
D10*
D11*
X179520000Y-73630000D02*
X175520000Y-73630000D01*
X174720000Y-63630000D02*
X179520000Y-63630000D01*
X179520000Y-63630000D02*
X179520000Y-65630000D01*
X179520000Y-65630000D02*
X175520000Y-65630000D01*
X175520000Y-65630000D02*
X175520000Y-67630000D01*
X175520000Y-67630000D02*
X179520000Y-67630000D01*
X179520000Y-67630000D02*
X179520000Y-69630000D01*
X179520000Y-69630000D02*
X175520000Y-69630000D01*
X175520000Y-69630000D02*
X175520000Y-71630000D01*
X175520000Y-71630000D02*
X179520000Y-71630000D01*
X179520000Y-71630000D02*
X179520000Y-73630000D01*
X173320000Y-61430000D02*
X173320000Y-77430000D01*
X156520000Y-61430000D02*
X180520000Y-61430000D01*
X180520000Y-61430000D02*
X180520000Y-77430000D01*
X180520000Y-77430000D02*
X156520000Y-77430000D01*
X156520000Y-77430000D02*
X156520000Y-61430000D01*
X186150000Y-80449020D02*
X186150000Y-77749020D01*
X184650000Y-80449020D02*
X184650000Y-77749020D01*
X185550000Y-78949020D02*
X185300000Y-78949020D01*
X185300000Y-78949020D02*
X185450000Y-79099020D01*
X185050000Y-79199020D02*
X185750000Y-79199020D01*
X185400000Y-78849020D02*
X185400000Y-78499020D01*
X185400000Y-79199020D02*
X185050000Y-78849020D01*
X185050000Y-78849020D02*
X185750000Y-78849020D01*
X185750000Y-78849020D02*
X185400000Y-79199020D01*
X146850000Y-62995000D02*
G75*
G03X146850000Y-62995000I-800000J0D01*
G01*
X144650000Y-60895000D02*
X144650000Y-65095000D01*
X147450000Y-65095000D02*
X147450000Y-60895000D01*
X177165000Y-57150000D02*
X154305000Y-57150000D01*
X154305000Y-57150000D02*
X154305000Y-54610000D01*
X154305000Y-54610000D02*
X177165000Y-54610000D01*
X179985000Y-57430000D02*
X178435000Y-57430000D01*
X177165000Y-57150000D02*
X177165000Y-54610000D01*
X178435000Y-54330000D02*
X179985000Y-54330000D01*
X179985000Y-54330000D02*
X179985000Y-57430000D01*
X136950000Y-68900000D02*
G75*
G03X136950000Y-68900000I-100000J0D01*
G01*
X137400000Y-69150000D02*
X136900000Y-69150000D01*
X137400000Y-72050000D02*
X137400000Y-69150000D01*
X136900000Y-72050000D02*
X137400000Y-72050000D01*
X136900000Y-69150000D02*
X136900000Y-72050000D01*
X134025000Y-74050000D02*
X134025000Y-75250000D01*
X132275000Y-75250000D02*
X132275000Y-74050000D01*
X130048000Y-69447500D02*
X130048000Y-69066500D01*
X130048000Y-70463500D02*
X130048000Y-70082500D01*
X130048000Y-70082500D02*
X129667000Y-69447500D01*
X129667000Y-69447500D02*
X130429000Y-69447500D01*
X130429000Y-69447500D02*
X130048000Y-70082500D01*
X129540000Y-70082500D02*
X130556000Y-70082500D01*
X130948000Y-71765000D02*
X130948000Y-68225000D01*
X129148000Y-71765000D02*
X129148000Y-68225000D01*
X140230000Y-73630000D02*
X140230000Y-60930000D01*
X140230000Y-60930000D02*
X142770000Y-60930000D01*
X142770000Y-60930000D02*
X142770000Y-73630000D01*
X139950000Y-76450000D02*
X139950000Y-74900000D01*
X140230000Y-73630000D02*
X142770000Y-73630000D01*
X143050000Y-74900000D02*
X143050000Y-76450000D01*
X143050000Y-76450000D02*
X139950000Y-76450000D01*
X154550000Y-72125000D02*
X153350000Y-72125000D01*
X153350000Y-70375000D02*
X154550000Y-70375000D01*
X187495000Y-71790000D02*
X187495000Y-71645000D01*
X183345000Y-71790000D02*
X183345000Y-71645000D01*
X183345000Y-66640000D02*
X183345000Y-66785000D01*
X187495000Y-66640000D02*
X187495000Y-66785000D01*
X187495000Y-71790000D02*
X183345000Y-71790000D01*
X187495000Y-66640000D02*
X183345000Y-66640000D01*
X187495000Y-71645000D02*
X188895000Y-71645000D01*
X194625000Y-74600000D02*
X194625000Y-73400000D01*
X196375000Y-73400000D02*
X196375000Y-74600000D01*
X203295000Y-68680000D02*
G75*
G03X203295000Y-68680000I-3000000J0D01*
G01*
X190725000Y-66100000D02*
X190725000Y-64900000D01*
X192475000Y-64900000D02*
X192475000Y-66100000D01*
X195900000Y-69000000D02*
X194900000Y-69000000D01*
X194900000Y-70700000D02*
X195900000Y-70700000D01*
X154800000Y-63275000D02*
X153600000Y-63275000D01*
X153600000Y-61525000D02*
X154800000Y-61525000D01*
X146850000Y-78105000D02*
G75*
G03X146850000Y-78105000I-800000J0D01*
G01*
X147450000Y-80205000D02*
X147450000Y-76005000D01*
X144650000Y-76005000D02*
X144650000Y-80205000D01*
X150400000Y-75825000D02*
X149200000Y-75825000D01*
X149200000Y-74075000D02*
X150400000Y-74075000D01*
X153400000Y-74075000D02*
X154600000Y-74075000D01*
X154600000Y-75825000D02*
X153400000Y-75825000D01*
X151200000Y-63475000D02*
X150000000Y-63475000D01*
X150000000Y-61725000D02*
X151200000Y-61725000D01*
X154800000Y-67275000D02*
X153600000Y-67275000D01*
X153600000Y-65525000D02*
X154800000Y-65525000D01*
X157480000Y-81915000D02*
X180340000Y-81915000D01*
X180340000Y-81915000D02*
X180340000Y-84455000D01*
X180340000Y-84455000D02*
X157480000Y-84455000D01*
X154660000Y-81635000D02*
X156210000Y-81635000D01*
X157480000Y-81915000D02*
X157480000Y-84455000D01*
X156210000Y-84735000D02*
X154660000Y-84735000D01*
X154660000Y-84735000D02*
X154660000Y-81635000D01*
X121658540Y-65245100D02*
X121658540Y-73945100D01*
X128063540Y-65245100D02*
X128063540Y-73945100D01*
X128063540Y-73945100D02*
X121658540Y-73945100D01*
X122888540Y-73945100D02*
X122888540Y-65245100D01*
X121658540Y-65245100D02*
X128063540Y-65245100D01*
X129100000Y-74300000D02*
X129100000Y-75300000D01*
X130800000Y-75300000D02*
X130800000Y-74300000D01*
X186190000Y-62015000D02*
X185190000Y-62015000D01*
X185190000Y-63715000D02*
X186190000Y-63715000D01*
X192650000Y-74400000D02*
X192650000Y-73400000D01*
X190950000Y-73400000D02*
X190950000Y-74400000D01*
X184850000Y-52049020D02*
X184850000Y-54749020D01*
X186350000Y-52049020D02*
X186350000Y-54749020D01*
X185450000Y-53549020D02*
X185700000Y-53549020D01*
X185700000Y-53549020D02*
X185550000Y-53399020D01*
X185950000Y-53299020D02*
X185250000Y-53299020D01*
X185600000Y-53649020D02*
X185600000Y-53999020D01*
X185600000Y-53299020D02*
X185950000Y-53649020D01*
X185950000Y-53649020D02*
X185250000Y-53649020D01*
X185250000Y-53649020D02*
X185600000Y-53299020D01*
X185140000Y-58180000D02*
X186340000Y-58180000D01*
X186340000Y-59930000D02*
X185140000Y-59930000D01*
X191000000Y-68875000D02*
X192200000Y-68875000D01*
X192200000Y-70625000D02*
X191000000Y-70625000D01*
X194625000Y-65950000D02*
X194625000Y-64750000D01*
X196375000Y-64750000D02*
X196375000Y-65950000D01*
X133150000Y-67917500D02*
X133150000Y-67536500D01*
X133150000Y-68933500D02*
X133150000Y-68552500D01*
X133150000Y-68552500D02*
X132769000Y-67917500D01*
X132769000Y-67917500D02*
X133531000Y-67917500D01*
X133531000Y-67917500D02*
X133150000Y-68552500D01*
X132642000Y-68552500D02*
X133658000Y-68552500D01*
X134050000Y-70235000D02*
X134050000Y-66695000D01*
X132250000Y-70235000D02*
X132250000Y-66695000D01*
X151450980Y-70600000D02*
X148750980Y-70600000D01*
X151450980Y-72100000D02*
X148750980Y-72100000D01*
X149950980Y-71200000D02*
X149950980Y-71450000D01*
X149950980Y-71450000D02*
X150100980Y-71300000D01*
X150200980Y-71700000D02*
X150200980Y-71000000D01*
X149850980Y-71350000D02*
X149500980Y-71350000D01*
X150200980Y-71350000D02*
X149850980Y-71700000D01*
X149850980Y-71700000D02*
X149850980Y-71000000D01*
X149850980Y-71000000D02*
X150200980Y-71350000D01*
X151549020Y-65550000D02*
X148849020Y-65550000D01*
X151549020Y-67050000D02*
X148849020Y-67050000D01*
X150049020Y-66150000D02*
X150049020Y-66400000D01*
X150049020Y-66400000D02*
X150199020Y-66250000D01*
X150299020Y-66650000D02*
X150299020Y-65950000D01*
X149949020Y-66300000D02*
X149599020Y-66300000D01*
X150299020Y-66300000D02*
X149949020Y-66650000D01*
X149949020Y-66650000D02*
X149949020Y-65950000D01*
X149949020Y-65950000D02*
X150299020Y-66300000D01*
X146850000Y-69850000D02*
G75*
G03X146850000Y-69850000I-800000J0D01*
G01*
X147450000Y-71950000D02*
X147450000Y-67750000D01*
X144650000Y-67750000D02*
X144650000Y-71950000D01*
X154572381Y-75091905D02*
X155381905Y-75091905D01*
X155477143Y-75044286D01*
X155524762Y-74996667D01*
X155572381Y-74901429D01*
X155572381Y-74710952D01*
X155524762Y-74615714D01*
X155477143Y-74568095D01*
X155381905Y-74520476D01*
X154572381Y-74520476D01*
X155572381Y-73520476D02*
X155572381Y-74091905D01*
X155572381Y-73806191D02*
X154572381Y-73806191D01*
X154715238Y-73901429D01*
X154810476Y-73996667D01*
X154858095Y-74091905D01*
X184102381Y-79587115D02*
X183102381Y-79587115D01*
X183102381Y-79349020D01*
X183150000Y-79206162D01*
X183245238Y-79110924D01*
X183340476Y-79063305D01*
X183530952Y-79015686D01*
X183673810Y-79015686D01*
X183864286Y-79063305D01*
X183959524Y-79110924D01*
X184054762Y-79206162D01*
X184102381Y-79349020D01*
X184102381Y-79587115D01*
X183197619Y-78634734D02*
X183150000Y-78587115D01*
X183102381Y-78491877D01*
X183102381Y-78253781D01*
X183150000Y-78158543D01*
X183197619Y-78110924D01*
X183292857Y-78063305D01*
X183388095Y-78063305D01*
X183530952Y-78110924D01*
X184102381Y-78682353D01*
X184102381Y-78063305D01*
X148854762Y-64328333D02*
X148902381Y-64185476D01*
X148902381Y-63947380D01*
X148854762Y-63852142D01*
X148807143Y-63804523D01*
X148711905Y-63756904D01*
X148616667Y-63756904D01*
X148521429Y-63804523D01*
X148473810Y-63852142D01*
X148426190Y-63947380D01*
X148378571Y-64137857D01*
X148330952Y-64233095D01*
X148283333Y-64280714D01*
X148188095Y-64328333D01*
X148092857Y-64328333D01*
X147997619Y-64280714D01*
X147950000Y-64233095D01*
X147902381Y-64137857D01*
X147902381Y-63899761D01*
X147950000Y-63756904D01*
X147902381Y-63423571D02*
X148902381Y-63185476D01*
X148188095Y-62994999D01*
X148902381Y-62804523D01*
X147902381Y-62566428D01*
X147997619Y-62233095D02*
X147950000Y-62185476D01*
X147902381Y-62090238D01*
X147902381Y-61852142D01*
X147950000Y-61756904D01*
X147997619Y-61709285D01*
X148092857Y-61661666D01*
X148188095Y-61661666D01*
X148330952Y-61709285D01*
X148902381Y-62280714D01*
X148902381Y-61661666D01*
X182987381Y-56713333D02*
X183701667Y-56713333D01*
X183844524Y-56760953D01*
X183939762Y-56856191D01*
X183987381Y-56999048D01*
X183987381Y-57094286D01*
X183987381Y-56237143D02*
X182987381Y-56237143D01*
X182987381Y-55856190D01*
X183035000Y-55760952D01*
X183082619Y-55713333D01*
X183177857Y-55665714D01*
X183320714Y-55665714D01*
X183415952Y-55713333D01*
X183463571Y-55760952D01*
X183511190Y-55856190D01*
X183511190Y-56237143D01*
X183320714Y-54808571D02*
X183987381Y-54808571D01*
X182939762Y-55046667D02*
X183654048Y-55284762D01*
X183654048Y-54665714D01*
X135861905Y-67502381D02*
X135861905Y-68311905D01*
X135909524Y-68407143D01*
X135957143Y-68454762D01*
X136052381Y-68502381D01*
X136242858Y-68502381D01*
X136338096Y-68454762D01*
X136385715Y-68407143D01*
X136433334Y-68311905D01*
X136433334Y-67502381D01*
X137433334Y-68502381D02*
X136861905Y-68502381D01*
X137147619Y-68502381D02*
X137147619Y-67502381D01*
X137052381Y-67645238D01*
X136957143Y-67740476D01*
X136861905Y-67788095D01*
X138385715Y-68502381D02*
X137814286Y-68502381D01*
X138100000Y-68502381D02*
X138100000Y-67502381D01*
X138004762Y-67645238D01*
X137909524Y-67740476D01*
X137814286Y-67788095D01*
X131502381Y-74816666D02*
X131026190Y-75150000D01*
X131502381Y-75388095D02*
X130502381Y-75388095D01*
X130502381Y-75007142D01*
X130550000Y-74911904D01*
X130597619Y-74864285D01*
X130692857Y-74816666D01*
X130835714Y-74816666D01*
X130930952Y-74864285D01*
X130978571Y-74911904D01*
X131026190Y-75007142D01*
X131026190Y-75388095D01*
X130502381Y-74483333D02*
X130502381Y-73864285D01*
X130883333Y-74197619D01*
X130883333Y-74054761D01*
X130930952Y-73959523D01*
X130978571Y-73911904D01*
X131073810Y-73864285D01*
X131311905Y-73864285D01*
X131407143Y-73911904D01*
X131454762Y-73959523D01*
X131502381Y-74054761D01*
X131502381Y-74340476D01*
X131454762Y-74435714D01*
X131407143Y-74483333D01*
X128500381Y-73622143D02*
X127500381Y-73622143D01*
X128214667Y-73288809D01*
X127500381Y-72955476D01*
X128500381Y-72955476D01*
X127976571Y-72145952D02*
X128024190Y-72003095D01*
X128071810Y-71955476D01*
X128167048Y-71907857D01*
X128309905Y-71907857D01*
X128405143Y-71955476D01*
X128452762Y-72003095D01*
X128500381Y-72098333D01*
X128500381Y-72479286D01*
X127500381Y-72479286D01*
X127500381Y-72145952D01*
X127548000Y-72050714D01*
X127595619Y-72003095D01*
X127690857Y-71955476D01*
X127786095Y-71955476D01*
X127881333Y-72003095D01*
X127928952Y-72050714D01*
X127976571Y-72145952D01*
X127976571Y-72479286D01*
X128500381Y-70907857D02*
X128024190Y-71241191D01*
X128500381Y-71479286D02*
X127500381Y-71479286D01*
X127500381Y-71098333D01*
X127548000Y-71003095D01*
X127595619Y-70955476D01*
X127690857Y-70907857D01*
X127833714Y-70907857D01*
X127928952Y-70955476D01*
X127976571Y-71003095D01*
X128024190Y-71098333D01*
X128024190Y-71479286D01*
X128500381Y-69955476D02*
X128500381Y-70526905D01*
X128500381Y-70241191D02*
X127500381Y-70241191D01*
X127643238Y-70336429D01*
X127738476Y-70431667D01*
X127786095Y-70526905D01*
X127595619Y-69574524D02*
X127548000Y-69526905D01*
X127500381Y-69431667D01*
X127500381Y-69193571D01*
X127548000Y-69098333D01*
X127595619Y-69050714D01*
X127690857Y-69003095D01*
X127786095Y-69003095D01*
X127928952Y-69050714D01*
X128500381Y-69622143D01*
X128500381Y-69003095D01*
X127500381Y-68384048D02*
X127500381Y-68288809D01*
X127548000Y-68193571D01*
X127595619Y-68145952D01*
X127690857Y-68098333D01*
X127881333Y-68050714D01*
X128119429Y-68050714D01*
X128309905Y-68098333D01*
X128405143Y-68145952D01*
X128452762Y-68193571D01*
X128500381Y-68288809D01*
X128500381Y-68384048D01*
X128452762Y-68479286D01*
X128405143Y-68526905D01*
X128309905Y-68574524D01*
X128119429Y-68622143D01*
X127881333Y-68622143D01*
X127690857Y-68574524D01*
X127595619Y-68526905D01*
X127548000Y-68479286D01*
X127500381Y-68384048D01*
X128119429Y-67622143D02*
X128119429Y-66860238D01*
X128500381Y-65860238D02*
X128500381Y-66431667D01*
X128500381Y-66145953D02*
X127500381Y-66145953D01*
X127643238Y-66241191D01*
X127738476Y-66336429D01*
X127786095Y-66431667D01*
X140666667Y-79452381D02*
X140666667Y-80166667D01*
X140619047Y-80309524D01*
X140523809Y-80404762D01*
X140380952Y-80452381D01*
X140285714Y-80452381D01*
X141142857Y-80452381D02*
X141142857Y-79452381D01*
X141523810Y-79452381D01*
X141619048Y-79500000D01*
X141666667Y-79547619D01*
X141714286Y-79642857D01*
X141714286Y-79785714D01*
X141666667Y-79880952D01*
X141619048Y-79928571D01*
X141523810Y-79976190D01*
X141142857Y-79976190D01*
X142666667Y-80452381D02*
X142095238Y-80452381D01*
X142380952Y-80452381D02*
X142380952Y-79452381D01*
X142285714Y-79595238D01*
X142190476Y-79690476D01*
X142095238Y-79738095D01*
X153783334Y-69602381D02*
X153450000Y-69126190D01*
X153211905Y-69602381D02*
X153211905Y-68602381D01*
X153592858Y-68602381D01*
X153688096Y-68650000D01*
X153735715Y-68697619D01*
X153783334Y-68792857D01*
X153783334Y-68935714D01*
X153735715Y-69030952D01*
X153688096Y-69078571D01*
X153592858Y-69126190D01*
X153211905Y-69126190D01*
X154164286Y-68697619D02*
X154211905Y-68650000D01*
X154307143Y-68602381D01*
X154545239Y-68602381D01*
X154640477Y-68650000D01*
X154688096Y-68697619D01*
X154735715Y-68792857D01*
X154735715Y-68888095D01*
X154688096Y-69030952D01*
X154116667Y-69602381D01*
X154735715Y-69602381D01*
X184658095Y-72167381D02*
X184658095Y-72976905D01*
X184705714Y-73072143D01*
X184753333Y-73119762D01*
X184848571Y-73167381D01*
X185039048Y-73167381D01*
X185134286Y-73119762D01*
X185181905Y-73072143D01*
X185229524Y-72976905D01*
X185229524Y-72167381D01*
X185658095Y-72262619D02*
X185705714Y-72215000D01*
X185800952Y-72167381D01*
X186039048Y-72167381D01*
X186134286Y-72215000D01*
X186181905Y-72262619D01*
X186229524Y-72357857D01*
X186229524Y-72453095D01*
X186181905Y-72595952D01*
X185610476Y-73167381D01*
X186229524Y-73167381D01*
X197603381Y-74166666D02*
X197127190Y-74500000D01*
X197603381Y-74738095D02*
X196603381Y-74738095D01*
X196603381Y-74357142D01*
X196651000Y-74261904D01*
X196698619Y-74214285D01*
X196793857Y-74166666D01*
X196936714Y-74166666D01*
X197031952Y-74214285D01*
X197079571Y-74261904D01*
X197127190Y-74357142D01*
X197127190Y-74738095D01*
X197603381Y-73690476D02*
X197603381Y-73500000D01*
X197555762Y-73404761D01*
X197508143Y-73357142D01*
X197365286Y-73261904D01*
X197174810Y-73214285D01*
X196793857Y-73214285D01*
X196698619Y-73261904D01*
X196651000Y-73309523D01*
X196603381Y-73404761D01*
X196603381Y-73595238D01*
X196651000Y-73690476D01*
X196698619Y-73738095D01*
X196793857Y-73785714D01*
X197031952Y-73785714D01*
X197127190Y-73738095D01*
X197174810Y-73690476D01*
X197222429Y-73595238D01*
X197222429Y-73404761D01*
X197174810Y-73309523D01*
X197127190Y-73261904D01*
X197031952Y-73214285D01*
X206747381Y-76341905D02*
X207556905Y-76341905D01*
X207652143Y-76294286D01*
X207699762Y-76246667D01*
X207747381Y-76151429D01*
X207747381Y-75960952D01*
X207699762Y-75865714D01*
X207652143Y-75818095D01*
X207556905Y-75770476D01*
X206747381Y-75770476D01*
X206747381Y-75389524D02*
X206747381Y-74770476D01*
X207128333Y-75103810D01*
X207128333Y-74960952D01*
X207175952Y-74865714D01*
X207223571Y-74818095D01*
X207318810Y-74770476D01*
X207556905Y-74770476D01*
X207652143Y-74818095D01*
X207699762Y-74865714D01*
X207747381Y-74960952D01*
X207747381Y-75246667D01*
X207699762Y-75341905D01*
X207652143Y-75389524D01*
X194152381Y-66142857D02*
X193676190Y-66476191D01*
X194152381Y-66714286D02*
X193152381Y-66714286D01*
X193152381Y-66333333D01*
X193200000Y-66238095D01*
X193247619Y-66190476D01*
X193342857Y-66142857D01*
X193485714Y-66142857D01*
X193580952Y-66190476D01*
X193628571Y-66238095D01*
X193676190Y-66333333D01*
X193676190Y-66714286D01*
X194152381Y-65190476D02*
X194152381Y-65761905D01*
X194152381Y-65476191D02*
X193152381Y-65476191D01*
X193295238Y-65571429D01*
X193390476Y-65666667D01*
X193438095Y-65761905D01*
X193247619Y-64809524D02*
X193200000Y-64761905D01*
X193152381Y-64666667D01*
X193152381Y-64428571D01*
X193200000Y-64333333D01*
X193247619Y-64285714D01*
X193342857Y-64238095D01*
X193438095Y-64238095D01*
X193580952Y-64285714D01*
X194152381Y-64857143D01*
X194152381Y-64238095D01*
X195233334Y-68107143D02*
X195185715Y-68154762D01*
X195042858Y-68202381D01*
X194947620Y-68202381D01*
X194804762Y-68154762D01*
X194709524Y-68059524D01*
X194661905Y-67964286D01*
X194614286Y-67773810D01*
X194614286Y-67630952D01*
X194661905Y-67440476D01*
X194709524Y-67345238D01*
X194804762Y-67250000D01*
X194947620Y-67202381D01*
X195042858Y-67202381D01*
X195185715Y-67250000D01*
X195233334Y-67297619D01*
X196090477Y-67535714D02*
X196090477Y-68202381D01*
X195852381Y-67154762D02*
X195614286Y-67869048D01*
X196233334Y-67869048D01*
X154033334Y-60752381D02*
X153700000Y-60276190D01*
X153461905Y-60752381D02*
X153461905Y-59752381D01*
X153842858Y-59752381D01*
X153938096Y-59800000D01*
X153985715Y-59847619D01*
X154033334Y-59942857D01*
X154033334Y-60085714D01*
X153985715Y-60180952D01*
X153938096Y-60228571D01*
X153842858Y-60276190D01*
X153461905Y-60276190D01*
X154938096Y-59752381D02*
X154461905Y-59752381D01*
X154414286Y-60228571D01*
X154461905Y-60180952D01*
X154557143Y-60133333D01*
X154795239Y-60133333D01*
X154890477Y-60180952D01*
X154938096Y-60228571D01*
X154985715Y-60323810D01*
X154985715Y-60561905D01*
X154938096Y-60657143D01*
X154890477Y-60704762D01*
X154795239Y-60752381D01*
X154557143Y-60752381D01*
X154461905Y-60704762D01*
X154414286Y-60657143D01*
X144054762Y-79438333D02*
X144102381Y-79295476D01*
X144102381Y-79057380D01*
X144054762Y-78962142D01*
X144007143Y-78914523D01*
X143911905Y-78866904D01*
X143816667Y-78866904D01*
X143721429Y-78914523D01*
X143673810Y-78962142D01*
X143626190Y-79057380D01*
X143578571Y-79247857D01*
X143530952Y-79343095D01*
X143483333Y-79390714D01*
X143388095Y-79438333D01*
X143292857Y-79438333D01*
X143197619Y-79390714D01*
X143150000Y-79343095D01*
X143102381Y-79247857D01*
X143102381Y-79009761D01*
X143150000Y-78866904D01*
X143102381Y-78533571D02*
X144102381Y-78295476D01*
X143388095Y-78104999D01*
X144102381Y-77914523D01*
X143102381Y-77676428D01*
X143102381Y-77390714D02*
X143102381Y-76771666D01*
X143483333Y-77105000D01*
X143483333Y-76962142D01*
X143530952Y-76866904D01*
X143578571Y-76819285D01*
X143673810Y-76771666D01*
X143911905Y-76771666D01*
X144007143Y-76819285D01*
X144054762Y-76866904D01*
X144102381Y-76962142D01*
X144102381Y-77247857D01*
X144054762Y-77343095D01*
X144007143Y-77390714D01*
X149633334Y-73302381D02*
X149300000Y-72826190D01*
X149061905Y-73302381D02*
X149061905Y-72302381D01*
X149442858Y-72302381D01*
X149538096Y-72350000D01*
X149585715Y-72397619D01*
X149633334Y-72492857D01*
X149633334Y-72635714D01*
X149585715Y-72730952D01*
X149538096Y-72778571D01*
X149442858Y-72826190D01*
X149061905Y-72826190D01*
X150490477Y-72635714D02*
X150490477Y-73302381D01*
X150252381Y-72254762D02*
X150014286Y-72969048D01*
X150633334Y-72969048D01*
X153833334Y-77502381D02*
X153500000Y-77026190D01*
X153261905Y-77502381D02*
X153261905Y-76502381D01*
X153642858Y-76502381D01*
X153738096Y-76550000D01*
X153785715Y-76597619D01*
X153833334Y-76692857D01*
X153833334Y-76835714D01*
X153785715Y-76930952D01*
X153738096Y-76978571D01*
X153642858Y-77026190D01*
X153261905Y-77026190D01*
X154690477Y-76502381D02*
X154500000Y-76502381D01*
X154404762Y-76550000D01*
X154357143Y-76597619D01*
X154261905Y-76740476D01*
X154214286Y-76930952D01*
X154214286Y-77311905D01*
X154261905Y-77407143D01*
X154309524Y-77454762D01*
X154404762Y-77502381D01*
X154595239Y-77502381D01*
X154690477Y-77454762D01*
X154738096Y-77407143D01*
X154785715Y-77311905D01*
X154785715Y-77073810D01*
X154738096Y-76978571D01*
X154690477Y-76930952D01*
X154595239Y-76883333D01*
X154404762Y-76883333D01*
X154309524Y-76930952D01*
X154261905Y-76978571D01*
X154214286Y-77073810D01*
X153608334Y-64322381D02*
X153275000Y-63846190D01*
X153036905Y-64322381D02*
X153036905Y-63322381D01*
X153417858Y-63322381D01*
X153513096Y-63370000D01*
X153560715Y-63417619D01*
X153608334Y-63512857D01*
X153608334Y-63655714D01*
X153560715Y-63750952D01*
X153513096Y-63798571D01*
X153417858Y-63846190D01*
X153036905Y-63846190D01*
X154560715Y-64322381D02*
X153989286Y-64322381D01*
X154275000Y-64322381D02*
X154275000Y-63322381D01*
X154179762Y-63465238D01*
X154084524Y-63560476D01*
X153989286Y-63608095D01*
X154033334Y-64752381D02*
X153700000Y-64276190D01*
X153461905Y-64752381D02*
X153461905Y-63752381D01*
X153842858Y-63752381D01*
X153938096Y-63800000D01*
X153985715Y-63847619D01*
X154033334Y-63942857D01*
X154033334Y-64085714D01*
X153985715Y-64180952D01*
X153938096Y-64228571D01*
X153842858Y-64276190D01*
X153461905Y-64276190D01*
X154604762Y-64180952D02*
X154509524Y-64133333D01*
X154461905Y-64085714D01*
X154414286Y-63990476D01*
X154414286Y-63942857D01*
X154461905Y-63847619D01*
X154509524Y-63800000D01*
X154604762Y-63752381D01*
X154795239Y-63752381D01*
X154890477Y-63800000D01*
X154938096Y-63847619D01*
X154985715Y-63942857D01*
X154985715Y-63990476D01*
X154938096Y-64085714D01*
X154890477Y-64133333D01*
X154795239Y-64180952D01*
X154604762Y-64180952D01*
X154509524Y-64228571D01*
X154461905Y-64276190D01*
X154414286Y-64371429D01*
X154414286Y-64561905D01*
X154461905Y-64657143D01*
X154509524Y-64704762D01*
X154604762Y-64752381D01*
X154795239Y-64752381D01*
X154890477Y-64704762D01*
X154938096Y-64657143D01*
X154985715Y-64561905D01*
X154985715Y-64371429D01*
X154938096Y-64276190D01*
X154890477Y-64228571D01*
X154795239Y-64180952D01*
X150562381Y-84018333D02*
X151276667Y-84018333D01*
X151419524Y-84065953D01*
X151514762Y-84161191D01*
X151562381Y-84304048D01*
X151562381Y-84399286D01*
X151562381Y-83542143D02*
X150562381Y-83542143D01*
X150562381Y-83161190D01*
X150610000Y-83065952D01*
X150657619Y-83018333D01*
X150752857Y-82970714D01*
X150895714Y-82970714D01*
X150990952Y-83018333D01*
X151038571Y-83065952D01*
X151086190Y-83161190D01*
X151086190Y-83542143D01*
X150562381Y-82065952D02*
X150562381Y-82542143D01*
X151038571Y-82589762D01*
X150990952Y-82542143D01*
X150943333Y-82446905D01*
X150943333Y-82208809D01*
X150990952Y-82113571D01*
X151038571Y-82065952D01*
X151133810Y-82018333D01*
X151371905Y-82018333D01*
X151467143Y-82065952D01*
X151514762Y-82113571D01*
X151562381Y-82208809D01*
X151562381Y-82446905D01*
X151514762Y-82542143D01*
X151467143Y-82589762D01*
X129378381Y-70334095D02*
X128378381Y-70334095D01*
X128378381Y-69953142D01*
X128426000Y-69857904D01*
X128473619Y-69810285D01*
X128568857Y-69762666D01*
X128711714Y-69762666D01*
X128806952Y-69810285D01*
X128854571Y-69857904D01*
X128902190Y-69953142D01*
X128902190Y-70334095D01*
X129378381Y-68810285D02*
X129378381Y-69381714D01*
X129378381Y-69096000D02*
X128378381Y-69096000D01*
X128521238Y-69191238D01*
X128616476Y-69286476D01*
X128664095Y-69381714D01*
X128207143Y-74966666D02*
X128254762Y-75014285D01*
X128302381Y-75157142D01*
X128302381Y-75252380D01*
X128254762Y-75395238D01*
X128159524Y-75490476D01*
X128064286Y-75538095D01*
X127873810Y-75585714D01*
X127730952Y-75585714D01*
X127540476Y-75538095D01*
X127445238Y-75490476D01*
X127350000Y-75395238D01*
X127302381Y-75252380D01*
X127302381Y-75157142D01*
X127350000Y-75014285D01*
X127397619Y-74966666D01*
X128302381Y-74014285D02*
X128302381Y-74585714D01*
X128302381Y-74300000D02*
X127302381Y-74300000D01*
X127445238Y-74395238D01*
X127540476Y-74490476D01*
X127588095Y-74585714D01*
X185523334Y-61122143D02*
X185475715Y-61169762D01*
X185332858Y-61217381D01*
X185237620Y-61217381D01*
X185094762Y-61169762D01*
X184999524Y-61074524D01*
X184951905Y-60979286D01*
X184904286Y-60788810D01*
X184904286Y-60645952D01*
X184951905Y-60455476D01*
X184999524Y-60360238D01*
X185094762Y-60265000D01*
X185237620Y-60217381D01*
X185332858Y-60217381D01*
X185475715Y-60265000D01*
X185523334Y-60312619D01*
X185904286Y-60312619D02*
X185951905Y-60265000D01*
X186047143Y-60217381D01*
X186285239Y-60217381D01*
X186380477Y-60265000D01*
X186428096Y-60312619D01*
X186475715Y-60407857D01*
X186475715Y-60503095D01*
X186428096Y-60645952D01*
X185856667Y-61217381D01*
X186475715Y-61217381D01*
X194257143Y-74066666D02*
X194304762Y-74114285D01*
X194352381Y-74257142D01*
X194352381Y-74352380D01*
X194304762Y-74495238D01*
X194209524Y-74590476D01*
X194114286Y-74638095D01*
X193923810Y-74685714D01*
X193780952Y-74685714D01*
X193590476Y-74638095D01*
X193495238Y-74590476D01*
X193400000Y-74495238D01*
X193352381Y-74352380D01*
X193352381Y-74257142D01*
X193400000Y-74114285D01*
X193447619Y-74066666D01*
X193352381Y-73733333D02*
X193352381Y-73114285D01*
X193733333Y-73447619D01*
X193733333Y-73304761D01*
X193780952Y-73209523D01*
X193828571Y-73161904D01*
X193923810Y-73114285D01*
X194161905Y-73114285D01*
X194257143Y-73161904D01*
X194304762Y-73209523D01*
X194352381Y-73304761D01*
X194352381Y-73590476D01*
X194304762Y-73685714D01*
X194257143Y-73733333D01*
X187802381Y-54387115D02*
X186802381Y-54387115D01*
X186802381Y-54149020D01*
X186850000Y-54006162D01*
X186945238Y-53910924D01*
X187040476Y-53863305D01*
X187230952Y-53815686D01*
X187373810Y-53815686D01*
X187564286Y-53863305D01*
X187659524Y-53910924D01*
X187754762Y-54006162D01*
X187802381Y-54149020D01*
X187802381Y-54387115D01*
X187802381Y-52863305D02*
X187802381Y-53434734D01*
X187802381Y-53149020D02*
X186802381Y-53149020D01*
X186945238Y-53244258D01*
X187040476Y-53339496D01*
X187088095Y-53434734D01*
X185573334Y-61607381D02*
X185240000Y-61131190D01*
X185001905Y-61607381D02*
X185001905Y-60607381D01*
X185382858Y-60607381D01*
X185478096Y-60655000D01*
X185525715Y-60702619D01*
X185573334Y-60797857D01*
X185573334Y-60940714D01*
X185525715Y-61035952D01*
X185478096Y-61083571D01*
X185382858Y-61131190D01*
X185001905Y-61131190D01*
X185906667Y-60607381D02*
X186573334Y-60607381D01*
X186144762Y-61607381D01*
X190957143Y-72302381D02*
X190623809Y-71826190D01*
X190385714Y-72302381D02*
X190385714Y-71302381D01*
X190766667Y-71302381D01*
X190861905Y-71350000D01*
X190909524Y-71397619D01*
X190957143Y-71492857D01*
X190957143Y-71635714D01*
X190909524Y-71730952D01*
X190861905Y-71778571D01*
X190766667Y-71826190D01*
X190385714Y-71826190D01*
X191909524Y-72302381D02*
X191338095Y-72302381D01*
X191623809Y-72302381D02*
X191623809Y-71302381D01*
X191528571Y-71445238D01*
X191433333Y-71540476D01*
X191338095Y-71588095D01*
X192528571Y-71302381D02*
X192623810Y-71302381D01*
X192719048Y-71350000D01*
X192766667Y-71397619D01*
X192814286Y-71492857D01*
X192861905Y-71683333D01*
X192861905Y-71921429D01*
X192814286Y-72111905D01*
X192766667Y-72207143D01*
X192719048Y-72254762D01*
X192623810Y-72302381D01*
X192528571Y-72302381D01*
X192433333Y-72254762D01*
X192385714Y-72207143D01*
X192338095Y-72111905D01*
X192290476Y-71921429D01*
X192290476Y-71683333D01*
X192338095Y-71492857D01*
X192385714Y-71397619D01*
X192433333Y-71350000D01*
X192528571Y-71302381D01*
X198052381Y-65992857D02*
X197576190Y-66326191D01*
X198052381Y-66564286D02*
X197052381Y-66564286D01*
X197052381Y-66183333D01*
X197100000Y-66088095D01*
X197147619Y-66040476D01*
X197242857Y-65992857D01*
X197385714Y-65992857D01*
X197480952Y-66040476D01*
X197528571Y-66088095D01*
X197576190Y-66183333D01*
X197576190Y-66564286D01*
X198052381Y-65040476D02*
X198052381Y-65611905D01*
X198052381Y-65326191D02*
X197052381Y-65326191D01*
X197195238Y-65421429D01*
X197290476Y-65516667D01*
X197338095Y-65611905D01*
X198052381Y-64088095D02*
X198052381Y-64659524D01*
X198052381Y-64373810D02*
X197052381Y-64373810D01*
X197195238Y-64469048D01*
X197290476Y-64564286D01*
X197338095Y-64659524D01*
X131602381Y-72092143D02*
X130602381Y-72092143D01*
X131316667Y-71758809D01*
X130602381Y-71425476D01*
X131602381Y-71425476D01*
X131078571Y-70615952D02*
X131126190Y-70473095D01*
X131173810Y-70425476D01*
X131269048Y-70377857D01*
X131411905Y-70377857D01*
X131507143Y-70425476D01*
X131554762Y-70473095D01*
X131602381Y-70568333D01*
X131602381Y-70949286D01*
X130602381Y-70949286D01*
X130602381Y-70615952D01*
X130650000Y-70520714D01*
X130697619Y-70473095D01*
X130792857Y-70425476D01*
X130888095Y-70425476D01*
X130983333Y-70473095D01*
X131030952Y-70520714D01*
X131078571Y-70615952D01*
X131078571Y-70949286D01*
X131602381Y-69377857D02*
X131126190Y-69711191D01*
X131602381Y-69949286D02*
X130602381Y-69949286D01*
X130602381Y-69568333D01*
X130650000Y-69473095D01*
X130697619Y-69425476D01*
X130792857Y-69377857D01*
X130935714Y-69377857D01*
X131030952Y-69425476D01*
X131078571Y-69473095D01*
X131126190Y-69568333D01*
X131126190Y-69949286D01*
X131602381Y-68425476D02*
X131602381Y-68996905D01*
X131602381Y-68711191D02*
X130602381Y-68711191D01*
X130745238Y-68806429D01*
X130840476Y-68901667D01*
X130888095Y-68996905D01*
X130697619Y-68044524D02*
X130650000Y-67996905D01*
X130602381Y-67901667D01*
X130602381Y-67663571D01*
X130650000Y-67568333D01*
X130697619Y-67520714D01*
X130792857Y-67473095D01*
X130888095Y-67473095D01*
X131030952Y-67520714D01*
X131602381Y-68092143D01*
X131602381Y-67473095D01*
X130602381Y-66854048D02*
X130602381Y-66758809D01*
X130650000Y-66663571D01*
X130697619Y-66615952D01*
X130792857Y-66568333D01*
X130983333Y-66520714D01*
X131221429Y-66520714D01*
X131411905Y-66568333D01*
X131507143Y-66615952D01*
X131554762Y-66663571D01*
X131602381Y-66758809D01*
X131602381Y-66854048D01*
X131554762Y-66949286D01*
X131507143Y-66996905D01*
X131411905Y-67044524D01*
X131221429Y-67092143D01*
X130983333Y-67092143D01*
X130792857Y-67044524D01*
X130697619Y-66996905D01*
X130650000Y-66949286D01*
X130602381Y-66854048D01*
X131221429Y-66092143D02*
X131221429Y-65330238D01*
X130697619Y-64901667D02*
X130650000Y-64854048D01*
X130602381Y-64758810D01*
X130602381Y-64520714D01*
X130650000Y-64425476D01*
X130697619Y-64377857D01*
X130792857Y-64330238D01*
X130888095Y-64330238D01*
X131030952Y-64377857D01*
X131602381Y-64949286D01*
X131602381Y-64330238D01*
X149112885Y-73552381D02*
X149112885Y-72552381D01*
X149350980Y-72552381D01*
X149493838Y-72600000D01*
X149589076Y-72695238D01*
X149636695Y-72790476D01*
X149684314Y-72980952D01*
X149684314Y-73123810D01*
X149636695Y-73314286D01*
X149589076Y-73409524D01*
X149493838Y-73504762D01*
X149350980Y-73552381D01*
X149112885Y-73552381D01*
X150017647Y-72552381D02*
X150636695Y-72552381D01*
X150303361Y-72933333D01*
X150446219Y-72933333D01*
X150541457Y-72980952D01*
X150589076Y-73028571D01*
X150636695Y-73123810D01*
X150636695Y-73361905D01*
X150589076Y-73457143D01*
X150541457Y-73504762D01*
X150446219Y-73552381D01*
X150160504Y-73552381D01*
X150065266Y-73504762D01*
X150017647Y-73457143D01*
X149210925Y-68502381D02*
X149210925Y-67502381D01*
X149449020Y-67502381D01*
X149591878Y-67550000D01*
X149687116Y-67645238D01*
X149734735Y-67740476D01*
X149782354Y-67930952D01*
X149782354Y-68073810D01*
X149734735Y-68264286D01*
X149687116Y-68359524D01*
X149591878Y-68454762D01*
X149449020Y-68502381D01*
X149210925Y-68502381D01*
X150639497Y-67835714D02*
X150639497Y-68502381D01*
X150401401Y-67454762D02*
X150163306Y-68169048D01*
X150782354Y-68169048D01*
X144054762Y-71183333D02*
X144102381Y-71040476D01*
X144102381Y-70802380D01*
X144054762Y-70707142D01*
X144007143Y-70659523D01*
X143911905Y-70611904D01*
X143816667Y-70611904D01*
X143721429Y-70659523D01*
X143673810Y-70707142D01*
X143626190Y-70802380D01*
X143578571Y-70992857D01*
X143530952Y-71088095D01*
X143483333Y-71135714D01*
X143388095Y-71183333D01*
X143292857Y-71183333D01*
X143197619Y-71135714D01*
X143150000Y-71088095D01*
X143102381Y-70992857D01*
X143102381Y-70754761D01*
X143150000Y-70611904D01*
X143102381Y-70278571D02*
X144102381Y-70040476D01*
X143388095Y-69849999D01*
X144102381Y-69659523D01*
X143102381Y-69421428D01*
X144102381Y-68516666D02*
X144102381Y-69088095D01*
X144102381Y-68802381D02*
X143102381Y-68802381D01*
X143245238Y-68897619D01*
X143340476Y-68992857D01*
X143388095Y-69088095D01*
M02*
