G04 #@! TF.FileFunction,Paste,Top*
%FSLAX46Y46*%
G04 Gerber Fmt 4.6, Leading zero omitted, Abs format (unit mm)*
G04 Created by KiCad (PCBNEW 4.0.2-4+6225~38~ubuntu15.10.1-stable) date Thu 10 Mar 2016 05:21:24 PM CST*
%MOMM*%
G01*
G04 APERTURE LIST*
%ADD10C,0.100000*%
%ADD11R,0.750000X1.500000*%
%ADD12R,1.198880X1.198880*%
%ADD13R,0.900000X1.000000*%
%ADD14R,1.060000X0.650000*%
%ADD15R,1.300000X0.700000*%
%ADD16R,1.220000X0.910000*%
%ADD17R,0.700000X1.300000*%
%ADD18R,1.550000X0.600000*%
%ADD19R,1.000000X1.250000*%
%ADD20R,1.350000X0.400000*%
%ADD21R,1.250000X1.000000*%
G04 APERTURE END LIST*
D10*
D11*
X158720000Y-76730000D03*
X160720000Y-76730000D03*
X164720000Y-76730000D03*
X162720000Y-76730000D03*
X170720000Y-76730000D03*
X172720000Y-76730000D03*
X168720000Y-76730000D03*
X166720000Y-76730000D03*
X166720000Y-62230000D03*
X168720000Y-62230000D03*
X172720000Y-62230000D03*
X170720000Y-62230000D03*
X162720000Y-62230000D03*
X164720000Y-62230000D03*
X160720000Y-62230000D03*
X158720000Y-62230000D03*
D12*
X185400000Y-77800000D03*
X185400000Y-79898040D03*
D13*
X146850000Y-60945000D03*
X145250000Y-60945000D03*
X146850000Y-65045000D03*
X145250000Y-65045000D03*
D14*
X136050000Y-69650000D03*
X136050000Y-70600000D03*
X136050000Y-71550000D03*
X138250000Y-71550000D03*
X138250000Y-69650000D03*
D15*
X133150000Y-75600000D03*
X133150000Y-73700000D03*
D16*
X130048000Y-71400000D03*
X130048000Y-68130000D03*
D17*
X153000000Y-71250000D03*
X154900000Y-71250000D03*
D18*
X188120000Y-71120000D03*
X188120000Y-69850000D03*
X188120000Y-68580000D03*
X188120000Y-67310000D03*
X182720000Y-67310000D03*
X182720000Y-68580000D03*
X182720000Y-69850000D03*
X182720000Y-71120000D03*
D15*
X195500000Y-73050000D03*
X195500000Y-74950000D03*
X191600000Y-64550000D03*
X191600000Y-66450000D03*
D19*
X194400000Y-69850000D03*
X196400000Y-69850000D03*
D17*
X153250000Y-62400000D03*
X155150000Y-62400000D03*
D13*
X145250000Y-80155000D03*
X146850000Y-80155000D03*
X145250000Y-76055000D03*
X146850000Y-76055000D03*
D17*
X148850000Y-74950000D03*
X150750000Y-74950000D03*
X154950000Y-74950000D03*
X153050000Y-74950000D03*
X149650000Y-62600000D03*
X151550000Y-62600000D03*
X153250000Y-66400000D03*
X155150000Y-66400000D03*
D20*
X127038540Y-68295100D03*
X127038540Y-68945100D03*
X127038540Y-69595100D03*
X127038540Y-70245100D03*
X127038540Y-70895100D03*
D21*
X129950000Y-75800000D03*
X129950000Y-73800000D03*
D19*
X184690000Y-62865000D03*
X186690000Y-62865000D03*
D21*
X191800000Y-72900000D03*
X191800000Y-74900000D03*
D12*
X185600000Y-54698040D03*
X185600000Y-52600000D03*
D17*
X186690000Y-59055000D03*
X184790000Y-59055000D03*
X192550000Y-69750000D03*
X190650000Y-69750000D03*
D15*
X195500000Y-64400000D03*
X195500000Y-66300000D03*
D16*
X133150000Y-69870000D03*
X133150000Y-66600000D03*
D12*
X148801960Y-71350000D03*
X150900000Y-71350000D03*
X148900000Y-66300000D03*
X150998040Y-66300000D03*
D13*
X145250000Y-71900000D03*
X146850000Y-71900000D03*
X145250000Y-67800000D03*
X146850000Y-67800000D03*
M02*
